<svg xmlns="http://www.w3.org/2000/svg" width="631" height="497" fill="none" viewBox="0 0 631 497">
  <path fill="#fff" d="M265.467 495.933c-1.057 0-1.998-.144-2.824-.432-.825-.285-1.523-.705-2.093-1.258a5.382 5.382 0 0 1-1.302-2.019c-.299-.795-.448-1.7-.448-2.714 0-1.001.149-1.909.448-2.724a5.785 5.785 0 0 1 1.317-2.098 5.791 5.791 0 0 1 2.113-1.353c.835-.315 1.787-.472 2.854-.472.987 0 1.869.144 2.645.432a5.49 5.49 0 0 1 1.978 1.233 5.227 5.227 0 0 1 1.238 1.895c.285.729.426 1.536.423 2.421a7.86 7.86 0 0 1-.159 1.68 4.23 4.23 0 0 1-.517 1.338 2.616 2.616 0 0 1-.915.899c-.378.219-.835.343-1.372.373-.385.03-.696.002-.935-.084a1.146 1.146 0 0 1-.547-.383 1.402 1.402 0 0 1-.238-.602h-.06c-.08.199-.235.38-.467.542a2.745 2.745 0 0 1-.85.373 3.374 3.374 0 0 1-1.059.095 3.14 3.14 0 0 1-1.114-.274 2.824 2.824 0 0 1-.93-.691 3.313 3.313 0 0 1-.636-1.119c-.153-.444-.23-.957-.234-1.541.004-.576.085-1.079.244-1.506.162-.428.376-.787.641-1.079.269-.292.567-.52.895-.686.328-.166.658-.272.989-.318.375-.057.73-.057 1.064 0 .335.056.617.147.845.273.232.126.377.262.433.408h.07v-.557h1.556v4.852c.003.229.054.406.154.532a.485.485 0 0 0 .403.189c.228 0 .419-.101.571-.303.156-.202.272-.512.348-.93.08-.417.12-.949.12-1.596 0-.623-.083-1.17-.249-1.64a3.485 3.485 0 0 0-.686-1.208 3.617 3.617 0 0 0-1.019-.816 4.73 4.73 0 0 0-1.263-.457 6.668 6.668 0 0 0-1.392-.144c-.825 0-1.546.126-2.163.378a4.142 4.142 0 0 0-1.541 1.049c-.411.45-.719.979-.925 1.586a6.263 6.263 0 0 0-.308 1.973c.003.786.113 1.482.328 2.088.219.604.541 1.111.965 1.522a4.13 4.13 0 0 0 1.571.934c.623.212 1.339.318 2.147.318a7.35 7.35 0 0 0 1.119-.084c.365-.053.694-.119.989-.199.295-.076.532-.151.711-.224l.493 1.442a3.936 3.936 0 0 1-.851.333 8.185 8.185 0 0 1-1.203.254 9.318 9.318 0 0 1-1.372.099Zm-.229-4.494c.405 0 .726-.078.965-.234.242-.156.414-.386.517-.691.106-.308.156-.688.149-1.138a3.074 3.074 0 0 0-.154-1.01 1.142 1.142 0 0 0-.502-.631c-.235-.146-.564-.219-.984-.219-.368 0-.682.078-.94.234a1.534 1.534 0 0 0-.587.656 2.34 2.34 0 0 0-.204.985c.004.351.06.684.169.999.11.311.29.565.542.761.252.192.595.288 1.029.288Zm12.048-6.075v1.591h-4.599v-1.591h4.599Zm-3.555-1.83h2.118v7.119c0 .196.03.348.09.458.059.106.142.18.248.224.11.043.235.064.378.064.099 0 .199-.008.298-.025.1-.02.176-.035.229-.044l.333 1.576a6.018 6.018 0 0 1-.447.114 3.636 3.636 0 0 1-.701.084c-.511.02-.958-.048-1.343-.203a1.88 1.88 0 0 1-.89-.726c-.212-.328-.316-.743-.313-1.243v-7.398Zm4.934 9.466v-7.636h2.019v1.347h.089c.16-.448.425-.8.796-1.059.371-.259.815-.388 1.332-.388.524 0 .97.131 1.338.393.368.258.613.61.735 1.054h.08a2.03 2.03 0 0 1 .845-1.049c.411-.265.897-.398 1.457-.398.712 0 1.291.227 1.735.681.447.451.671 1.091.671 1.919V493h-2.113v-4.718c0-.424-.113-.742-.338-.955a1.185 1.185 0 0 0-.845-.318c-.385 0-.685.123-.9.368-.215.242-.323.562-.323.96V493h-2.053v-4.763c0-.374-.108-.673-.324-.895-.212-.222-.492-.333-.84-.333-.235 0-.447.06-.636.179-.186.116-.333.28-.443.492a1.57 1.57 0 0 0-.164.736V493h-2.118Zm12.77 0v-7.636h2.118V493h-2.118Zm1.064-8.621c-.315 0-.585-.104-.81-.313a1.017 1.017 0 0 1-.334-.761c0-.291.112-.542.334-.75a1.14 1.14 0 0 1 .81-.318c.315 0 .583.106.805.318a.984.984 0 0 1 .338.75c0 .295-.112.549-.338.761-.222.209-.49.313-.805.313Zm4.868 4.206V493h-2.118v-7.636h2.019v1.347h.089c.169-.444.453-.796.851-1.054.397-.262.88-.393 1.446-.393.531 0 .993.116 1.387.348.395.232.701.564.92.995.219.427.328.938.328 1.531V493h-2.118v-4.484c.004-.468-.116-.832-.358-1.094-.242-.265-.575-.398-.999-.398-.285 0-.537.061-.756.184a1.291 1.291 0 0 0-.507.537c-.119.232-.18.512-.184.84Zm11.488 1.164v-4.385h2.118V493h-2.033v-1.387h-.08a2.256 2.256 0 0 1-.86 1.079c-.397.272-.883.407-1.456.407-.511 0-.96-.116-1.348-.348a2.387 2.387 0 0 1-.909-.989c-.216-.427-.325-.94-.329-1.536v-4.862h2.118v4.484c.004.451.125.807.363 1.069.239.262.559.393.96.393.255 0 .494-.058.716-.174.222-.12.401-.295.537-.527.139-.232.207-.519.203-.86Zm10.166-2.208-1.939.12a.997.997 0 0 0-.214-.448 1.123 1.123 0 0 0-.432-.323 1.467 1.467 0 0 0-.631-.124c-.329 0-.605.069-.831.208-.225.136-.338.319-.338.547 0 .183.073.337.219.463.146.126.396.227.751.303l1.382.278c.742.153 1.296.398 1.66.736.365.338.547.782.547 1.333 0 .5-.147.939-.442 1.317-.292.378-.693.673-1.203.885-.508.209-1.093.313-1.755.313-1.011 0-1.817-.21-2.417-.631a2.462 2.462 0 0 1-1.049-1.73l2.083-.11c.063.309.216.544.458.706.242.159.552.239.93.239.371 0 .669-.071.894-.214.229-.146.345-.333.348-.562a.584.584 0 0 0-.243-.472c-.159-.126-.405-.222-.736-.288l-1.322-.264c-.746-.149-1.301-.408-1.666-.775-.361-.368-.542-.837-.542-1.407 0-.491.133-.913.398-1.268.268-.355.645-.628 1.128-.82.488-.193 1.058-.289 1.711-.289.964 0 1.723.204 2.277.612.557.407.881.963.974 1.665Zm5.918-4.723V493h-2.153v-8.138h-.06l-2.331 1.461v-1.909l2.52-1.596h2.024Zm5.253 10.306c-.58 0-1.105-.149-1.576-.447-.467-.302-.838-.744-1.113-1.328-.272-.586-.408-1.305-.408-2.157 0-.875.141-1.603.423-2.183.281-.583.656-1.019 1.123-1.307a2.877 2.877 0 0 1 1.546-.438c.428 0 .784.073 1.069.219.289.142.521.321.696.537.179.212.315.421.408.626h.065v-3.828h2.112V493h-2.088v-1.223h-.089c-.1.212-.24.423-.423.631a2.075 2.075 0 0 1-.701.512c-.285.136-.633.204-1.044.204Zm.671-1.685c.342 0 .63-.093.866-.278.238-.189.42-.453.546-.791.13-.338.194-.734.194-1.188 0-.454-.063-.849-.189-1.183-.126-.335-.308-.594-.547-.776a1.39 1.39 0 0 0-.87-.273c-.348 0-.641.094-.88.283a1.734 1.734 0 0 0-.541.785 3.37 3.37 0 0 0-.184 1.164c0 .444.061.837.184 1.178.126.338.306.603.541.796.239.188.532.283.88.283Zm8.896 1.71c-.786 0-1.462-.159-2.029-.477a3.277 3.277 0 0 1-1.302-1.362c-.305-.59-.457-1.288-.457-2.093 0-.786.152-1.475.457-2.069a3.384 3.384 0 0 1 1.288-1.387c.556-.331 1.209-.497 1.958-.497.504 0 .973.081 1.407.244.438.159.819.399 1.144.721.328.321.583.726.765 1.213.183.484.274 1.05.274 1.7v.582h-6.448v-1.313h4.454c0-.305-.066-.575-.199-.81a1.426 1.426 0 0 0-.551-.552 1.576 1.576 0 0 0-.811-.204c-.321 0-.606.075-.855.224a1.576 1.576 0 0 0-.577.592c-.139.245-.21.518-.213.82v1.248c0 .378.069.704.208.979.143.275.343.487.602.636.258.15.565.224.92.224.235 0 .45-.033.646-.099a1.297 1.297 0 0 0 .82-.786l1.959.129a2.669 2.669 0 0 1-.611 1.233c-.305.348-.7.62-1.184.816-.48.192-1.035.288-1.665.288ZM351 487.541l-1.939.12a1.008 1.008 0 0 0-.214-.448 1.127 1.127 0 0 0-.433-.323 1.464 1.464 0 0 0-.631-.124c-.328 0-.605.069-.83.208-.226.136-.338.319-.338.547a.59.59 0 0 0 .218.463c.146.126.397.227.751.303l1.382.278c.743.153 1.296.398 1.661.736.364.338.547.782.547 1.333 0 .5-.148.939-.443 1.317-.291.378-.693.673-1.203.885-.507.209-1.092.313-1.755.313-1.011 0-1.816-.21-2.416-.631a2.46 2.46 0 0 1-1.049-1.73l2.083-.11c.063.309.215.544.457.706.242.159.552.239.93.239.371 0 .67-.071.895-.214.229-.146.345-.333.348-.562a.585.585 0 0 0-.244-.472c-.159-.126-.404-.222-.735-.288l-1.323-.264c-.746-.149-1.301-.408-1.665-.775-.362-.368-.542-.837-.542-1.407 0-.491.132-.913.397-1.268.269-.355.645-.628 1.129-.82.487-.193 1.057-.289 1.71-.289.965 0 1.724.204 2.277.612.557.407.882.963.975 1.665Zm1.507 5.459v-7.636h2.118V493h-2.118Zm1.064-8.621c-.315 0-.585-.104-.81-.313a1.016 1.016 0 0 1-.333-.761c0-.291.111-.542.333-.75a1.14 1.14 0 0 1 .81-.318c.315 0 .584.106.806.318a.988.988 0 0 1 .338.75c0 .295-.113.549-.338.761a1.133 1.133 0 0 1-.806.313Zm6.191 11.644c-.686 0-1.274-.095-1.765-.284-.487-.185-.875-.439-1.163-.76a2.335 2.335 0 0 1-.562-1.084l1.959-.264c.059.153.154.295.283.428.129.133.3.239.512.318.216.083.478.124.786.124.46 0 .84-.112 1.138-.338.302-.222.453-.595.453-1.118v-1.397h-.09a2.025 2.025 0 0 1-.417.601 2.126 2.126 0 0 1-.716.463c-.292.119-.64.179-1.044.179a3.133 3.133 0 0 1-1.566-.398c-.468-.269-.841-.678-1.119-1.228-.275-.554-.413-1.253-.413-2.098 0-.865.141-1.588.423-2.168.282-.58.656-1.014 1.124-1.302.47-.289.986-.433 1.546-.433.427 0 .785.073 1.074.219.288.142.52.321.696.537.179.212.316.421.412.626h.08v-1.282h2.103v7.711c0 .649-.159 1.193-.478 1.63-.318.438-.759.766-1.322.985-.56.222-1.205.333-1.934.333Zm.045-4.723c.341 0 .63-.085.865-.254.239-.172.421-.417.547-.736.129-.321.194-.706.194-1.153 0-.447-.063-.835-.189-1.163a1.702 1.702 0 0 0-.547-.771 1.394 1.394 0 0 0-.87-.273c-.348 0-.642.094-.88.283a1.702 1.702 0 0 0-.542.776 3.288 3.288 0 0 0-.184 1.148c0 .441.061.822.184 1.143.126.319.307.566.542.741.238.173.532.259.88.259Zm7.492-2.715V493h-2.118v-7.636h2.019v1.347h.089c.169-.444.452-.796.85-1.054.398-.262.88-.393 1.447-.393.53 0 .993.116 1.387.348.394.232.701.564.92.995.219.427.328.938.328 1.531V493h-2.118v-4.484c.003-.468-.116-.832-.358-1.094-.242-.265-.575-.398-.999-.398-.285 0-.537.061-.756.184a1.291 1.291 0 0 0-.507.537 1.86 1.86 0 0 0-.184.84Z"/>
  <path fill="#E8E8E8" d="M500.246 298.063c-.055 8.566-.165 17.184-.22 25.75 0 2.115-.055 4.23-.055 6.292 0 1.428-.329 3.226.275 4.601.933 2.326 4.06 1.692 5.212 3.648.11-.37.22-.74.275-1.11-4.006 1.903-5.048 6.186-5.377 10.152-.275 3.807-.439 9.941 4.718 10.681-.055-.476-.109-.952-.219-1.428-7.792 3.437-4.664 16.868-1.372 22.261 2.414 3.966 5.981 7.191 9.657 10.047 2.085 1.639 4.17 3.172 6.31 4.758 1.262.952 2.524 1.851 3.731 2.803.659.476 3.457 1.956 3.567 2.855.219-.264.384-.529.603-.74h.11c.11.37.22.74.274 1.11.055-.053.055-.105.11-.158.439-.899-.933-1.692-1.426-.793-.055.052-.055.105-.11.158-.22.423-.11.793.274 1.111.384.317.659.317 1.152.158.33-.106.659-.423.604-.74-.22-1.639-1.92-2.379-3.237-3.331-1.921-1.481-3.896-2.908-5.816-4.389-3.622-2.697-7.298-5.393-10.426-8.566-3.511-3.543-5.926-7.667-6.639-12.584-.603-4.019-1.152-10.47 3.457-12.532.603-.264.494-1.375-.22-1.428-4.389-.634-3.786-6.662-3.456-9.888.329-3.172 1.262-6.503 4.499-8.037.384-.211.494-.74.274-1.11-1.152-1.904-3.95-1.534-4.993-3.226-.823-1.269-.274-4.23-.219-5.763 0-2.115.055-4.23.055-6.292.054-8.037.109-16.128.219-24.165.055-1.11-1.591-1.163-1.591-.105Z"/>
  <path fill="#E8E8E8" d="M501.124 298.486c7.681.37 13.059 6.027 17.668 11.315 2.194 2.538 4.499 4.918 6.749 7.297 2.304 2.379 5.322 7.191 1.152 9.518-.713.423-.384 1.48.439 1.48 6.365.159 9.163 7.614 11.138 12.32a110.976 110.976 0 0 1 5.597 17.555c2.798 12.267 3.347 24.905 1.756 37.331-.11 1.004 1.536 1.004 1.646 0 1.701-13.854.823-27.919-2.744-41.402-1.646-6.345-3.84-12.743-6.803-18.666-2.085-4.23-5.323-8.618-10.59-8.724.164.476.274 1.005.439 1.48 8.011-4.441-1.921-12.901-5.158-16.55-5.761-6.451-11.577-14.118-21.234-14.594-1.098 0-1.098 1.587-.055 1.64Z"/>
  <path fill="#E8E8E8" d="M528.668 317.521c3.841-13.113 9.218-25.751 16.132-37.648-.384.106-.768.212-1.152.265 1.481.846 3.017 1.692 4.499 2.538.768.423 1.481-.423 1.152-1.111-3.95-7.614 7.901-12.479 11.907-17.026-.329.053-.659.106-.988.106.768.423 1.591.846 2.36 1.269a.899.899 0 0 0 1.152-.264c4.389-7.192 12.126-11.21 19.588-14.912-.384-.317-.823-.581-1.207-.898-2.359 7.455 1.372 15.598 2.085 23.054.384 4.018.439 8.09.11 12.161-.165 2.009 0 5.023-.823 6.821 0 1.322-.768 2.062-2.359 2.327-.494.053-.933.105-1.427.158-1.097.106-2.25.212-3.347.318-.439.052-.878.317-.823.793.055 1.057.384 1.374 1.207 2.062 1.042.846 1.866.952 2.359 2.432.275.793.275 1.692.275 2.485-.055 4.283-.714 8.672-1.482 12.902-.768 4.124-1.865 8.196-3.182 12.162-1.152 3.331-2.689 8.301-6.969 8.83-.548.053-1.097.634-.713 1.216 3.182 4.706-1.536 10.417-3.841 14.488-2.524 4.336-4.828 8.778-6.968 13.272-4.28 8.936-7.792 18.189-10.645 27.654-.274 1.005 1.317 1.428 1.591.423a188.285 188.285 0 0 1 12.62-31.62c2.415-4.811 5.323-9.359 7.847-14.118 1.81-3.437 3.237-7.455.878-10.945-.22.423-.494.793-.714 1.216 3.238-.37 5.323-2.591 6.749-5.287 2.14-4.125 3.292-8.884 4.335-13.378 1.152-4.97 1.92-10.047 2.195-15.123.109-1.692.274-3.595-.494-5.182-.439-1.057-3.237-2.696-3.292-3.436l-.823.793c3.072-.318 7.462.423 8.504-2.961 1.372-4.23 1.317-9.465 1.262-13.801 0-4.653-.493-9.253-1.371-13.801-.988-5.129-2.744-10.258-1.098-15.44.22-.687-.603-1.216-1.207-.898-7.736 3.86-15.693 8.037-20.192 15.492.384-.105.768-.211 1.152-.264-.768-.423-1.591-.846-2.359-1.269-.274-.159-.768-.159-.988.106-4.609 5.234-16.735 10.205-12.181 18.929l1.153-1.11c-1.482-.846-3.018-1.692-4.5-2.538-.384-.212-.933-.106-1.152.264-6.914 12.056-12.401 24.799-16.296 38.018-.439 1.058 1.152 1.481 1.481.476Zm-38.793-54.039c-9.218.634-14.101-9.782-12.565-17.291 1.482-7.35 8.944-12.531 16.571-12.32 10.041.212 15.199 9.676 13.388 18.507-1.591 7.878-9.822 13.695-18.052 10.575-.988-.37-1.427 1.163-.439 1.533 6.584 2.485 14.266-.423 17.887-6.186 3.841-6.134 3.402-14.911-1.042-20.622-4.499-5.816-13.114-6.609-19.643-3.807-6.53 2.75-10.81 8.936-10.645 15.81.165 7.508 5.926 15.969 14.486 15.387 1.097-.053 1.152-1.639.054-1.586ZM574.1 147.313a109.136 109.136 0 0 1-11.029 16.18c-.658.793.494 1.903 1.153 1.11 4.279-5.182 8.065-10.681 11.303-16.497.494-.899-.933-1.692-1.427-.793Z"/>
  <path fill="#E8E8E8" d="M574.045 148.582a513.283 513.283 0 0 0 6.201 15.017c.384.951 1.975.528 1.591-.423a510.504 510.504 0 0 1-6.2-15.017c-.385-.952-1.976-.529-1.592.423Z"/>
  <path fill="#E8E8E8" d="M573.661 149.322a255.375 255.375 0 0 1-7.901 58.322c-.274 1.005 1.317 1.428 1.591.423 4.939-19.246 7.572-38.916 7.956-58.745.055-1.057-1.591-1.057-1.646 0Zm9.493 32.307c1.426 11.316 1.097 22.737-1.043 33.947-.164 1.005 1.372 1.428 1.591.423 2.14-11.368 2.524-22.895 1.098-34.37-.165-1.004-1.811-1.004-1.646 0Z"/>
  <path fill="#E8E8E8" d="M576.844 203.626c1.92 4.23 5.267 8.09 5.487 12.849.054.793 1.097 1.11 1.536.423 1.92-3.226 3.896-6.451 5.816-9.677.549-.898-.878-1.692-1.427-.793-1.92 3.226-3.895 6.451-5.816 9.677.494.158 1.043.264 1.537.423-.22-5.129-3.677-9.095-5.707-13.642-.439-1.005-1.865-.212-1.426.74ZM202.469 471.338c33.086-2.961 66.227-6.821 99.423-8.143 33.471-1.322 67.106-.476 100.576.37 19.205.476 38.409 1.375 57.504 3.12 1.042.105 1.042-1.481 0-1.587-33.581-3.067-67.271-3.437-100.96-3.807-16.9-.211-33.8-.37-50.645.159-16.406.476-32.757 1.798-49.108 3.225l-56.79 5.076c-1.043.053-1.043 1.64 0 1.587Zm172.18-23.372c13.773 2.486 27.38 2.38 41.262 1.164 14.266-1.269 28.478-2.062 42.798-2.697 28.752-1.216 57.504-2.327 86.201-3.49 16.406-.687 32.812-1.322 49.218-2.009 1.042-.053 1.042-1.639 0-1.586l-86.365 3.489c-28.313 1.164-56.79 1.745-85.048 4.072-7.682.634-15.363 1.48-23.045 1.586-8.231.106-16.461-.634-24.582-2.115-1.042-.106-1.481 1.428-.439 1.586ZM1.317 436.757c25.569.687 51.138.581 76.707-.318 1.043-.053 1.043-1.639 0-1.586a1236.196 1236.196 0 0 1-76.707.317c-1.098-.053-1.098 1.534 0 1.587Zm27.928 21.256c9.328-1.904 19.205-.688 28.642-.265 9.493.476 18.93.899 28.423 1.375 19.314.952 38.573 1.904 57.887 2.803 1.043.053 1.043-1.534 0-1.587-19.643-.951-39.341-1.903-58.985-2.855l-29.465-1.428c-8.943-.423-18.052-1.427-26.886.423-1.042.212-.603 1.745.384 1.534Zm147.929-40.292c33.909 2.221 67.27-6.239 101.124-6.133 1.043 0 1.043-1.587 0-1.587-33.854-.105-67.215 8.302-101.124 6.134-1.043-.106-1.043 1.533 0 1.586Zm-25.405-164.339c.274-.899.549-1.797.988-2.644.274-.37.494-.687.768-1.057 1.152-.106 2.359-.264 3.512-.37.329.211.603.846.823 1.163.823 1.111 1.701 2.062 2.963 2.803 2.414 1.374 5.322 1.692 7.901.74 6.749-2.38 9.273-10.998 17.503-10.152 2.195.211 4.28 1.057 5.871 2.538 1.207 1.11 2.14 2.485 3.402 3.542 2.25 1.798 5.048 2.063 7.737 1.111 3.292-1.111 5.816-3.49 8.285-5.764 3.347-3.014 8.231-6.662 12.675-3.437 2.908 2.062 4.609 5.235 8.23 6.345 3.402 1.058 7.024.423 9.877-1.639.823-.581 0-2.009-.823-1.375-3.951 2.856-8.889 2.38-12.346-.951-2.304-2.168-4.28-4.865-7.681-5.235-8.011-.952-12.182 8.46-18.985 10.628-5.158 1.639-6.859-2.802-10.261-5.235-2.524-1.797-5.706-2.538-8.834-2.062-3.292.476-5.816 2.38-8.121 4.548-2.688 2.59-5.542 6.133-9.712 6.133-2.798 0-4.938-1.48-6.474-3.595-.878-1.164-1.591-2.115-3.183-2.274-3.456-.317-4.938 3.172-5.761 5.763-.274 1.005 1.317 1.428 1.646.476Zm84.609-27.337c1.975-5.552 8.889-.846 11.523 1.216 2.304 1.798 4.993 3.649 8.12 3.543 5.158-.211 7.902-5.287 12.127-7.402 5.871-2.909 9.437 4.653 15.144 3.912 2.524-.317 3.84-2.273 5.432-3.965 1.701-1.798 3.456-1.798 5.871-1.269 2.249.528 4.554 1.057 6.803 1.586 1.043.264 1.482-1.269.439-1.534-2.249-.528-4.554-1.057-6.803-1.586-1.537-.37-3.073-.793-4.609-.37-3.018.899-3.896 4.759-6.914 5.446-3.237.741-6.42-2.749-9.218-3.86-2.359-.951-4.664-.951-6.914.212-2.414 1.216-4.225 3.278-6.365 4.917-1.426 1.111-3.017 2.115-4.883 2.221-2.853.159-5.213-1.745-7.298-3.331-2.524-1.904-5.212-4.177-8.669-3.913-2.469.159-4.499 1.428-5.322 3.701-.384 1.005 1.207 1.428 1.536.476ZM484.443 71.753a767.17 767.17 0 0 0-.933 29.769c0 1.005 1.647 1.005 1.647 0 .109-9.94.439-19.828.932-29.77.055-1.004-1.591-1.004-1.646 0Z"/>
  <path fill="#E8E8E8" d="M485.541 72.493c12.675-1.692 25.569-3.331 38.189-.476 1.042.212 1.481-1.269.439-1.533-12.894-2.961-26.118-1.27-39.067.476-1.043.106-.604 1.639.439 1.533Z"/>
  <path fill="#E8E8E8" d="M522.687 72.546c.275 20.093-.109 40.239-1.207 60.332-.055 1.004 1.592 1.004 1.646 0 1.098-20.093 1.482-40.186 1.208-60.332 0-1.005-1.647-1.005-1.647 0Zm-37.805 54.938c.275 2.538.384 5.182.878 7.667.275 1.216.713 2.063 1.811 2.803 3.457 2.168 9.053.899 12.839.687 5.378-.317 10.81-.634 16.187-.952 2.414-.158 6.255-.793 4.774-4.018-.439-.952-1.866-.106-1.427.793.274.582-2.798 1.533-3.347 1.639-.878.159-1.811.106-2.689.159a150.1 150.1 0 0 1-4.828.264c-3.238.212-6.475.37-9.712.582-2.963.158-6.255.74-9.218.106-3.731-.847-3.238-6.663-3.622-9.677-.109-1.057-1.755-1.057-1.646-.053Zm-9.986-1.956c-4.829 6.821-9.822 13.536-14.87 20.199a.7.7 0 0 0 0 .793c.878 1.322 2.36 1.85 3.951 1.374 2.359-.687 3.512-3.278 4.719-5.076 1.975-2.961 4.225-5.763 6.639-8.46 1.042-1.11 2.085-2.221 3.182-3.278 1.262-1.216 3.402-3.807 5.213-4.072 1.043-.158.604-1.692-.439-1.533-1.646.264-2.743 1.533-3.951 2.591a73.034 73.034 0 0 0-4.609 4.494c-2.853 3.067-5.487 6.346-7.791 9.782-.659.952-1.207 2.116-2.03 2.962-.878 1.216-1.811 1.321-2.908.317.329-.423.658-.846.932-1.269a412.167 412.167 0 0 0 4.39-5.869 636.657 636.657 0 0 0 8.889-12.268c.713-.74-.713-1.533-1.317-.687Z"/>
  <path fill="#E8E8E8" d="M483.456 127.484c6.803.159 13.333-3.807 16.022-9.835 2.414-5.446 1.097-12.531-4.006-16.127-5.871-4.071-13.388-1.005-17.942 3.437-2.689 2.644-4.939 5.975-5.487 9.676-.22 1.481-.165 2.961.219 4.389.22.846.549 1.639.988 2.38.11.211 2.634 3.648 1.536 3.595-1.042-.106-1.042 1.481 0 1.586 1.701.159 2.579-1.322 2.085-2.802-.384-1.216-1.591-2.062-2.249-3.173-.988-1.745-1.207-3.754-.933-5.71.933-6.768 8.395-13.854 15.638-13.748 7.133.053 10.864 7.72 9.382 13.748-1.646 6.556-8.34 11.157-15.253 10.945-1.098.053-1.098 1.639 0 1.639Zm7.791-49.386-.055-.053v1.11c.714-.793 5.652-.74 6.969-.898 2.085-.212 4.225-.37 6.31-.476 2.085-.106 4.225-.212 6.365-.265.932 0 5.816.423 6.145-.423-.384.952 1.207 1.375 1.591.423.055-.105.055-.158.11-.264.11-.264 0-.582-.22-.793-1.207-1.163-3.401-.635-4.993-.635-3.018 0-5.98.106-8.998.318-2.799.158-5.597.423-8.45.687-1.427.159-4.993-.053-6.036 1.11-.274.318-.329.794 0 1.11l.055.054c.823.846 1.975-.318 1.207-1.005Zm-.768 7.72c5.542.74 10.919.529 16.461.317 1.042-.053 1.042-1.639 0-1.586-5.432.211-10.645.423-16.022-.265-1.043-.105-1.482 1.428-.439 1.534Zm-3.731 5.975c-.165.158-.329.37-.494.529-.494.528-.165 1.322.604 1.374 9.547.16 19.094-.264 28.587-1.269 1.042-.105 1.042-1.692 0-1.586a234.594 234.594 0 0 1-28.587 1.27c.219.475.384.898.603 1.374.165-.159.329-.37.494-.529.658-.793-.494-1.903-1.207-1.163Zm11.797 8.672a64.1 64.1 0 0 0 14.924-.635c1.043-.159.604-1.692-.439-1.533-4.828.74-9.657.951-14.485.581-1.098-.053-1.098 1.534 0 1.587Z"/>
  <path fill="#E8E8E8" d="M485.157 121.879c-4.445.212-8.231-3.542-6.804-7.878 1.097-3.437 5.212-7.086 8.944-7.667 1.81-.265 3.786.158 5.157 1.375 2.03 1.797 1.482 4.441.549 6.609-1.591 3.807-4.499 7.244-8.944 7.72-1.042.106-1.042 1.692 0 1.586 5.707-.581 9.767-5.287 11.139-10.469 1.317-4.865-2.415-8.883-7.627-8.46-4.829.423-10.151 5.129-11.029 9.729-.933 5.129 3.402 9.306 8.615 9.042 1.042-.053 1.042-1.639 0-1.587Z"/>
  <path fill="#E8E8E8" d="M486.089 107.021c-2.194 4.548-4.225 9.148-6.035 13.801-.384.952 1.207 1.375 1.591.423 1.811-4.547 3.731-9.042 5.871-13.431.439-.951-.933-1.745-1.427-.793Zm2.524 4.548c-1.426 2.855-2.798 5.71-4.225 8.566-.439.898.988 1.744 1.427.793 1.427-2.856 2.798-5.711 4.225-8.566.439-.899-.933-1.745-1.427-.793Zm-407.9-86.347V39.71c0 1.005 1.646 1.005 1.646 0V25.222c0-1.005-1.646-1.005-1.646 0Z"/>
  <path fill="#E8E8E8" d="M81.756 40.397h13.936c1.043 0 1.043-1.586 0-1.586H81.756c-1.043 0-1.043 1.586 0 1.586Z"/>
  <path fill="#E8E8E8" d="M96.68 38.705V22.948c0-1.004-1.646-1.004-1.646 0v15.757c0 1.005 1.646 1.005 1.646 0Z"/>
  <path fill="#E8E8E8" d="M96.076 21.944H81.811c-1.043 0-1.043 1.586 0 1.586h14.265c1.043 0 1.043-1.586 0-1.586Zm-8.395 19.299v16.128c0 1.004 1.647 1.004 1.647 0V41.243c0-1.004-1.647-1.004-1.647 0Z"/>
  <path fill="#E8E8E8" d="M68.367 57.16a304.26 304.26 0 0 1 19.04-16.128c.823-.635-.33-1.745-1.152-1.11a302.075 302.075 0 0 0-19.04 16.127c-.768.687.384 1.797 1.152 1.11Zm21.07-15.6 19.753 14.436c.823.634 1.646-.74.823-1.375L90.26 40.186c-.823-.635-1.646.74-.823 1.375Z"/>
  <path fill="#E8E8E8" d="M62.003 59.063h10.919c1.042 0 1.042-1.587 0-1.587h-10.92c-1.042 0-1.042 1.587 0 1.587Z"/>
  <path fill="#E8E8E8" d="M71.934 59.38v11.95c0 1.005 1.646 1.005 1.646 0V59.38c0-1.058-1.646-1.058-1.646 0Zm-11.139-.74v13.959c0 1.004 1.646 1.004 1.646 0v-13.96c0-1.057-1.646-1.057-1.646 0Z"/>
  <path fill="#E8E8E8" d="M61.454 73.55h10.15c1.043 0 1.043-1.586 0-1.586h-10.15c-1.043 0-1.043 1.587 0 1.587Zm21.179-14.54v13.747c0 1.005 1.647 1.005 1.647 0V59.01c0-1.058-1.647-1.058-1.647 0Z"/>
  <path fill="#E8E8E8" d="M83.457 73.18h9.986c1.042 0 1.042-1.586 0-1.586h-9.986c-1.043 0-1.043 1.587 0 1.587Zm.548-13.377h8.834c1.043 0 1.043-1.586 0-1.586h-8.834c-1.042 0-1.042 1.586 0 1.586Z"/>
  <path fill="#E8E8E8" d="M92.236 58.798v13.06c0 1.005 1.646 1.005 1.646 0v-13.06c0-1.004-1.646-1.004-1.646 0Zm13.662 0c-.164 3.437-.274 6.874-.274 10.311 0 1.005 1.646 1.005 1.646 0 0-3.437.11-6.874.274-10.31.055-1.005-1.591-1.005-1.646 0Z"/>
  <path fill="#E8E8E8" d="M106.612 59.168c3.621-.37 7.242-.793 10.864-1.163 1.042-.106 1.042-1.692 0-1.586-3.622.37-7.243.793-10.864 1.163-1.043.106-1.098 1.692 0 1.586Z"/>
  <path fill="#E8E8E8" d="M116.927 57.53c-.384 3.542-.274 7.032.384 10.522.165 1.004 1.756.581 1.591-.424a34.686 34.686 0 0 1-.329-10.099c.11-1.004-1.536-1.004-1.646 0Z"/>
  <path fill="#E8E8E8" d="m107.16 70.484 10.864-1.586c1.043-.16.604-1.692-.439-1.534l-10.864 1.586c-1.042.16-.603 1.64.439 1.534Zm-19.698 3.172c-2.03 2.962-3.786 6.081-5.377 9.254-.44.899.988 1.745 1.426.793 1.592-3.226 3.402-6.292 5.378-9.253.548-.846-.878-1.64-1.427-.794Z"/>
  <path fill="#E8E8E8" d="M87.956 74.29a53.373 53.373 0 0 1 5.267 8.302c.494.9 1.92.106 1.427-.793-1.536-2.908-3.292-5.71-5.268-8.301-.603-.846-2.03-.053-1.426.793Zm-8.834 10.682c1.152 0 2.304 0 3.511.053.55 0 1.043.053 1.592.105.987.053.878-.264 1.042.582.384 2.01-.055 4.6-.22 6.663-.109 1.004 1.537 1.004 1.647 0 .11-1.587.22-3.226.22-4.812 0-.9.274-2.38-.22-3.226-.494-.793-1.646-.687-2.47-.74a82.253 82.253 0 0 0-5.102-.158c-1.043-.053-1.043 1.533 0 1.533Z"/>
  <path fill="#E8E8E8" d="M78.024 84.919c.165 1.85.33 3.648.494 5.5.11 1.48-.11 3.648.494 5.075.22.582.494.793 1.097.9 1.427.263 3.567-.424 4.994-.635 1.042-.159.603-1.64-.44-1.534-.987.106-2.523.688-3.456.476-1.043-.264-.823-1.64-.878-2.697-.22-2.379-.439-4.706-.658-7.085-.11-1.005-1.756-1.057-1.647 0Zm12.401-.212c-.11 1.534-.165 3.12-.11 4.654 0 .37.494 3.86.33 3.965.274-.053.548-.158.823-.211-.055 0-.11-.053-.22-.053.22.264.384.529.604.74v-.211c-.22.264-.384.529-.604.74.055 0 .11 0 .165-.053 1.042-.211.603-1.745-.44-1.533-.054 0-.109 0-.164.053-.384.052-.603.423-.603.74v.211c0 .318.274.688.603.74 1.427.265 1.427-1.004 1.372-2.009-.22-2.644-.33-5.234-.11-7.931.055-.899-1.591-.846-1.646.158Z"/>
  <path fill="#E8E8E8" d="M91.413 85.078c0-.37 3.511-.476 4.005-.423 1.372.211 1.098.317 1.317 1.269.165.634-.055 1.533-.11 2.168a46.499 46.499 0 0 0 0 3.912c0 .74.549 2.962.165 3.49a9.022 9.022 0 0 1 1.152-.264c-.055 0-.11-.053-.164-.053.11.317.274.582.384.899 0-.053.054-.106.054-.159.275-1.004-1.316-1.427-1.59-.423 0 .053-.056.106-.056.159-.11.317.055.74.385.899.054 0 .11.053.164.053.44.158.878.105 1.152-.265.385-.529.22-1.057.165-1.692-.055-1.427-.165-2.908-.165-4.336 0-1.427.055-2.908.11-4.335.055-.635.22-1.481-.22-2.063-.932-1.216-3.895-.846-5.102-.687-1.372.159-3.183.317-3.292 1.903 0 .952 1.646.952 1.646-.052Z"/>
  <path fill="#E8E8E8" d="M91.577 95.811a16.814 16.814 0 0 1 4.884.423c1.042.265 1.481-1.268.439-1.533-1.756-.476-3.512-.634-5.323-.529-1.097.106-1.097 1.692 0 1.64Zm20.631-25.01c-1.317 2.802-2.469 5.71-3.511 8.619-.33.952 1.262 1.375 1.591.423a89.728 89.728 0 0 1 3.347-8.249c.439-.951-.988-1.745-1.427-.793Zm-8.395 12.532c2.744-.74 5.542-1.11 8.45-1.005 1.043.053 1.043-1.533 0-1.586-3.018-.106-5.981.264-8.889 1.057-1.042.265-.603 1.798.439 1.534Z"/>
  <path fill="#E8E8E8" d="M103.758 82.593c-.493 1.48-.109 2.855.055 4.335.165 1.798.165 3.543.11 5.34-.11 2.327.494 2.592 2.908 2.38 1.646-.158 3.896.265 4.499-1.48.549-1.692.384-3.966.549-5.764.165-1.903.384-3.86.549-5.763.109-1.005-1.537-1.005-1.646 0-.22 2.22-.439 4.494-.659 6.715-.11.899-.055 2.01-.274 2.908-.329 1.48-.494 1.586-2.085 1.745-.494.053-.933.106-1.427.159-.933.317-1.207.053-.823-.846-.219-.74.11-1.904.055-2.697-.055-2.01-.878-4.706-.274-6.61.384-1.004-1.207-1.427-1.537-.422Zm10.755-10.311c1.262 1.85 2.359 3.807 3.402 5.816.439.899 1.865.106 1.426-.793-.987-2.01-2.14-3.913-3.402-5.817-.603-.898-2.03-.105-1.426.794Zm1.865 8.142h8.231c1.042 0 1.042-1.586 0-1.586h-.494c-1.043 0-1.043 1.587 0 1.587h.494c1.042 0 1.042-1.587 0-1.587h-8.231c-1.097 0-1.097 1.587 0 1.587Z"/>
  <path fill="#E8E8E8" d="M115.555 80.372c.22 2.009.384 4.018.439 6.028.055 1.427-.439 3.86.22 5.181.384.793.878.9 1.756.9 2.03-.054 4.225-.53 6.255-.794.329-.053.603-.476.603-.74l-.164-10.734c0-1.005-1.646-1.005-1.646 0l.164 10.734c.22-.264.384-.529.604-.74a100.83 100.83 0 0 0-3.951.528c-.439.053-1.701.423-2.085.106-.274-.211 0-1.85 0-2.168a100.91 100.91 0 0 0-.494-8.196c-.164-1.11-1.81-1.11-1.701-.105ZM54.65 84.707c2.853-2.537 5.761-4.917 8.889-7.085.823-.582 0-1.956-.823-1.375a93.765 93.765 0 0 0-9.218 7.35c-.768.688.384 1.798 1.152 1.11Z"/>
  <path fill="#E8E8E8" d="M63.045 76.935a39.057 39.057 0 0 1 4.115 7.138c.44.952 1.866.106 1.427-.793a42.1 42.1 0 0 0-4.115-7.138c-.604-.846-2.03-.053-1.427.793ZM47.352 87.616c1.482-.106 2.909-.212 4.39-.317.658-.053 1.372-.212 1.975-.16.769-.264.988-.21.659.212-.22.318-.33.635-.275 1.005-.603 2.59-.713 5.34-.823 7.984.494-.211.933-.37 1.427-.581a.732.732 0 0 1-.165-.212c-.713-.74-1.865.37-1.152 1.11.055.053.11.106.165.212.494.529 1.371.106 1.426-.582.055-2.273.275-4.547.604-6.768.165-.952.878-2.538.274-3.49-.494-.74-1.317-.581-2.085-.528-2.14.158-4.225.317-6.365.475-1.097.16-1.097 1.746-.055 1.64Z"/>
  <path fill="#E8E8E8" d="M48.45 86.082h-.22c-.274 0-.548.159-.713.37-.878 1.428-.823 3.913-1.097 5.552l-1.153 6.98c-.055.423.11.899.55.952 2.578.529 4.992.423 7.461-.476.988-.37.549-1.904-.439-1.533-2.194.793-4.28.951-6.584.475.165.318.384.635.549.952.164-1.057 2.085-11.685 1.536-11.738 1.152.158 1.152-1.428.11-1.534Zm14.924-.264-.055.053h1.153c-.055 0-.055-.053-.11-.053v1.11c.055-.053 1.043-.053 1.262-.053a22.088 22.088 0 0 1 1.866-.105c1.152-.053 2.304 0 3.456.105-.22-.475-.384-.898-.603-1.374-.11.052-.22.158-.275.211-1.042.106-1.042 1.692 0 1.586.604-.052 1.043-.211 1.482-.687.494-.529.165-1.322-.604-1.375-1.59-.106-3.182-.158-4.773-.053-.769.053-2.36-.105-2.908.582-.275.317-.385.846 0 1.11.054 0 .054.053.11.053.329.265.877.37 1.152 0l.055-.053c.658-.687-.494-1.797-1.208-1.057Z"/>
  <path fill="#E8E8E8" d="M62.716 86.188c-.165 2.168-.33 4.336-.44 6.504-.054 1.216-.767 4.336 0 5.446.385.529.77.74 1.482.687.714 0 1.482-.475 2.14-.634 1.317-.37 2.689-.476 4.06-.476 1.043 0 1.043-1.586 0-1.586-1.207 0-2.414.105-3.62.37-.55.106-1.592.687-2.086.582-.384.264-.548.211-.439-.212a5.32 5.32 0 0 1 0-1.322c.055-3.067.33-6.186.549-9.253.11-1.163-1.536-1.163-1.646-.106Z"/>
  <path fill="#E8E8E8" d="M69.794 86.347c-.439 3.542-.659 7.085-.604 10.68 0 1.005 1.647 1.005 1.647 0-.055-3.595.164-7.138.603-10.68.165-1.005-1.481-1.005-1.646 0Zm438.298 221.815a329.643 329.643 0 0 1 26.996 86.188c.165 1.005 1.756.582 1.591-.423a332.562 332.562 0 0 0-27.16-86.558c-.439-.899-1.866-.106-1.427.793Zm68.313-46.425c-16.022 23.582-29.959 48.434-39.836 75.031-.384.952 1.208 1.375 1.592.423 9.821-26.491 23.703-51.184 39.67-74.661.549-.846-.878-1.639-1.426-.793Z"/>
  <path fill="#E8E8E8" d="M502.495 337.138c8.889 2.327 16.516 7.614 21.619 15.017.604.846 2.03.053 1.427-.793-5.323-7.72-13.279-13.325-22.607-15.757-1.042-.265-1.481 1.269-.439 1.533Zm21.4-21.944c-3.018 4.812-5.048 10.047-5.872 15.652-.164 1.004 1.427 1.427 1.592.423.823-5.446 2.743-10.575 5.706-15.281.549-.846-.878-1.64-1.426-.794Zm17.064-29.716c2.689 2.855 4.554 6.134 5.981 9.676.658 1.587 1.207 3.226 1.701 4.812.494 1.534 1.646 3.807.987 5.341-.384.951 1.208 1.374 1.592.423.658-1.534 0-3.067-.494-4.548-.659-2.168-1.372-4.336-2.25-6.451-1.536-3.807-3.566-7.349-6.42-10.416-.658-.74-1.81.37-1.097 1.163Zm18.601 6.081c6.858-7.614 15.747-13.008 25.843-15.651 1.043-.265.604-1.798-.439-1.534-10.315 2.697-19.533 8.249-26.557 16.022-.658.793.494 1.956 1.153 1.163Zm-19.369 42.459c4.938-4.23 10.754-7.191 16.9-9.412 2.798-1.004 5.596-1.797 8.45-2.59 1.591-.424 3.127-.794 4.718-1.217.769-.158 4.006-1.427 4.609-1.11-.109-.37-.219-.74-.274-1.11-.055.052-.055.105-.11.158a8.998 8.998 0 0 1 1.153-.264c-.055 0-.11-.053-.165-.053-.933-.476-1.756.899-.823 1.375.055 0 .11.053.165.053a.9.9 0 0 0 1.152-.265c.055-.053.055-.106.11-.158.219-.371.109-.846-.275-1.111-.768-.423-1.591-.053-2.414.106-1.866.423-3.731.846-5.597 1.322-3.566.899-7.133 1.903-10.645 3.067-6.584 2.273-12.839 5.393-18.052 9.94-.823.794.33 1.957 1.098 1.269Zm-27.984 65.249c12.456 2.909 25.131.741 37.586-.687 13.498-1.533 27.051-1.798 40.603-2.009 1.043 0 1.043-1.587 0-1.587-13.223.212-26.447.476-39.561 1.904-12.674 1.428-25.569 3.807-38.189.846-.987-.264-1.426 1.269-.439 1.533Zm39.287-4.494c22.167-1.11 44.335-2.274 66.502-3.384 1.042-.053 1.042-1.639 0-1.586-22.167 1.11-44.335 2.273-66.502 3.384-1.043.053-1.043 1.639 0 1.586ZM488.01 242.12c-5.432 1.004-12.071-4.019-11.907-9.571.22-6.292 8.395-8.407 13.608-8.46 5.761 0 9.821 4.283 8.45 9.888-.604 2.432-2.195 4.441-4.17 5.975-1.153.899-5.817 4.177-7.133 2.591-.659-.793-1.811.317-1.153 1.11 1.756 2.115 5.378-.053 7.243-1.057 2.853-1.64 5.432-4.125 6.53-7.192 2.194-6.186-1.701-12.373-8.45-12.848-6.42-.476-16.351 2.379-16.516 9.993-.11 6.663 7.462 12.267 13.992 11.104.987-.159.548-1.692-.494-1.533Z"/>
  <path fill="#161616" d="M66.831 267.024a39.116 39.116 0 0 0-5.267 7.297c-.494.899.932 1.692 1.426.793 1.427-2.485 3.073-4.811 5.048-6.979.659-.741-.494-1.904-1.207-1.111Z"/>
  <path fill="#161616" d="M66.776 267.659c1.646 2.221 3.292 4.389 4.939 6.609.603.846 2.03.053 1.426-.793-1.646-2.221-3.292-4.388-4.938-6.609-.659-.846-2.085-.053-1.427.793Zm-.11 3.12c.494 18.665.933 37.33 1.427 56.048 0 1.005 1.646 1.005 1.646 0-.494-18.665-.933-37.33-1.426-56.048-.055-1.005-1.701-1.058-1.647 0Z"/>
  <path fill="#161616" d="M69.904 328.308h73.086c1.042 0 1.042-1.587 0-1.587H69.904c-1.043 0-1.043 1.587 0 1.587Z"/>
  <path fill="#161616" d="M139.808 326.721c1.701.635 3.347 1.269 5.048 1.904-.22-.582-.494-1.163-.714-1.745-.823 1.428-1.975 2.538-3.402 3.384-1.371.793-.109 2.855 1.262 2.062a11.656 11.656 0 0 0 4.335-4.23c.439-.74 0-1.48-.713-1.745-1.701-.634-3.347-1.269-5.048-1.903-1.591-.582-2.25 1.692-.768 2.273Z"/>
  <path fill="#5222D0" d="M561.206 41.138c-2.195-2.803.933-7.086 4.335-4.97 1.536.951 2.249 2.907 1.152 4.44-.988 1.376-3.018 1.957-4.554 1.217-.933-.476-1.756.899-.823 1.375 2.249 1.057 4.993.423 6.584-1.48 1.701-2.063 1.097-4.971-.988-6.557-2.03-1.534-4.883-1.534-6.639.37-1.591 1.745-1.866 4.547-.384 6.45.494.74 1.92-.052 1.317-.845Zm45.651 201.087c-.109-2.485 1.811-4.177 4.335-4.177 1.042 0 1.866.265 2.853-.158 1.866-.794 2.579-2.856 3.183-4.601.878-2.538 1.536-3.754 4.828-2.961.878.212 1.427.635 2.36.318 2.743-1.005 1.097-5.552 5.267-4.812 1.043.211 1.481-1.322.439-1.534-1.317-.264-2.579-.158-3.731.635-1.043.74-1.152 1.639-1.756 2.591-.055 1.005-.768 1.428-2.085 1.269a6.638 6.638 0 0 0-.878-.423c-.604-.053-.933-.37-1.591-.317-1.207.053-2.14.793-2.853 1.639-1.043 1.216-1.317 2.697-1.921 4.177-.603 1.481-1.207 2.538-3.073 2.697-.823.053-1.591-.212-2.414-.106-2.908.423-4.773 3.014-4.664 5.763.11 1.058 1.756 1.058 1.701 0ZM86.31 325.294c7.736-14.964 8.944-31.832 13.498-47.747 1.152-4.072 2.304-8.831 5.487-11.897 4.664-4.495 10.59-1.322 12.51 3.965 1.427 4.019 1.481 8.672 1.756 12.902.274 4.547.494 9.095.768 13.642.604 9.729 1.646 19.511 5.048 28.765.329.951 1.92.528 1.591-.423-3.566-9.729-4.554-20.04-5.103-30.298-.274-5.024-.494-10.1-.878-15.123-.329-4.018-.493-8.407-2.469-12.056-1.536-2.855-4.499-5.181-7.956-5.181-3.566 0-6.529 2.379-8.34 5.129-2.36 3.648-3.457 8.248-4.554 12.373-1.207 4.6-2.195 9.253-3.183 13.906-2.194 10.681-4.444 21.415-9.547 31.25-.549.899.878 1.692 1.372.793Zm7.517-65.567c-1.097-1.533 1.152-3.595 2.47-1.903 1.261 1.586-1.098 3.172-2.415 1.956-.768-.687-1.92.423-1.153 1.111 1.153 1.057 3.018 1.163 4.335.264 1.482-1.005 1.646-2.908.549-4.283-1.097-1.375-3.128-1.745-4.5-.582-1.207 1.058-1.59 2.909-.658 4.231.549.846 1.975.052 1.372-.794Zm12.126-7.032c-.878-1.216 1.043-2.327 1.866-1.058.878 1.375-1.592 2.909-2.415 1.375-.493-.899-1.865-.106-1.426.793.713 1.428 2.633 1.798 4.005 1.005 1.427-.793 2.085-2.591 1.207-4.019-.768-1.216-2.579-1.85-3.895-1.057-1.262.793-1.701 2.485-.878 3.701.713.899 2.14.106 1.536-.74Zm-4.774-11.633c-.439-1.216.933-2.485 2.031-1.48 1.097 1.004-.165 2.432-1.427 2.009-.988-.317-1.427 1.216-.439 1.533 2.853.899 5.267-2.591 3.018-4.653-.988-.952-2.524-1.11-3.676-.317-1.043.74-1.592 2.115-1.098 3.331.384.952 1.975.582 1.591-.423Zm20.961 14.118c-.165-.106.054.053.109.159v.158-.053.053c.11-.053 0 0 0 0h.22c.164 0 .329.053.494.106-.22-.264-.384-.529-.604-.74v1.269c.22-.265.384-.529.604-.74-.439.158-.878.211-1.317.105-.988-.317-1.427 1.216-.439 1.534.713.211 1.536.211 2.195-.106.329-.159.603-.37.603-.74v-1.269c0-.37-.274-.688-.603-.741-.878-.211-1.921-.317-2.47.529-.439.635-.384 1.639.439 1.957a.9.9 0 0 0 1.153-.265c.164-.476.055-1.004-.384-1.216Zm91.632-210.5c.274.106-.329 2.75-.055 3.384.384.794 1.262 1.27 2.14 1.375 1.207.212 2.249-.317 3.237-.899.988-.581 3.347-2.59 4.06-.37.165.476-.384 1.64-.219 2.274.494 2.115 2.579 2.01 4.06.899.549-.423.878-.952 1.317-1.428.549-1.269 1.372-1.533 2.414-.793 0 .317.055.634.165.899.549.793.823 1.322 1.921 1.269 1.042-.053 1.042-1.64 0-1.586.054 0-1.153-2.38-1.811-2.644-.768-.318-1.646-.053-2.36.37-.493.264-.877.687-1.262 1.057-.823.794-.768 1.957-2.085 1.164-1.262-.74-.219-1.904-1.097-2.961-1.427-1.745-3.841-.793-5.377.158-.878.529-3.073 2.433-3.622-.37-.054-.37.275-.952.275-1.322 0-.846-.165-1.322-.933-1.692-.878-.634-1.701.74-.768 1.216Z"/>
  <path fill="#EC615B" d="M156.378 168.358c.659 7.402 1.317 14.805 2.03 22.208.11 1.004 1.537 1.004 1.647 0 0-.159.054-.371.054-.529.11-1.005-1.536-1.005-1.646 0 0 .158-.055.37-.055.529h1.647c-.659-7.403-1.317-14.806-2.031-22.208-.109-1.005-1.756-1.058-1.646 0Z"/>
  <path fill="#EC615B" d="M157.64 168.939c2.305-.476 6.31-1.163 8.066.688 1.591 1.639 1.207 4.864 1.427 7.085.384 4.442.768 8.883 1.152 13.272.11 1.004 1.756 1.004 1.646 0-.549-6.345-.604-13.008-1.701-19.3-.823-4.917-7.188-4.019-11.029-3.278-1.042.211-.603 1.745.439 1.533Zm14.047-29.822a375.653 375.653 0 0 1 1.811 50.92c-.055 1.004 1.591 1.004 1.646 0 .548-16.973-.055-34-1.811-50.92-.11-1.005-1.756-1.057-1.646 0Z"/>
  <path fill="#EC615B" d="M173.662 139.117c2.25.317 4.993.317 7.078 1.058 2.799.951 2.36 5.816 2.634 8.301.494 4.812.823 9.624 1.152 14.435.604 9.994.823 19.987 1.043 29.981 0 1.005 1.646 1.005 1.646 0-.274-11.527-.549-23.107-1.372-34.634-.384-5.393-.658-10.839-1.536-16.18-.768-4.547-6.42-3.966-10.206-4.547-1.042-.053-1.481 1.427-.439 1.586Zm13.937-9.941c1.866 20.093 3.786 40.133 5.652 60.226.109 1.005 1.755 1.005 1.646 0-1.866-20.093-3.786-40.133-5.652-60.226-.055-1.004-1.701-1.004-1.646 0Z"/>
  <path fill="#EC615B" d="M188.642 129.969c2.633-.475 5.322-.634 8.01-.37 2.25.212 3.841.635 3.951 2.961.055.794.055 1.64.055 2.433.165 3.965.329 7.931.549 11.897.713 15.175 1.536 30.298 2.359 45.473.055 1.005 1.701 1.005 1.646 0-.878-16.391-1.756-32.73-2.524-49.122-.164-3.437-.329-6.821-.439-10.258-.055-1.533-.055-3.066-1.536-4.071-1.372-.899-3.512-.952-5.103-1.005-2.469-.158-4.938.053-7.407.529-1.043.212-.604 1.745.439 1.533Z"/>
  <path fill="#161616" d="M144.581 124.1c-1.81 3.437-3.566 6.874-5.377 10.311-.494.899.933 1.692 1.427.793 1.81-3.437 3.566-6.874 5.377-10.311.439-.899-.988-1.745-1.427-.793Z"/>
  <path fill="#161616" d="M144.801 125.686a14.267 14.267 0 0 0 4.993 7.773c.823.635 1.975-.476 1.152-1.11-2.304-1.851-3.841-4.23-4.554-7.033-.274-1.057-1.866-.634-1.591.37Z"/>
  <path fill="#161616" d="M143.649 126.427a232.361 232.361 0 0 0 9.327 68.58c.275 1.005 1.866.582 1.592-.423a231.052 231.052 0 0 1-9.273-68.157c0-1.005-1.646-1.005-1.646 0Z"/>
  <path fill="#161616" d="M154.952 196.382a448.753 448.753 0 0 1 38.628-1.851c12.016-.053 25.02-.529 36.104 4.706.933.423 1.756-.899.823-1.375-10.754-5.076-23.045-4.97-34.787-4.917a455.91 455.91 0 0 0-40.768 1.851c-1.043.105-1.043 1.692 0 1.586Z"/>
  <path fill="#161616" d="M222.935 193.791c2.963 1.745 5.816 3.648 8.45 5.763l.165-1.269c-2.25 1.64-4.445 3.279-6.695 4.918-.823.634 0 2.009.823 1.375 2.25-1.64 4.445-3.279 6.695-4.918.384-.264.603-.899.164-1.269-2.798-2.221-5.706-4.23-8.779-5.975-.933-.476-1.756.846-.823 1.375Zm-74.184-40.556 2.469 2.855c.33.37 1.043.265 1.317-.158 4.39-8.302 8.725-16.656 13.169-24.958 1.152-2.115 2.744-.37 4.39.212 1.042.37 2.14.264 3.182-.106 2.634-.952 4.39-3.596 5.597-5.922 1.975-3.966 3.731-8.09 5.651-12.109.494-1.11 1.043-2.221 1.537-3.278.274-.635.603-1.957 1.152-2.432 1.701-1.481 5.871 1.903 7.298 2.749 2.359 1.375 5.761 4.442 8.834 3.649 2.304-.582 3.401-3.014 4.06-5.024 3.182-9.041 7.243-17.237 13.498-24.693.494-.581.055-1.586-.823-1.322-2.853.9-5.432 2.274-7.792 4.019-.768.582.22 1.639.988 1.269 2.14-1.005 4.335-2.062 6.475-3.067-.385-.159-.823-.317-1.208-.476a582.693 582.693 0 0 1 1.921 9.518c.219 1.005 1.811.582 1.591-.423-.658-3.173-1.317-6.345-1.92-9.518-.11-.529-.769-.687-1.207-.476-2.14 1.005-4.335 2.062-6.475 3.067l.988 1.27c2.139-1.64 4.444-2.803 7.078-3.65-.275-.422-.549-.898-.823-1.321-4.774 5.71-8.725 12.003-11.578 18.824-.768 1.797-1.426 3.648-2.03 5.499-.494 1.48-1.262 4.653-3.292 4.97-2.305.37-5.268-2.168-7.133-3.278-1.866-1.111-3.676-2.327-5.597-3.331-2.195-1.111-3.566-.688-4.664 1.374-2.085 3.966-3.786 8.196-5.706 12.268-1.427 3.066-3.238 9.253-7.133 10.258-2.634.687-5.048-3.12-7.408-.899-1.371 1.269-2.085 3.648-2.908 5.234-1.262 2.38-2.469 4.706-3.731 7.086-2.469 4.706-4.993 9.412-7.462 14.118l1.317-.159-2.469-2.855c-.714-.688-1.866.423-1.153 1.216Z"/>
  <path fill="#EC615B" d="M387.599 21.838c-5.378-2.855-7.682-10.1-4.28-15.228 3.457-5.235 11.852-6.187 16.735-2.327 4.993 4.019 5.048 12.267.274 16.444-4.938 4.39-13.223 3.226-17.284-1.639-.658-.793-1.81.317-1.152 1.11 3.786 4.442 10.535 6.029 16.077 3.808 5.377-2.168 8.175-7.773 7.462-13.22-.713-5.604-5.048-9.781-10.864-10.416-5.542-.634-11.468 2.01-13.553 7.191-2.304 5.71.275 12.638 5.816 15.546.878.582 1.701-.793.769-1.27Zm23.813 9.729c-2.305-4.124 3.621-8.672 6.584-4.23 2.634 3.913-3.841 6.874-5.926 3.225-.493-.899-1.92-.105-1.426.793 1.317 2.327 4.389 2.962 6.804 1.957 2.853-1.163 3.566-4.336 1.975-6.768-1.646-2.538-5.048-3.543-7.682-1.745-2.469 1.692-3.237 5.023-1.811 7.614.604.846 2.031.053 1.482-.846Z"/>
  <path fill="#161616" d="M382.551 431.522h129.492c1.042 0 1.042-1.586 0-1.586H382.551c-1.098 0-1.098 1.586 0 1.586Zm156.597 0h24.692c1.042 0 1.042-1.586 0-1.586h-24.692c-1.042 0-1.042 1.586 0 1.586Zm-280.987 24.006h86.146c1.042 0 1.042-1.587 0-1.587h-86.146c-1.042 0-1.042 1.587 0 1.587Zm85.048-6.346h74.623c1.042 0 1.042-1.586 0-1.586h-74.623c-1.042 0-1.042 1.586 0 1.586Zm-200.548-4.335h22.496c1.592 0 1.592-2.38 0-2.38h-22.496c-1.591 0-1.591 2.38 0 2.38Zm30.178 0h7.682c1.591 0 1.591-2.38 0-2.38h-7.682c-1.591 0-1.591 2.38 0 2.38Z"/>
  <path fill="#161616" d="M110.727 348.824c1.042.158 2.469 1.427 3.566 7.455l9.712.635a875.812 875.812 0 0 0 8.066-6.557c.384 2.115.878 5.235 1.317 9.042.988 8.83.384 10.945.988 15.863.274 2.168 1.536 11.315 7.407 20.198 4.499 6.821 7.462 7.033 10.974 13.695 2.743 5.235 3.566 10.153 3.896 13.378.548-.053 7.517-.582 11.961 4.653 2.03 2.432 4.28 6.98 2.579 10.575-1.646 3.49-5.432 2.961-12.291 8.725-2.414 2.009-4.719 4.018-4.17 5.605.549 1.639 3.512 1.322 8.724 4.018 2.744 1.428 4.061 2.168 4.5 3.437 1.646 4.6-8.779 11.686-10.316 12.743-5.048 3.384-11.193 6.028-11.961 4.971-1.153-1.587 11.248-10.311 9.382-13.695-1.371-2.538-9.163.634-10.974-2.168-1.975-3.067 4.994-10.734 8.725-14.911 7.188-8.037 11.742-10.047 10.974-12.743-.823-2.856-7.079-4.759-10.316-2.803-2.743 1.639-2.195 5.341-3.237 7.773-1.975 4.653-11.413 8.46-43.896 4.97a14.963 14.963 0 0 1 1.921-2.802c2.798-3.12 6.31-4.23 8.065-4.653-.493-.793-3.347-5.499-1.591-11.21 1.317-4.336 4.445-6.715 5.487-7.455a174.549 174.549 0 0 1-6.474-13.695c-1.317-3.226-2.524-6.345-3.567-9.359-3.073 0-6.639-.529-9.383-2.803-4.115-3.49-2.469-7.773-6.749-10.892-4.005-2.961-8.779-1.639-9.602-4.177-.384-1.217.384-2.644 1.207-3.385 2.085-1.903 5.817-.951 9.877.106 2.798.74 6.804 2.115 11.248 4.706-1.481-2.062-4.17-6.398-4.335-12.161-.384-8.672 5.103-17.502 8.286-17.079Z"/>
  <path fill="#161616" d="M108.806 386.789c-3.786 1.586-2.359 12.32-.987 22.102a169.844 169.844 0 0 0 5.157 23.953c-7.681 5.71-7.297 7.35-7.078 7.773.714 1.427 5.816.581 7.408.317 1.701-.265 4.115-.688 5.487-1.534 3.895-2.485 1.865-10.046.658-22.102-1.756-17.449.329-24.746-5.487-28.923-.768-.582-3.292-2.379-5.158-1.586Z"/>
  <path fill="#fff" d="M71.275 408.679c.165-.052 1.592-.74 1.537-.793-.11-.053-.11.793-.11 1.005-.055.687-.274 1.533-.165 2.274.22 1.057 1.043 1.586 2.14 1.48.604-.053 1.043-.317 1.537-.687.11-.106.878-.74.933-.74.11.052.11 1.216.164 1.321.22 1.005.988 1.851 2.14 1.745 1.043-.105 1.043-1.692 0-1.586-.549.053-.713-2.802-1.646-3.12-.384-.158-.823-.053-1.152.106-.823.37-2.03 2.062-2.415.582-.274-1.111.878-2.697-.164-3.649-.988-.899-2.634.159-3.567.635-.987.529-.164 1.903.768 1.427Zm37.751-42.618c.933-.846 2.524-.634 3.182.423.439.635 1.482.053 1.043-.581-1.098-1.692-3.622-2.01-5.103-.688-.549.529.329 1.375.878.846Zm11.742-.37c.987-.952 2.634-1.004 3.676-.106.604.529 1.482-.317.878-.846-1.536-1.374-3.951-1.321-5.432.106-.549.529.329 1.375.878.846Z"/>
  <path fill="#EC615B" d="M111.166 371.878c-.604 1.163-3.183 5.182-.384 5.499 1.152.106 2.249-.899 2.908-1.639.932-1.058 1.481-2.38 1.975-3.649.384-.952-1.207-1.375-1.591-.423-.604 1.481-1.262 2.856-2.579 3.913-.274.212-.439.582-.329.106.055-.317.219-.635.384-.899.329-.688.658-1.375 1.042-2.062.439-1.005-.987-1.798-1.426-.846Z"/>
  <path fill="#EC615B" d="M112.647 372.724c.713-.318 1.262-.741 1.921-1.164-.22.053-.439.053-.659.106.055 0 .11.053.165.053-.165-.106-.329-.264-.494-.37 0-.317-.055-.317-.274.053-.165.158-.275.317-.439.529-.275.317-.494.634-.714.951a31.794 31.794 0 0 0-1.371 2.274c-.494.899.932 1.692 1.426.793.494-.846.988-1.745 1.537-2.538.438-.634 1.371-1.322 1.426-2.115.055-.582-.439-1.11-.988-1.11-.384-.053-.658.158-.932.37-.494.37-.933.634-1.537.899-.823.264 0 1.639.933 1.269Z"/>
  <path fill="#fff" d="M111.001 371.825c1.811.053 3.512-1.216 3.841-2.961.11-.741-1.043-1.058-1.207-.318a2.538 2.538 0 0 1-2.634 2.116c-.823-.053-.823 1.11 0 1.163Z"/>
  <path fill="#fff" d="M113.799 368.494c.22 2.115 2.14 3.807 4.39 3.648.768-.053.768-1.269 0-1.216-1.536.106-3.018-.899-3.182-2.432-.055-.741-1.262-.741-1.208 0Z"/>
  <path fill="#5222D0" d="M447.242 268.822c-18.162 21.203-36.269 42.354-54.431 63.557l85.432 20.463c.933-11.368 1.152-34.581-11.961-58.851-5.926-10.998-13.004-19.247-19.04-25.169Z"/>
  <path fill="#EC615B" d="M387.489 336.662c28.752 6.98 57.558 13.907 86.31 20.886-.329 4.442-1.262 10.628-4.006 17.502-3.237 8.249-7.791 14.224-11.083 17.925-23.704-18.771-47.463-37.542-71.221-56.313Z"/>
  <ellipse cx="383.264" cy="336.239" stroke="#161616" stroke-width="3" rx="95.638" ry="94.49"/>
  <path fill="#161616" d="M384.471 334.23c.22-.212.768-.053.878.211.055-.211.055-.423.11-.634-.055.106-.22.053-.275 0-.439-.159-.878.159-.987.529a.794.794 0 0 0 .548.951c.659.212 1.427.053 1.866-.423.549-.528.384-1.269-.11-1.744-.878-.847-2.249-.899-3.127-.106-.878.74.274 1.903 1.097 1.216Z"/>
  <path fill="#161616" d="M442.304 262.53a875.254 875.254 0 0 1-56.351 70.907c-.659.793.493 1.903 1.152 1.11a873.767 873.767 0 0 0 56.625-71.224c.604-.846-.823-1.639-1.426-.793Z"/>
  <path fill="#161616" d="M385.129 335.235c30.947 5.34 61.674 11.632 92.181 18.929 1.043.265 1.482-1.269.439-1.533-30.507-7.244-61.234-13.589-92.181-18.93-1.042-.159-1.481 1.375-.439 1.534Z"/>
  <path fill="#161616" d="M385.02 334.97c23.429 20.675 47.572 40.556 72.428 59.697.823.635 1.975-.476 1.152-1.11a1401.073 1401.073 0 0 1-72.428-59.697c-.768-.688-1.975.423-1.152 1.11Z"/>
  <path fill="#6D6C6C" d="M383.319 241.961c2.03 8.725 3.402 21.151-1.591 33.841-11.358 28.976-44.335 30.404-56.845 54.039-6.804 12.849-8.505 34.105 13.004 71.119v18.665c-6.365-3.437-13.388-8.09-20.137-14.435-25.624-24.165-29.575-55.732-30.398-67.735.055-8.671 1.317-36.854 22.881-62.023 4.883-5.711 22.222-25.275 51.742-31.567 8.614-1.798 16.076-2.063 21.344-1.904Z" opacity=".21"/>
  <path fill="#161616" d="M220.905 390.226c3.786 9.2 7.572 18.348 11.303 27.548a301.67 301.67 0 0 1-10.48 20.199c-6.255 10.998-9.218 14.699-8.231 15.81 1.427 1.586 10.7-2.38 46.694-28.342-2.249-6.028-4.554-12.108-6.803-18.295a2645.464 2645.464 0 0 1-9.603-26.702 2266.674 2266.674 0 0 1-22.88 9.782Z"/>
  <path fill="#EC615B" d="M322.084 229.059c6.091 9.994 1.756 25.487 1.153 27.549-3.347 12.003-10.919 13.166-38.683 38.494-17.394 15.915-22.387 22.366-26.063 29.452-4.994 9.729-6.804 18.771-7.518 24.904 2.25 12.69 4.5 25.328 6.749 38.018-5.761 3.596-13.827 7.879-24.142 10.893-7.243 2.115-13.827 3.172-19.259 3.648-5.048-12.32-12.291-35.057-8.396-62.711 4.719-33.682 23.21-55.731 38.574-74.027 23.374-27.812 50.425-45.843 73.58-57.476-.768 3.966-1.207 9.676 1.097 15.704 1.098 2.856 2.305 4.548 2.908 5.552Z"/>
  <path fill="#6D6C6C" d="M312.976 214.73c-6.859 17.872-15.089 31.726-22.551 42.142-22.223 31.144-38.629 33.682-51.742 62.605-8.395 18.507-10.206 36.168-10.755 42.513-1.372 14.752-.164 27.284 1.372 36.484a48.212 48.212 0 0 0 11.138-1.692c8.176-2.273 13.992-6.239 17.339-9.042a946.805 946.805 0 0 1-3.841-18.4c-2.085-10.787-3.127-16.233-3.127-20.093 0-11.369 4.993-19.935 9.053-26.756 1.921-3.225 7.517-12.161 27.106-29.452 20.686-18.242 29.3-21.414 34.732-34.792 3.238-7.984 3.183-14.33 3.128-16.392-.494-13.906-8.615-23.635-11.852-27.125Z" opacity=".2"/>
  <path fill="#6D6C6C" d="M324.773 246.191c-11.248 9.095-27.325 22.684-45.816 40.133-26.831 25.381-31.605 32.783-33.69 36.485-5.816 10.31-15.802 33.787-5.926 72.969a173.789 173.789 0 0 0 10.096-4.336c2.798-1.322 5.487-2.697 8.011-4.019-2.195-12.373-4.39-24.746-6.584-37.172.164-4.653.932-11.632 4.17-19.405.768-1.851 3.018-6.98 8.669-14.382 4.499-5.923 8.834-9.941 17.339-17.714 6.804-6.239 13.388-12.796 20.466-18.718 12.73-10.628 18.436-13.536 21.509-21.732 1.811-4.812 1.921-9.201 1.756-12.109Z" opacity=".27"/>
  <path fill="#161616" d="m281.316 389.062 25.021 18.56c-11.084 27.072-11.084 34.105-8.834 35.321 3.731 2.062 15.967-10.681 22.935-20.04 6.201-8.407 9.822-16.286 11.907-21.785-3.402-4.177-7.298-8.513-11.632-12.954-5.981-6.134-11.852-11.369-17.394-15.916-7.298 5.658-14.65 11.21-22.003 16.814Z"/>
  <path fill="#EC615B" d="M366.913 229.059c4.883 12.479 1.92 24.535 1.152 27.549-5.597 22.419-26.392 40.926-33.745 47.377-12.565 11.104-22.99 16.656-28.806 31.461-2.03 5.076-2.853 9.571-3.183 12.637 4.006 8.831 8.011 17.661 12.017 26.438-2.634 5.447-8.395 15.493-20.028 23.16-4.938 3.279-9.766 5.288-13.717 6.61-8.34-8.196-30.946-32.519-29.739-65.038.932-24.957 15.583-45.05 26.886-60.649 11.358-15.598 14.266-13.695 28.587-33.629 12.4-17.29 14.76-25.169 25.185-28.659 10.48-3.543 25.844-1.586 32.592 7.191 1.317 1.851 1.921 3.384 2.799 5.552Z"/>
  <path fill="#6D6C6C" d="M341.398 226.68c.604 4.864 1.043 13.219-1.481 22.842-8.779 32.731-40.933 35.586-56.406 71.013-3.018 6.927-10.041 23.688-4.499 43.094 4.28 15.123 14.266 24.958 19.917 29.716a27.978 27.978 0 0 0 8.999-7.244 27.162 27.162 0 0 0 5.652-12.32 5761.615 5761.615 0 0 1-11.633-27.178c.714-4.019 2.195-9.782 5.652-15.969 4.719-8.566 10.425-12.901 17.778-19.299 13.497-11.686 22.112-19.089 29.574-29.294 4.719-6.504 11.578-16.074 13.827-30.086 1.866-11.422-.109-20.992-1.81-26.756-8.505.529-17.065 1.005-25.57 1.481Z" opacity=".24"/>
  <path fill="#6D6C6C" d="M369.327 243.653a183.124 183.124 0 0 1-23.32 32.413c-22.167 24.588-37.201 29.717-47.517 48.646-4.444 8.143-8.504 21.574-3.511 43.147 6.31 2.432 12.675 4.865 18.985 7.35-4.006-9.095-7.956-18.137-11.962-27.231.384-4.495 1.536-11.157 5.432-18.031 3.457-6.134 7.298-9.359 15.748-16.762 13.991-12.267 21.015-18.401 23.868-21.467 6.529-6.927 13.663-14.7 18.162-26.703 3.292-8.513 4.005-16.18 4.115-21.362Z" opacity=".25"/>
  <path fill="#fff" d="M235.775 155.35c-1.482-3.173-4.061-7.773-8.78-11.95-5.926-5.235-14.211-8.989-15.528-7.456-.548.635-.494 2.856 9.493 13.484"/>
  <path stroke="#161616" stroke-width="2" d="M235.775 155.35c-1.482-3.173-4.061-7.773-8.78-11.95-5.926-5.235-14.211-8.989-15.528-7.456-.548.635-.494 2.856 9.493 13.484"/>
  <path fill="#fff" d="M215.089 146.678c-2.14 1.269-5.926 3.966-7.956 8.619-.769 1.798-1.756 4.124-1.043 6.821 1.262 4.653 7.078 6.61 7.572 6.821 2.359.793 2.963.212 4.664 1.163 2.743 1.534 2.634 3.596 4.664 5.5 4.17 3.859 12.62 2.326 13.004.687.219-.899-2.195-1.745-1.975-3.384.109-1.005 1.152-1.428 1.865-2.062 3.841-3.384.165-13.272-.494-14.911-.603-1.534-1.536-3.755-3.182-6.24"/>
  <path stroke="#161616" stroke-width="2" d="M215.089 146.678c-2.14 1.269-5.926 3.966-7.956 8.619-.769 1.798-1.756 4.124-1.043 6.821 1.262 4.653 7.078 6.61 7.572 6.821 2.359.793 2.963.212 4.664 1.163 2.743 1.534 2.634 3.596 4.664 5.5 4.17 3.859 12.62 2.326 13.004.687.219-.899-2.195-1.745-1.975-3.384.109-1.005 1.152-1.428 1.865-2.062 3.841-3.384.165-13.272-.494-14.911-.603-1.534-1.536-3.755-3.182-6.24"/>
  <path fill="#161616" d="M205.157 161.431c1.262 3.172 3.677 5.975 7.024 7.244 3.402 1.322 5.926-.423 5.98-3.913 0-1.005-1.646-1.005-1.646 0-.055 4.071-4.225 2.591-6.31.952-1.591-1.216-2.743-2.856-3.456-4.706-.385-.952-1.976-.582-1.592.423Z"/>
  <path fill="#161616" d="M209.273 157.095c1.646 2.961 3.84 6.239 7.242 7.455 3.073 1.111 4.884-.687 5.213-3.489.11-1.005-1.536-1.005-1.646 0-.494 4.177-4.719 1.269-6.2-.212-1.317-1.322-2.305-2.908-3.183-4.547-.494-.899-1.92-.106-1.426.793Zm4.938-7.138c.987 2.115 1.975 4.283 3.347 6.186.933 1.322 2.25 3.226 4.06 3.543 4.28.793 2.908-5.076 2.085-7.086-.384-.951-1.975-.528-1.591.423.384.899 1.207 2.75.878 3.755-.933 2.908-3.457-.688-4.006-1.428-1.371-1.904-2.359-4.071-3.347-6.187-.439-.951-1.865-.158-1.426.794Z"/>
  <path fill="#161616" d="M215.034 147.577c1.646-.793 3.676.635 4.828 1.692 1.153 1.058 1.921 2.433 2.524 3.807.384.952 1.976.529 1.592-.423-1.372-3.278-5.433-8.513-9.767-6.451-.933.423-.11 1.798.823 1.375Z"/>
  <path fill="#fff" stroke="#161616" stroke-width="2" d="M334.046 131.344c1.756 5.023-.933 9.306-8.45 22.208-12.62 21.468-13.388 23.371-16.296 26.756-6.859 7.931-10.755 12.425-17.943 15.334-13.113 5.287-27.654.634-35.61-2.274a66.323 66.323 0 0 1-16.461-8.936c-2.414-1.904-4.28-3.384-5.487-4.283-2.524-1.957-3.676-2.803-4.664-4.495-.055-.052-.987-1.692-1.207-3.542-.823-5.658 4.993-10.417 5.432-10.787-6.968 1.586-9.382 1.269-9.821.317-1.043-2.115 6.529-9.888 11.851-8.143 2.524.793 3.786 3.543 4.719 5.552 1.811 3.807 1.591 7.35 1.372 9.148a51.312 51.312 0 0 0 14.211 6.557c12.017 3.384 22.332 1.586 27.435.317a1880.163 1880.163 0 0 0 12.894-20.252c15.144-24.217 19.15-31.884 26.118-31.99 5.213-.053 10.371 4.125 11.907 8.513Z"/>
  <path fill="#fff" d="M232.866 162.7c-4.718-.212-5.377 5.658-5.98 8.989.548.053 1.097.158 1.591.211.055-2.115 1.042-3.86 2.085-5.658.549-.898-.878-1.692-1.427-.793-2.14 3.332-3.456 7.456-.493 10.734l1.152-1.11c-.823-.688-1.262-1.586-1.317-2.697-.549.053-1.097.159-1.591.212.274.846.603 1.639 1.042 2.432.494.899 1.921.106 1.427-.793-.384-.635-.713-1.322-.878-2.062-.22-.846-1.701-.688-1.591.211.164 1.534.658 2.697 1.81 3.807.769.74 1.866-.37 1.153-1.11-2.415-2.697-.878-6.134.768-8.831-.494-.264-.933-.528-1.427-.793-1.207 2.063-2.249 4.019-2.304 6.451-.055.899 1.481 1.111 1.591.212.439-2.433.823-7.932 4.389-7.826 1.043.053 1.043-1.533 0-1.586Z"/>
  <path fill="#6D6C6C" d="M325.651 124.999c-3.457 8.936-9.054 21.679-17.888 36.114-8.998 14.753-13.717 22.156-21.838 26.068-16.68 7.985-42.414 2.591-51.083-12.69-2.634-4.653-3.238-9.359-3.238-12.902-2.085.688-5.322 1.428-8.449.265-7.024-2.697-7.682-12.796-11.413-12.691-2.469.106-4.28 4.601-4.939 6.24-.603 1.48-1.591 3.913-.987 6.451.878 3.754 4.993 6.715 10.151 7.667 2.688 1.269 4.389 2.696 5.432 3.807 1.81 1.903 2.304 3.384 4.225 4.283 1.701.793 3.511.687 4.718.476a113.13 113.13 0 0 0 11.907 8.143c11.303 6.662 24.966 14.699 40.439 11.95 7.298-1.269 12.291-4.495 15.363-6.451 4.994-3.226 10.371-8.09 20.577-25.804a286.724 286.724 0 0 0 14.65-29.187c.219-.529 1.426-3.649-.275-6.927-2.085-4.336-7.078-4.812-7.352-4.812Z" opacity=".21"/>
  <path fill="#6D6C6C" d="M221.838 161.748c-.769.529-.439 1.586-1.372 2.379-.659.529-1.536.529-2.085.529 0 .74-.11 1.692-.713 2.538-.769 1.058-1.811 1.269-1.756 1.692.109.476 1.646.212 3.127 1.005 1.043.582 1.701 1.48 2.085 2.168 3.622-3.331 7.243-6.61 10.865-9.941-2.744 1.005-4.774.846-6.146.529-1.756-.529-3.073-1.534-4.005-.899Z" opacity=".22"/>
  <path fill="#fff" stroke="#161616" stroke-width="2" d="M333.607 120.981c-3.676 3.542-5.597 7.561-9.328 15.598-2.963 6.292-7.736 16.815-9.328 30.827-1.756 15.651 2.36 19.194-.932 30.827-2.47 8.777-7.134 15.228-10.59 19.141 4.444 4.283 12.51 10.892 24.526 14.964 20.357 6.873 38.244 1.692 44.116-.318 4.883-12.69 9.711-25.38 14.595-38.018.055-10.733.494-19.881.933-26.966 1.097-16.921 2.908-29.875 4.06-37.754 1.317-9.253 2.689-17.026 3.731-22.737-12.346.635-22.551 2.01-29.849 3.279-23.923 4.23-29.575 8.883-31.934 11.157Z"/>
  <path fill="#6D6C6C" d="M362.688 110.194c2.469 5.658 5.651 14.805 6.365 26.279 1.701 27.284-11.962 48.646-22.332 64.826-4.719 7.35-12.017 17.555-22.826 28.606a59.077 59.077 0 0 0 17.668 5.658c13.608 2.115 24.691-1.057 30.178-3.067 4.609-12.796 9.164-25.539 13.773-38.335.274-8.724.768-17.766 1.481-26.967 1.646-21.467 4.335-41.613 7.627-60.331l-31.934 3.331Z" opacity=".19"/>
  <path fill="#6D6C6C" d="M372.51 108.555c3.95 9.835 8.065 24.164 7.133 41.402-2.634 47.958-42.031 76.987-48.834 81.852a63.329 63.329 0 0 0 16.68 3.331 62.78 62.78 0 0 0 23.594-3.067c5.048-12.796 10.151-25.539 15.199-38.335 0-11.686.439-24.164 1.481-37.383a456.017 456.017 0 0 1 6.639-49.228l-21.892 1.428Z" opacity=".11"/>
  <path fill="#fff" stroke="#161616" stroke-width="2" d="M393.36 105.858c4.444 1.586 10.974 4.653 15.693 10.84 5.267 6.926 6.419 15.281 3.401 41.772-2.798 24.64-5.212 29.928-6.145 44.733-1.042 16.286.549 29.611 2.03 38.124l18.766-4.283c6.803 1.744 10.919 4.97 12.949 6.926 2.03 1.904 6.31 5.922 5.103 9.201-.768 2.115-3.567 3.172-4.774 3.595-2.359.899-4.335.794-6.475.635-4.554-.264-9.108-.423-13.662-.635-2.359-.105-5.761-.211-9.877 0 5.542 4.601 7.902 7.562 7.188 8.884-.987 1.744-7.572.528-19.808-3.596a503.209 503.209 0 0 0-2.743-18.718c-3.402-20.728-5.871-28.13-7.517-39.128-1.701-11.369-1.152-21.627 0-42.09.878-14.488 2.469-33.629 5.871-56.26Z"/>
  <path fill="#161616" d="M418.819 249.734c4.225-1.692 8.615-.74 12.675 1.005 3.457 1.427 6.859 3.172 9.548 5.71.768.688 1.92-.423 1.152-1.11-3.128-2.908-7.024-4.865-11.029-6.398-4.115-1.639-8.56-2.38-12.839-.688-.878.318-.439 1.851.493 1.481Zm5.378-4.865c7.297-1.375 15.967 2.803 19.972 8.778.604.846 2.03.053 1.427-.793-4.5-6.61-13.718-10.999-21.838-9.465-1.043.158-.604 1.692.439 1.48Zm6.31-3.648c2.908.106 5.432 1.322 7.956 2.644.932.476 1.756-.899.823-1.375-2.799-1.428-5.597-2.75-8.779-2.855-1.043-.053-1.043 1.533 0 1.586Z"/>
  <path fill="#6D6C6C" d="M394.128 107.127c2.744 5.975 6.639 15.704 8.615 28.183 4.773 30.562-6.969 46.478-4.884 79.526.494 8.195 2.085 20.41 7.133 35.268 4.39-1.375 11.084-2.75 18.93-1.904 5.542.635 8.286.952 11.029 2.856 2.744 1.903 4.335 4.441 7.133 4.283 1.097-.053 2.579-.529 3.183-1.639 1.481-2.591-2.579-7.033-3.951-8.513-1.975-2.168-6.036-5.87-13.498-8.038l-19.424 3.807c-1.262-5.393-3.018-14.382-3.182-25.539-.165-9.517 1.591-21.044 5.157-43.781.659-4.23 1.482-12.743 3.183-29.822.549-5.605.988-10.628-.988-16.815-.987-3.12-3.402-10.205-10.535-14.647-3.018-2.009-5.926-2.802-7.901-3.225Z" opacity=".16"/>
  <path fill="#6D6C6C" d="M406.145 256.449c.713 1.692 2.249 4.6 5.377 6.874 1.92 1.375 5.267 3.067 5.871 2.379.768-.846-2.14-5.499-6.639-7.825-1.701-.899-3.402-1.269-4.609-1.428Z" opacity=".22"/>
  <path fill="#6D6C6C" d="M412.29 150.644c-4.993 13.219-10.974 34.422-9.328 60.596.823 13.378 3.512 24.905 6.365 34.052a114.637 114.637 0 0 1-3.951-25.063c-.658-15.81 2.305-24.693 5.378-53.722a433.336 433.336 0 0 0 1.536-15.863Z" opacity=".4"/>
  <path fill="#6D6C6C" d="M423.374 243.653c-.11-.634 5.377-3.067 10.809-1.903 7.298 1.586 10.699 8.988 11.303 10.416-2.579-2.802-6.749-6.451-12.785-7.826-5.102-1.11-9.273-.158-9.327-.687Z" opacity=".22"/>
  <path fill="#5222D0" d="M313.415 95.018c-2.305 2.063-2.798 6.398-3.731 14.911-1.043 9.783-1.482 14.753.658 17.238 3.896 4.547 12.291 4.812 18.107 2.327 6.859-2.961 9.218-9.359 9.822-10.946 2.689-7.35 1.811-18.454-6.31-23.53-5.487-3.49-13.992-4.071-18.546 0Z"/>
  <path fill="#fff" stroke="#161616" stroke-width="2" d="M325.267 102.738c.823 3.807 5.212 4.125 8.944 10.205 2.688 4.389 3.237 8.884 3.292 12.109 3.347-.053 9.547-.687 16.241-4.019a36.733 36.733 0 0 0 10.755-8.248c-1.372-2.168-3.402-5.341-5.817-9.148-10.425-16.127-11.961-17.396-14.046-17.925-8.45-1.956-20.96 9.94-19.369 17.026Z"/>
  <path fill="#161616" d="M342.331 96.34c-2.524 5.129-5.103 10.205-8.614 14.806l1.317-.159c-.33-.37-.659-.793-.933-1.163-.055.317-.11.634-.11.951 1.427-1.163 2.524-2.432 3.512-3.965-.494-.265-.933-.529-1.427-.793-.768 1.586-1.756 2.538-3.347 3.225l.988 1.269a60.852 60.852 0 0 0 7.736-8.513c.604-.846-.823-1.639-1.426-.793-2.195 2.961-4.719 5.71-7.463 8.196-.713.634.22 1.586.988 1.269 1.811-.793 3.128-2.062 3.951-3.807.439-.899-.823-1.692-1.427-.794a18.874 18.874 0 0 1-3.237 3.649c-.275.211-.329.687-.11.952.494.74.549.846 1.207 1.48.384.423.988.212 1.317-.158 3.512-4.548 6.091-9.677 8.615-14.806.329-.952-1.098-1.745-1.537-.846Z"/>
  <path fill="#fff" stroke="#161616" stroke-width="2" d="M289.163 55.731c-2.524 4.495-1.921 9.042-.714 17.925 1.427 10.047 3.292 18.454 5.542 24.006.329.846 1.207 1.322 2.14 1.216 1.207-.105 3.018-1.004 4.06-1.322a31.187 31.187 0 0 0 6.914 8.196c6.749 5.605 14.156 6.927 17.448 7.297 3.238-1.163 11.249-4.6 16.571-12.849 3.512-5.499 4.225-10.575 4.39-11.738.932-7.614-1.701-13.537-2.963-15.969 1.152-.687 2.908-1.903 4.115-3.966 2.524-4.282 2.414-11.368-1.591-13.272-3.018-1.427-7.792.16-11.029 4.23a30.611 30.611 0 0 0-5.048-6.397c-.604-.582-5.048-4.918-10.096-6.874-9.877-3.755-24.582.37-29.739 9.517Z"/>
  <path fill="#161616" d="M303.648 102.421c3.786-.952 5.981-4.019 7.901-7.033.549-.846-.878-1.639-1.426-.793-1.701 2.644-3.622 5.447-6.914 6.345-1.042.212-.603 1.745.439 1.481Z"/>
  <path fill="#161616" d="M308.641 95.283c1.098.053 1.976.476 2.689 1.269.713.793 1.865-.37 1.152-1.11-.987-1.111-2.359-1.693-3.841-1.745-1.097 0-1.097 1.586 0 1.586Zm-4.17-8.725V86.4c0-.424-.384-.794-.823-.794-.439 0-.823.37-.823.794v.158c0 .423.384.793.823.793.439-.053.823-.37.823-.793Zm3.676-4.23c1.043 0 1.043-1.586 0-1.586-1.042 0-1.042 1.586 0 1.586Zm-.493 4.019c1.042 0 1.042-1.587 0-1.587-1.043 0-1.043 1.587 0 1.587Z"/>
  <path fill="#5222D0" d="M286.803 73.762c-1.756-.582-5.487-2.115-7.627-5.658-3.347-5.499-.658-11.897.659-14.91.713-1.693 2.688-5.87 12.236-14.066 7.242-6.292 10.919-9.412 15.034-11.157 14.705-6.186 29.739-.264 32.483.846 4.06 1.587 7.023 3.543 12.894 7.35 7.133 4.653 11.687 7.667 15.254 12.85 4.335 6.344 1.701 7.983 5.432 15.122 5.926 11.315 14.101 9.94 18.985 20.41.823 1.745 5.377 11.474.219 19.987-4.225 6.927-12.839 9.412-19.204 9.253-11.797-.317-19.204-10.046-23.1-15.122-7.408-9.677-8.834-19.934-9.163-25.434 4.664-2.273 6.474-7.138 4.773-10.522-1.317-2.697-5.157-4.97-8.505-3.596-2.304.952-3.786 3.49-3.731 6.293-2.194.37-8.943 1.163-15.912-2.538a24.061 24.061 0 0 1-9.163-8.408c-3.073 1.164-8.011 3.384-12.894 7.773-4.664 4.23-7.298 8.672-8.67 11.527Z"/>
  <path fill="#6D6C6C" d="M322.578 76.829c6.091 5.5 9.054 11.58 9.986 13.642 3.841 8.46 3.622 16.233 3.238 20.199 1.975-3.226 3.895-6.451 5.871-9.729 3.182 6.873 6.31 13.747 9.492 20.568 1.701-.37 5.048-1.322 8.286-4.071 2.469-2.115 3.786-4.389 4.444-5.817-4.609-3.172-13.663-10.363-18.93-22.736a50.044 50.044 0 0 1-3.841-15.546c4.445-2.326 6.31-6.98 4.829-10.47-1.043-2.537-4.28-5.393-7.847-4.44-3.018.792-5.103 3.912-4.609 7.402-2.304.264-7.791.634-13.882-1.957a26.325 26.325 0 0 1-11.083-8.936c1.481 9.36 5.212 14.436 8.34 17.344 1.975 1.956 2.798 1.956 5.706 4.547Z" opacity=".24"/>
  <path fill="#6D6C6C" d="M341.234 79.367c-.384 0-.165 5.446-.714 10.47-.713 6.45-2.688 11.579-4.334 15.016 1.481-.899 3.676-2.591 5.596-5.234 2.744-3.86 3.238-7.668 3.402-9.518a22.288 22.288 0 0 1-1.755-3.12c-1.921-4.23-1.866-7.614-2.195-7.614Z" opacity=".24"/>
  <path fill="#6D6C6C" d="M343.154 97.715a62.68 62.68 0 0 0 5.597 4.97c7.298 5.87 14.376 9.201 14.595 8.831.22-.37-6.694-3.067-11.961-10.364-3.292-4.547-5.213-9.94-6.036-9.676-.384.105-.055 1.374-.713 3.437-.439 1.216-1.043 2.168-1.482 2.802Z" opacity=".19"/>
  <path fill="#2C167C" d="M349.245 34.21c6.474 10.788 11.083 20.2 14.211 27.18 8.724 19.616 8.011 25.01 6.804 28.5-2.689 7.878-10.151 12.32-14.596 14.435 1.098 1.48 5.652 7.349 13.992 8.988 1.591.318 11.194 2.063 18.491-4.335 5.432-4.706 6.255-10.946 6.42-12.585.988-8.883-4.499-15.545-6.255-17.449-2.305-2.485-2.798-1.904-8.176-6.927-4.17-3.86-6.2-5.816-7.407-8.248-1.921-3.966-.659-5.658-2.908-10.681-1.207-2.75-2.634-4.6-3.676-6.028-5.323-6.927-13.005-10.998-16.9-12.85Z" opacity=".74"/>
  <path fill="#2C167C" d="M310.233 112.732c.493 6.133 6.31 10.575 12.4 9.729 5.871-.846 10.096-6.345 9.054-12.214a20.146 20.146 0 0 1 3.731 5.975 18.676 18.676 0 0 1 1.317 5.552c-.824 1.322-5.103 7.878-13.114 9.147-1.372.212-9.164 1.322-12.84-3.172-1.756-2.221-1.92-4.918-2.03-7.086-.11-3.542.823-6.345 1.482-7.931Z" opacity=".52"/>
  <path fill="#161616" d="M299.917 77.834c.549 1.057.549 2.59-.165 2.908-.713.37-2.085-.635-2.578-1.798-.385-1.005-.275-2.432.439-2.697.768-.264 1.865.688 2.304 1.587Zm-4.499-1.216a37.102 37.102 0 0 1 5.926-1.428c.768-.106.439-1.27-.33-1.163-2.03.317-4.005.793-5.925 1.427-.769.265-.439 1.375.329 1.164Z"/>
</svg>
