<svg xmlns="http://www.w3.org/2000/svg" width="631" height="553" fill="none" viewBox="0 0 631 553">
  <path fill="#161616" d="M1.9 506.78h56.334c1.005 0 1.005-1.548 0-1.548H1.9c-1.005 0-1.005 1.548 0 1.548Zm59.72 14.961h119.44c1.005 0 1.005-1.548 0-1.548H61.62c-1.005 0-1.005 1.548 0 1.548Zm151.866-14.136h298.602c1.005 0 1.005-1.548 0-1.548H213.486c-1.005 0-1.005 1.548 0 1.548Zm172.338-10.834h174.03c1.005 0 1.005-1.548 0-1.548h-174.03c-1.005 0-1.005 1.548 0 1.548Zm89.607 27.446h154.405c1.005 0 1.005-1.547 0-1.547H475.431c-1.058 0-1.058 1.547 0 1.547Z"/>
  <path fill="#E8E8E8" d="M484.476 27.91c10.738 5.108 14.124 17.18 15.34 27.86 1.64 14.342 1.27 29.149 1.164 43.543-.212 31.471-2.116 62.941-3.862 94.36-3.438 62.787-6.929 125.573-10.367 188.359-1.957 35.34-3.915 70.68-5.819 106.02-.053.98 1.534.98 1.587 0 3.544-64.179 7.088-128.359 10.579-192.486 1.746-31.935 3.492-63.819 5.29-95.754 1.746-31.78 3.756-63.56 4.179-95.392.106-8.873.106-17.747-.106-26.672-.159-7.584-.212-15.22-1.111-22.752-1.375-10.989-5.025-23.268-16.027-28.478-.953-.361-1.746.98-.847 1.393Z"/>
  <path fill="#E8E8E8" d="M456.705 17.696a82.675 82.675 0 0 1 33.378 13.31c.846.568 1.64-.773.794-1.341-10.104-6.862-21.635-11.453-33.749-13.465-1.005-.207-1.428 1.29-.423 1.496Z"/>
  <path fill="#E8E8E8" d="M409.892 2.631c16.451 1.651 34.171 3.766 46.813 15.271.741.67 1.852-.413 1.111-1.083-12.96-11.815-30.997-14.033-47.924-15.735-1.058-.104-1.005 1.444 0 1.547Z"/>
  <path fill="#E8E8E8" d="M456.335 17.954c-2.274 16.509-11.637 31.728-25.549 41.376-.846.567-.053 1.909.793 1.341 14.441-10.06 24.016-25.59 26.343-42.717.159-.98-1.428-.98-1.587 0Z"/>
  <path fill="#E8E8E8" d="M408.887 1.754c13.859 16.406 21.317 37.404 20.894 58.66 0 .98 1.587.98 1.587 0 .37-21.669-7.247-43.028-21.37-59.743-.635-.774-1.746.31-1.111 1.083Z"/>
  <path fill="#E8E8E8" d="M417.192 19.76c-6.348-.413-12.22 7.377-9.152 13.155 2.275 4.282 10.897 6.552 13.912 1.909.529-.825-.846-1.6-1.375-.774-2.38 3.715-9.786 1.187-11.214-2.167-2.116-4.85 2.75-10.937 7.881-10.576.953.052.953-1.496-.052-1.548Z"/>
  <path fill="#E8E8E8" d="M408.463 1.445c.582 7.222 1.746 14.394 3.545 21.41.264.98 1.798.567 1.534-.413a128.907 128.907 0 0 1-3.492-20.997c-.105-.98-1.692-.98-1.587 0Zm9.892 36.165c3.491 7.739 6.983 15.477 10.421 23.216.423.929 1.798.103 1.375-.774a4511.24 4511.24 0 0 1-10.421-23.216c-.37-.877-1.745-.103-1.375.774Z"/>
  <path fill="#E8E8E8" d="M418.778 36.94c2.063 5.778 4.179 11.556 7.406 16.87.529.877 1.851.103 1.375-.774a63.849 63.849 0 0 1-6.242-16.406c-.423.258-.899.516-1.322.774l.106.103c-.053-.31-.106-.62-.106-.929-.053.052-.053.103-.106.155l1.27-.155c-.053-.103 4.655-4.282 4.972-4.54-.423-.103-.899-.206-1.322-.361 1.11 4.695 1.851 9.441 2.327 14.24.529-.053 1.058-.156 1.534-.207a72.65 72.65 0 0 0-3.438-9.854c-.371-.877-1.746-.568-1.534.413.899 4.178 1.745 8.357 2.645 12.588.529-.155 1.005-.258 1.534-.413a142.828 142.828 0 0 0-3.862-10.318c-.37-.929-1.798-.568-1.534.413 1.058 3.869 2.116 7.79 3.174 11.66l1.428-.62c-1.481-3.353-2.909-6.707-4.39-10.112-.371-.774-1.746-.206-1.429.62 2.116 5.571 4.232 11.143 6.242 16.766.318.93 1.799.568 1.534-.412-.793-2.735-1.375-5.52-1.639-8.358-.529.052-1.058.155-1.534.206l2.856 9.596c.264.98 1.746.568 1.534-.413-.846-3.61-1.428-7.274-1.799-10.988-.529.051-1.057.154-1.534.206.688 3.766 1.323 7.532 2.275 11.247.212.825 1.64.67 1.534-.206a87.368 87.368 0 0 0-2.38-13.775c-.265-.98-1.746-.568-1.534.412.37 1.6.37 3.147.158 4.798.476-.154 1.005-.258 1.481-.412-1.322-2.219-2.168-4.489-2.486-7.017-.105-.774-1.005-1.083-1.481-.413-.37.516-.687 1.032-1.058 1.548h1.376c-.688-1.547-.953-2.992-.9-4.695h-1.587l-.317 1.084c.423.103.899.206 1.322.361-.264-1.341-.264-2.373-.158-3.663-.529.052-1.058.155-1.534.206-.106.568-.159 1.135-.265 1.703h1.376c.211-.722.476-1.445.687-2.167-.37-.155-.793-.31-1.163-.464l-.794 2.476c.423.258.899.516 1.323.774.37-1.65 1.11-2.837 2.38-4.024-.423-.103-.899-.206-1.323-.361.212 1.393.053 2.528-.423 3.87.529.05 1.058.154 1.534.205 0-1.135.159-2.115.582-3.198-.529-.052-1.058-.155-1.534-.207 0 .93.053 1.858.053 2.786 0 .826 1.428 1.084 1.534.207l.476-2.786h-1.534c0 .516-.053 1.032-.053 1.6-.423.928.952 1.702 1.376.773.476-1.032.581-1.65.211-2.786-.211-.67-1.375-.774-1.534 0l-.476 2.786c.529.052 1.058.155 1.534.206 0-.928-.053-1.857-.053-2.786 0-.877-1.269-1.031-1.534-.206-.476 1.238-.635 2.322-.635 3.611 0 .877 1.27 1.032 1.534.207.582-1.6.688-2.992.424-4.695-.106-.62-.953-.67-1.323-.361-1.428 1.29-2.327 2.837-2.803 4.695-.159.722.74 1.341 1.322.773 1.111-1.186 1.481-2.373 1.164-3.972-.106-.464-.794-.722-1.164-.464-1.587 1.032-2.01 2.58-1.27 4.282.265.567 1.058.412 1.376 0 .687-.98.793-1.806.423-2.89a.783.783 0 0 0-1.534.207c-.159 1.393-.053 2.683.212 4.076.105.567.952.722 1.322.36.635-.67.899-1.186.793-2.166-.105-.98-1.586-1.032-1.586 0-.053 1.96.317 3.663 1.11 5.469.265.567 1.058.412 1.376 0 .37-.516.687-1.032 1.058-1.548-.476-.155-1.005-.258-1.481-.413.37 2.838 1.216 5.366 2.697 7.79.423.723 1.376.31 1.481-.412.265-1.806.159-3.405-.211-5.21-.529.154-1.005.257-1.534.412 1.163 4.385 1.904 8.873 2.327 13.362.529-.052 1.058-.155 1.534-.207-.899-3.714-1.587-7.48-2.274-11.246-.159-.877-1.64-.671-1.534.206.37 3.87.952 7.636 1.851 11.402.529-.155 1.005-.258 1.534-.413l-2.856-9.596c-.265-.826-1.64-.67-1.534.206.317 2.993.846 5.882 1.692 8.77.529-.154 1.005-.257 1.534-.412a1598.836 1598.836 0 0 0-6.241-16.767l-1.429.62c1.481 3.352 2.91 6.706 4.391 10.11.37.826 1.692.207 1.428-.618-1.058-3.87-2.116-7.79-3.174-11.66-.529.155-1.005.258-1.534.413 1.375 3.405 2.645 6.862 3.862 10.318.317.929 1.745.568 1.534-.413-.9-4.178-1.746-8.357-2.645-12.588-.529.155-1.005.258-1.534.413a72.645 72.645 0 0 1 3.438 9.854c.212.825 1.64.67 1.534-.206a114.291 114.291 0 0 0-2.38-14.652c-.159-.568-.9-.723-1.323-.361-1.481 1.34-4.073 2.94-5.078 4.694-.476.877-.476 1.342.106 2.012.37.413.952.207 1.269-.154.053-.052.053-.104.106-.155.212-.258.106-.723-.106-.929l-.105-.103c-.582-.567-1.481 0-1.323.774 1.323 5.881 3.439 11.505 6.401 16.767.476-.258.899-.516 1.375-.774-3.121-5.21-5.237-10.834-7.247-16.51-.423-.876-1.957-.463-1.587.465ZM409.31 3.663a121.544 121.544 0 0 1 3.385 16.715c.053.568.635.98 1.217.671a22.308 22.308 0 0 1 5.448-2.063c.476-.104.741-.723.476-1.135a157.563 157.563 0 0 1-6.823-10.938c-.476-.877-1.799-.103-1.376.774 1.429 3.044 2.539 6.191 3.439 9.39l1.428-.62a26.182 26.182 0 0 1-2.592-7.119l-1.428.62c1.957 2.785 3.015 5.829 3.173 9.182.477-.206.9-.36 1.376-.567-1.217-1.084-1.905-2.27-2.275-3.87-.37.31-.793.568-1.164.878 1.111.825 1.482 1.754 1.217 2.837.476-.155 1.005-.258 1.481-.413-1.322-1.702-2.38-3.508-3.332-5.417l-1.111 1.084c1.481.928 3.438 10.163 7.194 5.984 1.375-1.547.582-3.508-.318-5.107-1.481-2.683-3.332-5.16-5.236-7.533-.582-.722-1.693.207-1.27.93 2.063 3.456 3.597 7.067 4.602 10.936l1.428-.619c-.211-.464-.423-.877-.634-1.341l-1.111 1.083v-.103a12.36 12.36 0 0 1-1.005.722c.687.258 1.428.516 2.116.774.952.361 1.375-1.135.423-1.496-.688-.258-1.428-.516-2.116-.774-.476-.206-1.005.31-1.005.723-.053 4.075 5.871.825 2.38-1.239-.74-.412-1.428.413-1.111 1.084.212.464.424.877.635 1.341.37.826 1.64.207 1.428-.619-1.058-4.024-2.592-7.739-4.76-11.298l-1.27.928a91.21 91.21 0 0 1 3.333 4.54c.423.62.846 1.239 1.216 1.91.318.463.582.98.794 1.495.846 1.084.211 1.703-1.957 1.806-.741-.567-.847-2.476-1.164-3.302-.423-1.032-.952-1.702-1.904-2.27-.741-.413-1.376.413-1.111 1.084.952 1.96 2.01 3.714 3.332 5.417.476.619 1.376.412 1.481-.413.212-1.806-.476-3.147-2.01-4.179-.582-.413-1.322.258-1.163.877.423 1.806 1.322 3.302 2.697 4.54.476.413 1.376.155 1.376-.567-.159-3.663-1.323-6.965-3.386-9.958-.529-.722-1.64-.257-1.428.62a28.96 28.96 0 0 0 2.751 7.48c.423.774 1.692.258 1.428-.619-.899-3.353-2.116-6.603-3.597-9.75-.476.257-.899.515-1.375.773 2.115 3.767 4.39 7.378 6.823 10.938.159-.361.318-.774.476-1.135a21.447 21.447 0 0 0-5.818 2.218c.423.206.793.464 1.216.67-.74-5.777-1.851-11.504-3.438-17.127-.212-.826-1.746-.413-1.481.567Z"/>
  <path fill="#E8E8E8" d="M409.363 29.974c-1.217-2.94 1.692-5.675 4.02-7.016 2.274-1.341 4.813-1.806 7.458-1.65.741.05.952-.826.582-1.342-.476-.568-.899-1.135-1.375-1.703-.423-.516-1.428-.103-1.375.568-.159-1.032-1.64-.413-2.328-.413-2.539-.052-1.534-.516-1.64-1.909-.211-1.702-1.216-3.456-1.639-5.107-.635-2.425-.953-4.85-1.164-7.326-.053-.98-1.64-.98-1.587 0 .211 2.94.635 5.83 1.428 8.667.37 1.238 1.27 2.786 1.111 4.076-.053.567-.476.98-.476 1.547.053 1.187 1.269 1.91 2.38 1.91 1.217 0 2.433-.259 3.703-.207.688.052.793.206 1.428-.206.212-.155.423-.413.37-.671 0-.103-.052-.258-.052-.361-.477.206-.9.361-1.376.567.476.568.899 1.135 1.376 1.703.211-.464.37-.877.581-1.341-5.183-.31-15.816 3.869-13.012 10.627.423.929 1.957.516 1.587-.413Z"/>
  <path fill="#E8E8E8" d="M412.378 21.307c-2.328 1.857-4.126 4.489-4.496 7.48-.318 2.632 1.322 4.954 3.332 6.605 5.396 4.488 11.161-.516 14.547-4.747.634-.774-.476-1.857-1.111-1.083-2.751 3.456-7.564 8.512-12.272 4.746-2.063-1.65-3.333-3.92-2.645-6.552.582-2.167 2.01-3.973 3.809-5.365.793-.62-.371-1.703-1.164-1.084Zm15.816 19.089c0-.052 0-.103-.053-.155-.106.31-.264.568-.37.877.053-.051.106-.051.159-.103-.371-.103-.741-.206-1.111-.258.74 1.135.74 3.199.952 4.489a172.6 172.6 0 0 1 .74 5.159c.318 2.94.476 5.881.582 8.873 0 .98 1.587.98 1.587 0-.106-3.611-.317-7.222-.793-10.834a56.02 56.02 0 0 0-.635-4.127c-.212-1.393-.265-3.199-1.058-4.385-.212-.361-.688-.465-1.111-.258-.053.051-.106.051-.158.103a.755.755 0 0 0-.371.877c0 .052 0 .103.053.155.318.98 1.852.567 1.587-.413ZM409.839 3.973a23.15 23.15 0 0 1 4.126 7.584c.317.928 1.851.515 1.534-.413-1.005-3.044-2.486-5.778-4.549-8.255-.582-.825-1.746.31-1.111 1.084Zm-42.688 7.945c7.247 2.012 14.547 3.766 21.952 5.21 1.005.207 1.429-1.29.424-1.496-7.406-1.444-14.706-3.198-21.953-5.21-.952-.31-1.375 1.186-.423 1.496ZM348.637 36.01a201.327 201.327 0 0 0 40.942-7.531c.953-.31.582-1.806-.423-1.497-13.224 3.87-26.766 6.398-40.519 7.43-1.005.103-1.005 1.65 0 1.599Zm50.358.775c-3.174 1.908-6.136 4.075-8.94 6.448-.793.671.371 1.755 1.111 1.084 2.698-2.27 5.607-4.334 8.622-6.191.9-.516.106-1.857-.793-1.341ZM400 53.345c-11.32 9.545-22.693 19.09-34.013 28.633-.793.671.371 1.755 1.111 1.084 11.32-9.544 22.693-19.089 34.013-28.633.793-.62-.317-1.754-1.111-1.084Zm4.285 11.763c-3.439 6.397-6.93 12.846-10.368 19.243-.476.877.899 1.651 1.375.774 3.439-6.397 6.93-12.846 10.368-19.243.476-.877-.899-1.651-1.375-.774Zm9.31 3.612c-1.746 10.06-2.804 20.223-3.227 30.438-.053.98 1.534.98 1.587 0a237.786 237.786 0 0 1 3.174-30.026c.158-.98-1.376-1.393-1.534-.413Zm47.395-49.476c13.542-1.755 25.761 6.861 32.426 17.798 7.881 12.898 8.146 28.84 7.776 43.44-.794 33.07-2.222 66.088-3.597 99.107-2.751 66.501-6.189 133.002-10.21 199.503a9928.083 9928.083 0 0 1-7.458 112.004c-.159 2.012 3.015 1.96 3.174 0a10174.43 10174.43 0 0 0 12.695-204.507c3.544-68.049 6.665-136.149 8.569-204.25.423-15.941.318-33.43-8.569-47.463-7.247-11.454-20.418-20.534-34.753-18.676-2.063.206-2.063 3.301-.053 3.044Z"/>
  <path fill="#E8E8E8" d="M458.134 18.573c3.808.103 7.617.155 11.319.98 3.862.877 6.824 2.992 10.262 4.695.9.464 1.693-.877.794-1.341-3.597-1.755-6.665-3.921-10.632-4.85-3.862-.877-7.829-.98-11.743-1.083-1.005 0-1.005 1.547 0 1.599Z"/>
  <path fill="#E8E8E8" d="M458.134 19.605a64.396 64.396 0 0 1 31.262 11.66c.846.567 1.639-.775.793-1.342-9.469-6.655-20.471-10.731-32.055-11.866-1.005-.103-1.005 1.445 0 1.548Zm-2.275-3.612c4.972.93 9.839 2.167 14.599 3.612.953.31 1.376-1.187.424-1.496a130.932 130.932 0 0 0-14.6-3.612c-1.005-.206-1.428 1.29-.423 1.496Z"/>
  <path fill="#E8E8E8" d="M457.023 15.839a93.107 93.107 0 0 1 18.09 3.817c.953.31 1.376-1.186.424-1.496a94.443 94.443 0 0 0-18.514-3.87c-1.005-.102-1.005 1.445 0 1.549Z"/>
  <path fill="#E8E8E8" d="M437.557 6.913a134.935 134.935 0 0 1 23.327 10.525c.899.516 1.693-.826.794-1.341a133.817 133.817 0 0 0-23.751-10.68c-.899-.31-1.322 1.187-.37 1.496Z"/>
  <path fill="#E8E8E8" d="M435.335 6.397c8.305 2.993 16.292 6.604 23.962 10.886.899.516 1.693-.825.794-1.341a166.499 166.499 0 0 0-24.386-11.04c-.899-.31-1.322 1.186-.37 1.495Zm12.272 38.436a193.083 193.083 0 0 0 12.537-25.693c.37-.928-1.164-1.341-1.534-.412a191.098 191.098 0 0 1-12.378 25.33c-.476.826.899 1.6 1.375.775Z"/>
  <path fill="#E8E8E8" d="M457.975 18.521a18.407 18.407 0 0 0-2.116 4.901c-.264.98 1.27 1.393 1.534.413a16.44 16.44 0 0 1 1.957-4.54c.529-.877-.846-1.65-1.375-.774ZM47.285 283.906v7.429c0 .98 1.587.98 1.587 0v-7.429c0-.98-1.587-.98-1.587 0Z"/>
  <path fill="#E8E8E8" d="M48.078 292.419H159.32c1.005 0 1.005-1.548 0-1.548H48.078c-1.005 0-1.005 1.548 0 1.548Zm.846-7.997h109.867c1.005 0 1.005-1.548 0-1.548H48.924c-1.005 0-1.005 1.548 0 1.548Z"/>
  <path fill="#E8E8E8" d="M157.945 284.216c.105 2.476.052 4.953-.265 7.429-.106.98 1.481.98 1.587 0 .317-2.476.423-4.953.264-7.429-.052-1.032-1.639-1.032-1.586 0Zm-46.867-34.773c-3.015 11.144-1.322 22.649 1.428 33.638.265.98 1.746.567 1.534-.413-2.697-10.783-4.39-21.926-1.428-32.812.265-.98-1.269-1.393-1.534-.413Zm25.232 2.064c.37 2.322.74 4.592 1.111 6.913.158.98 1.692.568 1.534-.413-.371-2.321-.741-4.591-1.111-6.913-.159-.98-1.693-.567-1.534.413Z"/>
  <path fill="#E8E8E8" d="M138.32 258.678c4.285-3.147 6.718 2.992 6.771 6.191.053 4.024-1.905 7.635-6.401 7.945-1.005.052-1.005 1.599 0 1.548 6.136-.361 8.464-5.624 7.882-10.989-.423-4.127-4.496-9.338-9.045-5.985-.847.568-.053 1.909.793 1.29Z"/>
  <path fill="#E8E8E8" d="M138.003 273.33c-.318 3.095-.9 6.088-1.64 9.131-.265.981 1.269 1.393 1.534.413a72.276 72.276 0 0 0 1.745-9.544c.053-1.032-1.534-.98-1.639 0Zm1.428-12.227c1.692-1.342 2.38 2.889 2.433 3.456.053.671-.053 1.393-.212 2.064-.423 1.599-1.322 2.889-2.591 3.921-.794.619.317 1.702 1.11 1.083 2.434-1.96 3.703-5.107 3.174-8.151-.37-2.27-2.433-5.572-5.025-3.457-.793.619.317 1.703 1.111 1.084Z"/>
  <path fill="#E8E8E8" d="M138.108 259.813c-.211 3.611-.158 7.223.106 10.886.053.98 1.64.98 1.587 0a83.175 83.175 0 0 1-.106-10.886c.053-1.032-1.534-1.032-1.587 0Zm-24.385-8.616c6.4 2.012 13.065 2.528 19.73 1.548 1.006-.155.582-1.651-.423-1.496-6.4.928-12.748.413-18.884-1.548-.952-.309-1.375 1.187-.423 1.496Zm3.65-3.921c-3.121-1.908.529-6.087 1.058-8.512.529-2.425-.899-3.612-1.852-5.675-1.375-2.992 1.799-5.211 2.275-8.1.423-2.528-1.693-4.643 1.164-6.707.793-.567.053-1.909-.794-1.341-1.745 1.238-2.803 3.147-2.433 5.314.265 1.599.688 2.424-.106 4.075-.37.826-.899 1.548-1.322 2.374-.529 1.135-1.005 2.321-.847 3.611.106 1.29.794 1.857 1.429 2.889 1.851 3.044.158 4.592-.9 7.481-.793 2.167-.581 4.54 1.534 5.83.847.619 1.64-.723.794-1.239Zm9.416-36.99c-.794 2.012-1.799 4.282-1.958 6.449-.158 1.96 1.323 3.043 1.799 4.798.582 2.115-1.481 3.869-1.693 5.932-.264 2.683 2.169 4.437-.211 7.017-.688.722.423 1.857 1.11 1.083 1.217-1.289 1.852-2.837 1.64-4.591-.159-1.29-1.111-2.373-.899-3.766.159-1.084 1.005-2.064 1.375-3.096.635-1.651.371-2.941-.476-4.437-1.693-3.095-.317-5.933.847-8.977.37-.928-1.164-1.341-1.534-.412Zm7.828 15.374c-2.486 2.528-3.65 5.984-2.962 9.492.212 1.135.793 2.27.846 3.457.106 1.496-.846 2.218-1.269 3.508-.582 1.651 1.481 4.024.211 5.314-.687.722.424 1.806 1.111 1.083.794-.825 1.005-1.754.794-2.889-.212-1.238-.952-2.115-.423-3.405.317-.774.952-1.186 1.163-2.063.423-1.961-.635-3.818-.952-5.727-.476-2.837.582-5.623 2.592-7.687.741-.722-.423-1.806-1.111-1.083Zm-77.758 57.214a56.402 56.402 0 0 1-.159-5.984l-.793.774c8.516-.826 17.086-1.239 25.655-1.342 4.126-.051 8.252 0 12.325.155 1.005.052 2.063.052 3.068.103.687.052 2.433-.206 3.068.155 1.534.877.899 5.623.952 7.119.053.981 1.64.981 1.587 0-.053-2.115.317-4.901-.265-6.913-.264-.877-.582-1.341-1.534-1.702-1.904-.671-4.92-.31-6.93-.361-2.38-.104-4.813-.155-7.193-.155a292.125 292.125 0 0 0-30.786 1.341c-.423.052-.794.31-.794.774a37.718 37.718 0 0 0 .16 5.985c.105 1.031 1.692 1.031 1.639.051Z"/>
  <path fill="#E8E8E8" d="M70.083 275.445c0-.928-.37-2.889.053-3.714.688-1.497 3.544-1.084 4.92-1.135 3.015-.104 5.977-.258 8.992-.362 2.803-.103 5.607-.206 8.463-.309 1.799-.052 3.809-.568 4.55 1.393.423 1.135.264 2.889.37 4.076.106.98 1.693.98 1.587 0-.212-2.064.423-6.398-2.328-7.12-1.534-.413-3.65.052-5.29.103-2.486.103-4.919.207-7.405.31-4.338.154-9.098-.207-13.33.567-3.015.516-2.169 3.973-2.222 6.191.053.98 1.64.98 1.64 0Z"/>
  <path fill="#E8E8E8" d="M87.328 276.425c.899 2.374 1.216 4.747.899 7.223-.106.98 1.48.98 1.587 0 .37-2.631.053-5.159-.952-7.635-.37-.929-1.905-.516-1.534.412Z"/>
  <path fill="#E8E8E8" d="M87.433 269.718c.952 2.116 1.164 4.334.74 6.604-.21.98 1.323 1.393 1.535.413.529-2.683.212-5.262-.9-7.79-.423-.929-1.745-.155-1.375.773Zm5.977-.464c.37 1.858.741 3.766.953 5.624.106.98 1.692.98 1.587 0-.265-2.012-.582-4.076-1.005-6.037-.212-.98-1.746-.567-1.534.413Zm2.698 7.429c.794 2.064.953 4.128.476 6.243-.211.98 1.27 1.393 1.534.412a11.542 11.542 0 0 0-.476-7.067c-.37-.929-1.904-.516-1.534.412Zm-57.34-132.95c0 2.115.106 4.23.265 6.294.106.98 1.692.98 1.587 0-.212-2.115-.318-4.179-.265-6.294 0-.98-1.587-.98-1.587 0Z"/>
  <path fill="#E8E8E8" d="M40.25 151.73h114.362c1.005 0 1.005-1.548 0-1.548H40.249c-1.005 0-1.005 1.548 0 1.548Zm-.212-7.43H154.4c1.005 0 1.005-1.547 0-1.547H40.038c-1.058 0-1.058 1.547 0 1.547Z"/>
  <path fill="#E8E8E8" d="M154.083 143.733v7.223c0 .98 1.587.98 1.587 0v-7.223c0-.98-1.587-.98-1.587 0ZM44.587 121.446c1.746 7.222 3.491 14.445 5.343 21.616.264.981 1.798.568 1.534-.412-1.852-7.172-3.597-14.394-5.343-21.617-.212-.98-1.746-.568-1.534.413Z"/>
  <path fill="#E8E8E8" d="M45.328 121.343c3.914-.104 7.775-.258 11.637-.516 1.851-.104 3.702-.258 5.554-.413 2.116-.206 4.443-.671 6.453.258.9.413 1.746-.929.794-1.342-3.28-1.547-7.353-.464-10.844-.206-4.55.31-9.098.568-13.7.671-.953 0-.953 1.548.105 1.548Z"/>
  <path fill="#E8E8E8" d="M68.443 120.104c-.634 7.636-2.01 15.168-4.02 22.597-.264.98 1.27 1.393 1.534.413a125.673 125.673 0 0 0 4.073-23.01c.053-.98-1.534-.98-1.587 0Zm-18.302-.619c-3.068-3.56-5.501-7.223-7.035-11.659-1.323-3.767-2.063-7.688-2.804-11.608l-.952.928c9.733 3.25 14.6 12.485 16.504 21.772.212.98 1.746.567 1.534-.413-2.01-9.854-7.353-19.398-17.615-22.803-.634-.207-1.058.412-.952.928.847 4.489 1.693 8.977 3.386 13.208 1.587 3.972 4.02 7.429 6.823 10.679.635.825 1.746-.258 1.111-1.032Z"/>
  <path fill="#E8E8E8" d="M54.849 109.683c-1.375-4.798 3.227-8.306 5.872-11.711 2.539-3.25 4.602-6.81 6.294-10.576-.476-.052-.952-.104-1.428-.207 2.592 10.37 5.078 22.803-3.174 31.471-.688.722.423 1.805 1.111 1.083 8.622-9.131 6.295-22.03 3.544-32.966-.159-.62-1.164-.826-1.428-.207-2.116 4.85-4.972 9.183-8.464 13.207-2.592 2.941-4.972 6.243-3.808 10.319.211.928 1.745.567 1.48-.413Zm37.239 33.379v-8.77c0-.98-1.587-.98-1.587 0v8.77c0 1.032 1.587 1.032 1.587 0Z"/>
  <path fill="#E8E8E8" d="M91.295 134.859h57.551c1.005 0 1.005-1.547 0-1.547H91.295c-1.005 0-1.005 1.547 0 1.547Z"/>
  <path fill="#E8E8E8" d="M148.265 134.756v8.564c0 .98 1.586.98 1.586 0v-8.564c0-1.032-1.586-1.032-1.586 0Zm-45.545-.929v-5.159c0-.98-1.586-.98-1.586 0v5.159c0 1.032 1.586 1.032 1.586 0Z"/>
  <path fill="#E8E8E8" d="M101.927 128.772h45.28c1.005 0 1.005-1.548 0-1.548h-45.28c-1.005 0-1.005 1.548 0 1.548Z"/>
  <path fill="#E8E8E8" d="M146.678 127.998v5.881c0 .98 1.587.98 1.587 0v-5.881c0-1.032-1.587-1.032-1.587 0Zm-31.685-.671v-8.1c0-.98-1.587-.98-1.587 0v8.1c0 .98 1.587.98 1.587 0Z"/>
  <path fill="#E8E8E8" d="M114.887 119.537h30.257c1.005 0 1.005-1.548 0-1.548h-30.257c-1.005 0-1.005 1.548 0 1.548Z"/>
  <path fill="#E8E8E8" d="M144.826 118.505v8.77c0 .981 1.587.981 1.587 0v-8.77c0-.98-1.587-.98-1.587 0Zm-10.579.671c.741 2.786.899 5.52.635 8.357-.106.981 1.481.981 1.587 0 .317-2.992.105-5.881-.688-8.77-.265-.98-1.799-.568-1.534.413Zm4.761.464c.264 2.27.37 4.488.264 6.758-.053.981 1.534.981 1.587 0 .106-2.27.053-4.488-.264-6.758-.106-.98-1.693-.98-1.587 0Zm-6.454 8.77c.265 1.703.212 3.457 0 5.211-.106.98 1.481.98 1.587 0 .265-1.857.212-3.714-.053-5.623-.158-.98-1.692-.568-1.534.412Zm4.02-.258c.318 1.393.212 2.735-.264 4.128-.318.928 1.216 1.341 1.534.413.582-1.6.635-3.251.264-4.953-.211-.929-1.745-.516-1.534.412Zm-11.954 5.934c.317 3.095.37 6.139.158 9.234-.053.981 1.534.981 1.587 0a53.851 53.851 0 0 0-.158-9.234c-.106-.981-1.693-.981-1.587 0Zm16.292.206c.37 2.889.37 5.726-.106 8.616-.159.98 1.375 1.392 1.534.412.476-2.992.582-5.984.159-9.028-.106-.98-1.693-.98-1.587 0Zm57.287-85.074v26.93c0 .98 1.587.98 1.587 0v-26.93c0-1.032-1.587-1.032-1.587 0Z"/>
  <path fill="#E8E8E8" d="M175.982 77.284h43.693c1.005 0 1.005-1.548 0-1.548h-43.693c-1.005 0-1.005 1.548 0 1.548Z"/>
  <path fill="#E8E8E8" d="M212.005 77.593v26.518c0 .98 1.587.98 1.587 0V77.593c0-.98-1.587-.98-1.587 0Z"/>
  <path fill="#161616" stroke="#161616" stroke-width="3" d="M446.919 483.202c-1.375 2.219.582 4.798 5.078 14.497 6.877 14.807 6.56 18.212 5.449 20.482-1.852 3.715-5.819 4.179-5.449 5.985.529 2.631 9.257 4.643 12.325 1.393 1.376-1.445 1.164-3.457.741-7.429-1.904-16.458-2.275-17.645-2.909-22.649-1.111-8.874-.529-11.144-2.91-13.104-3.544-2.734-10.42-2.167-12.325.825Zm82.308-2.27c3.967-2.734 10.896.155 14.493 3.56 3.015 2.786 2.328 4.643 5.819 7.068.793.568 4.443 3.096 9.045 2.838 3.544-.207 4.232-1.909 6.877-1.393 1.851.309 2.645 1.341 6.189 4.591 5.554 5.159 7.617 6.346 7.247 7.068-.371.671-2.116.31-9.786-.722-5.607-.774-8.517-1.135-10.527-1.238-4.602-.207-4.813.361-11.584.516-6.982.206-10.526.206-13.066-1.084-5.659-2.889-7.141-9.286-7.246-9.905-.159-.826-1.693-8.41 2.539-11.299Z"/>
  <path fill="#161616" stroke="#161616" stroke-width="3" d="M452.368 461.276c3.438.103 4.919 4.024 7.987 7.429 7.988 8.977 21.899 9.287 33.325 9.545 21.582.464 27.401-7.533 37.715-2.116 5.66 2.993 11.003 9.132 10.897 15.89-.159 8.822-9.627 15.065-16.292 17.335-5.924 2.012-9.151.774-25.39-2.115-26.131-4.695-31.315-3.973-41.313-9.545-5.713-3.198-10.844-7.274-14.123-13.413-1.376-2.58-3.544-6.862-2.539-12.021 1.005-5.417 5.448-11.144 9.733-10.989Z"/>
  <path fill="#161616" stroke="#161616" stroke-width="3" d="M528.486 476.496c1.111-1.497 5.501 2.27 10.156.361 3.968-1.651 5.766-6.449 6.877-9.545 2.063-5.52.688-7.48 2.909-9.544 2.116-2.012 3.967-.722 10.156-2.476 4.179-1.187 7.565-2.116 9.416-4.953 1.481-2.27.423-3.405 1.428-9.183.318-1.754 1.534-8.771 3.28-8.822 1.269-.052 2.803 3.663 2.909 7.068.053 1.392-.159 2.373-2.169 8.822-1.269 4.024-1.904 6.036-2.168 6.345-2.592 3.147-6.031 1.6-12.696 4.592-3.226 1.444-6.347 2.837-7.987 5.984-1.481 2.89-.212 4.179-1.799 8.461-1.481 3.921-3.861 6.243-4.337 6.707-1.746 1.703-5.29 5.056-9.416 4.231-4.655-.826-7.67-6.552-6.559-8.048Zm-12.325 24.402c-.635 1.238-2.433 4.798-1.798 9.183.635 4.489 3.491 8.358 5.448 10.938 2.698 3.663 4.285 4.436 3.967 5.984-.582 3.405-8.41 3.663-8.357 5.314.105 1.651 8.04 2.476 14.123 2.115 4.549-.258 5.607-1.032 6.189-1.754 1.27-1.754-.159-3.818-.741-8.461-.423-3.302-.105-5.623.371-9.544.793-6.449 2.063-6.862 2.539-11.66.37-3.818 1.005-10.163-2.169-12.382-4.338-2.992-15.393 2.219-19.572 10.267Zm-107.645-32.554c.847 4.179 5.502 6.81 12.325 9.544 7.247 2.941 27.771 11.196 31.527 5.675.952-1.393.634-3.353 0-4.591-1.587-2.941-5.925-2.631-13.436-3.869-6.559-1.084-12.642-2.064-18.831-5.314-5.713-2.941-9.098-6.501-10.897-5.314-1.27.877-.741 3.611-.688 3.869Z"/>
  <path fill="#161616" d="M400.264 450.132a33.249 33.249 0 0 0 6.031 7.275c.74.67 1.851-.413 1.111-1.084a31.863 31.863 0 0 1-5.766-6.965c-.529-.877-1.904-.103-1.376.774Zm-6.823 3.87c1.64 1.96 3.755 3.353 6.136 4.179.952.361 1.375-1.135.423-1.497a12.546 12.546 0 0 1-5.448-3.766c-.635-.774-1.746.31-1.111 1.084Zm.264 10.163c1.481.155 2.963.258 4.497.413 1.005.103 1.005-1.445 0-1.548-1.482-.155-2.963-.258-4.497-.413-1.005-.103-1.005 1.445 0 1.548Z"/>
  <path fill="#161616" stroke="#161616" stroke-width="3" d="M437.133 453.847c-1.851.722-4.76 2.064-7.617 4.592-2.433 2.167-4.76 4.23-5.078 7.068-.582 5.159 5.872 10.06 10.897 12.02.899.362 11.531 4.282 17.403-1.754 3.967-4.127 3.068-10.008 2.909-10.937-1.216-7.687-8.304-11.298-9.045-11.66-1.798-2.373-3.65-4.694-5.448-7.068-1.323 2.58-2.645 5.16-4.021 7.739Z"/>
  <path fill="#fff" d="M432.214 460.812a5.523 5.523 0 0 0 5.343 3.663c1.005-.052 1.005-1.599 0-1.548-1.693.052-3.28-.98-3.809-2.528-.37-.928-1.904-.516-1.534.413Zm-7.723 3.663c.476 0 .688.155.741.516-.159.154-.265.361-.423.516-.318.103-.371-.052-.477-.155-.052-.052 0-.103-.052-.052-.053.052-.053.207-.106.31.317-.155.635-.361.952-.516.053.051.053.051 0 0 .053 0 .053.051.053.051.053.052 0 .052 0-.051.053.051.053.051 0 0-.053-.413-.582-.619-.952-.516-.423.103-.635.516-.529.929.106.515.529.928 1.058 1.083.423.155.793-.155.952-.516.211-.464.264-.98 0-1.393-.265-.464-.847-.722-1.376-.567-.528.154-.793.722-.687 1.238.159.516.687.877 1.216.722.424-.103.688-.516.529-.929-.052-.515-.476-.773-.899-.67Z"/>
  <path fill="#fff" d="M424.174 465.816c.793 2.631 3.967 3.921 6.4 2.683.9-.464.106-1.806-.793-1.341-1.587.773-3.597-.155-4.073-1.754-.265-.981-1.799-.568-1.534.412Z"/>
  <path fill="#5222D0" d="M67.597 422.273c1.164.207 2.856.516 4.972.774 10.103 1.445 17.297 1.393 26.184 1.496 5.343.052 13.224.207 23.116.568 10.526-.722 21.106-1.445 31.632-2.218-14.546-1.445-29.093-2.941-43.64-4.386a11021.268 11021.268 0 0 0-42.264 3.766ZM98.7 454.312l9.046 1.857c10.473-.619 21.952-2.167 34.065-5.262a116.436 116.436 0 0 0 6.771-1.858c-16.61 1.754-33.219 3.509-49.882 5.263Zm-30.416 40.705.16 13.052c24.438 3.044 48.929 6.088 73.367 9.132v-13.052c14.97-6.501 29.887-13.001 44.856-19.502l-12.536-1.857c-.476.722-.952 1.444-1.375 2.218-18.144 5.469-36.288 10.989-54.431 16.458a16473.592 16473.592 0 0 0-50.04-6.449Z"/>
  <path fill="#EC615B" d="M41.096 436.048c18.302 2.167 36.657 4.334 54.96 6.501 20.418-1.393 40.836-2.838 61.254-4.231-4.444-1.393-8.887-2.734-13.33-4.127-9.204.671-18.461 1.341-27.665 2.012-17.403-1.187-34.753-2.425-52.156-3.611-7.67 1.135-15.393 2.27-23.063 3.456Zm68.712 31.626c5.66.825 11.373 1.65 17.033 2.476 15.658-3.973 31.262-7.894 46.92-11.866-5.184-.774-10.315-1.496-15.499-2.27-16.187 3.921-32.32 7.79-48.454 11.66Zm-65.115 13.104c24.12 3.353 48.189 6.758 72.309 10.112a419.616 419.616 0 0 0 23.328-5.521c11.108-2.94 21.423-6.191 30.997-9.492l-10.791-1.858c-11.267 3.044-22.534 6.088-33.853 9.132-19.995-2.683-39.99-5.314-59.985-7.997-7.3 1.909-14.653 3.766-22.005 5.624Z"/>
  <path fill="#161616" d="M64.264 423.77v9.338c0 .98 1.587.98 1.587 0v-9.338c0-.981-1.587-.981-1.587 0Z"/>
  <path fill="#161616" d="M65.322 424.079c18.726.619 37.504 1.187 56.23 1.806 1.005.051 1.005-1.496 0-1.548-18.726-.619-37.504-1.187-56.23-1.806-1.058-.051-1.058 1.496 0 1.548Zm0 10.215a935.6 935.6 0 0 1 51.046 2.322c1.005.051 1.005-1.496 0-1.548a1051.889 1051.889 0 0 0-51.046-2.322c-1.058 0-1.058 1.548 0 1.548Z"/>
  <path fill="#161616" d="M122.081 426.091c10.843-.928 21.74-1.548 32.584-1.909 1.005-.051 1.005-1.599 0-1.547-10.897.309-21.741.98-32.584 1.908-1.005.052-1.058 1.6 0 1.548Zm-5.449 10.576c12.748-1.238 25.549-2.424 38.297-3.663 1.005-.103 1.005-1.651 0-1.547-12.748 1.238-25.549 2.424-38.297 3.663-1.005.103-1.005 1.65 0 1.547Z"/>
  <path fill="#161616" d="M121.287 425.885c-.37.567-.635 1.135-.74 1.805-.159 1.135.317 2.012-.265 3.147-.688 1.445-1.111 2.58-.846 4.179.158.981 1.692.568 1.534-.412-.265-1.703.634-2.477 1.163-3.87.476-1.444-.423-2.682.529-4.075.529-.826-.846-1.651-1.375-.774Zm-55.753-2.27c14.282-1.909 28.617-3.25 43.058-4.128 1.005-.051 1.005-1.599 0-1.547a608.842 608.842 0 0 0-43.428 4.179c-1.058.154-.635 1.599.37 1.496Z"/>
  <path fill="#161616" d="M107.534 419.539a284.227 284.227 0 0 1 45.861 4.024c1.005.155 1.429-1.341.424-1.496a284.216 284.216 0 0 0-46.285-4.127c-1.005.051-1.005 1.599 0 1.599Zm-39.091 9.338c4.55 1.032 9.31-.052 13.965 0 5.184.052 10.368.619 15.552 1.238 1.005.103 1.005-1.444 0-1.547-4.814-.516-9.68-1.084-14.547-1.187-4.708-.103-9.892 1.083-14.546.052-1.005-.31-1.429 1.186-.424 1.444Zm20.947 3.353c8.094.258 16.24.619 24.333 1.084 1.005.051 1.005-1.496 0-1.548a960.896 960.896 0 0 0-24.333-1.083c-1.005-.052-1.005 1.496 0 1.547Zm13.225-2.734c4.654.361 9.362.825 14.017 1.393 1.005.103 1.005-1.445 0-1.548a314.787 314.787 0 0 0-14.017-1.393c-1.058-.103-1.005 1.445 0 1.548Zm22.586.774c3.703.516 7.3-.361 10.95-.877 4.338-.671 8.728-1.187 13.118-1.445 1.006-.051 1.006-1.599 0-1.547-3.544.206-7.088.619-10.579 1.083-4.232.568-8.728 1.909-13.012 1.341-1.058-.206-1.482 1.29-.477 1.445Zm6.665 2.683c3.28.361 6.295-.774 9.469-1.393 3.703-.774 7.511-1.084 11.267-1.135 1.005 0 1.005-1.548 0-1.548-3.28.052-6.506.309-9.733.825-3.597.619-7.3 2.167-11.003 1.754-1.005-.154-1.005 1.393 0 1.497Z"/>
  <path fill="#161616" d="M153.29 424.801c.053 2.632.105 5.211.211 7.842 0 .981 1.587.981 1.587 0-.053-2.631-.106-5.21-.211-7.842 0-1.031-1.587-1.031-1.587 0ZM39.932 436.409c.053 3.457-.053 6.914-.317 10.37-.053.98 1.534.98 1.587 0 .264-3.456.37-6.913.317-10.37-.053-1.031-1.64-1.031-1.587 0Z"/>
  <path fill="#161616" d="M40.725 448.275c18.514 2.27 37.081 4.231 55.7 5.985 1.006.103 1.006-1.445 0-1.548-18.619-1.754-37.186-3.714-55.7-5.984-1.058-.104-1.005 1.444 0 1.547Z"/>
  <path fill="#161616" d="M96.108 443.219c-.158 3.302-.37 6.552-.529 9.854-.053.98 1.534.98 1.587 0 .159-3.302.37-6.552.53-9.854.052-.98-1.535-.98-1.588 0Z"/>
  <path fill="#161616" d="M96.902 443.529c20.418-.774 40.836-2.27 61.148-4.385 1.005-.103 1.005-1.651 0-1.548-20.312 2.115-40.73 3.56-61.148 4.385-1.005.052-1.005 1.6 0 1.548Zm.264 11.144c20.154-2.322 40.36-4.334 60.62-6.14 1.005-.103 1.005-1.651 0-1.547-20.207 1.805-40.413 3.869-60.62 6.139-1.005.103-1.005 1.651 0 1.548Z"/>
  <path fill="#161616" d="M157.363 438.937c0 2.786.053 5.572.053 8.358 0 .98 1.586.98 1.586 0 0-2.786-.052-5.572-.052-8.358 0-1.031-1.587-1.031-1.587 0Zm-116.426-2.631c7.934-1.032 15.869-1.96 23.856-2.683 1.005-.103 1.005-1.65 0-1.547-8.093.722-16.186 1.651-24.28 2.734-1.004.103-.581 1.599.424 1.496Z"/>
  <path fill="#161616" d="M41.73 437.338a885.813 885.813 0 0 1 54.749 5.572c1.005.155 1.428-1.341.423-1.496-18.302-2.425-36.71-4.334-55.172-5.624-1.005-.051-1.005 1.496 0 1.548Zm101.932-2.631c4.761.877 9.469 2.063 14.071 3.611.952.31 1.375-1.186.423-1.496-4.602-1.496-9.257-2.734-14.07-3.611-1.005-.207-1.429 1.289-.424 1.496Zm-94.102 9.751c9.52-.465 18.619 2.786 28.087 2.94 1.005 0 1.005-1.547 0-1.547-9.468-.155-18.62-3.405-28.088-2.941-1.005.051-1.005 1.599 0 1.548Zm18.196-2.013c6.982 2.528 14.546.981 21.74 2.528 1.005.207 1.428-1.289.423-1.496-7.194-1.547-14.758 0-21.74-2.528-.952-.361-1.375 1.135-.423 1.496Zm32.531 6.759c17.562-3.869 35.811-4.282 53.69-5.314 1.005-.052 1.005-1.599 0-1.548-18.09 1.084-36.393 1.445-54.113 5.366-1.005.206-.582 1.702.423 1.496Z"/>
  <path fill="#161616" d="M129.645 447.914a80.056 80.056 0 0 0 18.567-1.702c1.005-.207.581-1.703-.424-1.496a79.46 79.46 0 0 1-18.143 1.65c-1.005-.051-1.005 1.497 0 1.548Zm-78.499 1.187v11.556c0 .981 1.587.981 1.587 0v-11.556c0-.98-1.587-.98-1.587 0Z"/>
  <path fill="#161616" d="M51.728 461.637c8.57 2.477 18.038 2.528 26.924 3.354 9.416.877 18.884 1.806 28.3 2.683 1.005.103 1.005-1.445 0-1.548-9.098-.877-18.196-1.703-27.295-2.58-9.045-.877-18.778-.877-27.506-3.405-.952-.258-1.375 1.239-.423 1.496Z"/>
  <path fill="#161616" d="M106.899 455.705c.053 3.559.053 7.068-.053 10.627 0 .981 1.587.981 1.587 0 .106-3.559.106-7.068.053-10.627 0-1.032-1.587-1.032-1.587 0Z"/>
  <path fill="#161616" d="M98.436 455.446c2.909.258 5.818.723 8.675 1.393 1.005.258 1.428-1.238.423-1.496a60.712 60.712 0 0 0-9.098-1.444c-1.058-.052-1.058 1.496 0 1.547Z"/>
  <path fill="#161616" d="M107.904 456.53c14.811-1.187 29.517-3.353 44.063-6.604 1.005-.206.582-1.702-.423-1.496-14.388 3.199-28.934 5.366-43.64 6.552-1.005.052-1.005 1.6 0 1.548Zm0 11.35a588.95 588.95 0 0 0 49.988-11.608c1.005-.258.581-1.754-.424-1.496-16.503 4.591-33.166 8.512-49.987 11.608-.952.206-.529 1.702.423 1.496Z"/>
  <path fill="#161616" d="M157.098 447.966c.053 2.579 0 5.159-.211 7.687-.106.98 1.481.98 1.587 0 .211-2.58.264-5.159.211-7.687 0-.98-1.587-.98-1.587 0Z"/>
  <path fill="#161616" d="M151.967 449.926c1.799 0 3.597-.258 5.343-.67 1.005-.258.582-1.754-.423-1.496a19.81 19.81 0 0 1-4.92.619c-1.005 0-1.005 1.547 0 1.547Zm-91.352 8.203c12.8 1.496 25.549 2.941 38.35 4.231 1.005.103 1.005-1.445 0-1.548-12.801-1.29-25.602-2.683-38.35-4.23-1.005-.104-1.005 1.444 0 1.547Zm-4.92-4.282c5.396.516 10.791.929 16.187 1.187 1.005.051 1.005-1.496 0-1.548a341.283 341.283 0 0 1-16.187-1.187c-1.005-.051-1.005 1.496 0 1.548Zm22.957 2.838c6.824 0 13.595.464 20.366 1.496 1.005.155 1.428-1.342.423-1.496a139.876 139.876 0 0 0-20.789-1.548c-1.005 0-1.058 1.548 0 1.548Zm31.844 5.004a565.597 565.597 0 0 0 22.746-4.024c1.005-.206.582-1.702-.423-1.496a567.689 567.689 0 0 1-22.746 4.024c-1.005.155-.582 1.651.423 1.496Zm14.388.619c9.151-2.992 18.567-5.21 28.088-6.552 1.005-.155.582-1.651-.423-1.496-9.574 1.341-18.937 3.508-28.088 6.552-.952.361-.529 1.857.423 1.496Zm23.169-7.945a37.152 37.152 0 0 1 7.882-1.444c1.005-.052 1.005-1.6 0-1.548-2.804.206-5.608.671-8.305 1.496-.952.31-.529 1.806.423 1.496Zm-84.847 9.286c-.052 3.663-.158 7.326-.211 10.989 0 .981 1.587.981 1.587 0 .053-3.663.159-7.326.211-10.989.053-.98-1.534-.98-1.587 0Z"/>
  <path fill="#161616" d="M63.947 475.67c20.524 2.683 41.101 5.366 61.625 7.997 1.005.155 1.005-1.393 0-1.548a25457.28 25457.28 0 0 0-61.625-7.997c-1.005-.154-1.005 1.393 0 1.548Zm45.227-7.481c6.136.929 12.272 1.703 18.461 2.27 1.005.104 1.005-1.444 0-1.547-6.03-.568-12.061-1.29-18.038-2.219-1.005-.154-1.428 1.342-.423 1.496Z"/>
  <path fill="#161616" d="M127.846 470.305c15.764-1.445 30.204-8.461 45.703-11.041 1.005-.155.582-1.651-.423-1.496-15.393 2.528-29.675 9.493-45.28 10.937-1.005.155-1.005 1.703 0 1.6Z"/>
  <path fill="#161616" d="M157.786 456.53a187.816 187.816 0 0 0 16.133 1.651c1.005.051 1.005-1.496 0-1.548-5.289-.31-10.526-.825-15.71-1.599-1.005-.155-1.428 1.341-.423 1.496Zm-31.791 13.62c-.159 4.024-.265 8.1-.423 12.124-.053.98 1.534.98 1.587 0 .158-4.024.264-8.1.423-12.124.053-1.032-1.534-1.032-1.587 0Z"/>
  <path fill="#161616" d="M126.418 483.718c15.816-3.714 31.421-8.099 46.867-13.104.952-.309.529-1.805-.424-1.496-15.445 5.004-31.05 9.338-46.866 13.104-1.005.207-.582 1.703.423 1.496Z"/>
  <path fill="#161616" d="M172.861 458.542c.424 3.766.529 7.532.318 11.299-.053.98 1.534.98 1.587 0a80.636 80.636 0 0 0-.318-11.299c-.106-.98-1.692-.98-1.587 0ZM68.02 471.336c-.37.052-.688.104-1.058.104a.774.774 0 0 0 0 1.547c13.436 1.393 26.766 3.509 40.149 5.572 1.005.155 1.428-1.341.423-1.496-13.489-2.115-26.977-4.23-40.572-5.623v1.547c.37-.051.688-.103 1.058-.103 1.005-.103 1.005-1.651 0-1.548Zm4.126-2.269c4.02.98 8.04 1.909 12.113 2.682 1.005.207 1.429-1.289.424-1.496a195.634 195.634 0 0 1-12.114-2.682c-.952-.207-1.375 1.289-.423 1.496Zm16.768 2.012c10.632 1.599 21.212 3.198 31.844 4.798 1.005.154 1.428-1.342.423-1.497-10.632-1.599-21.211-3.198-31.844-4.798-1.005-.103-1.428 1.393-.423 1.497Zm45.862 2.321c8.834-.206 16.821-4.385 25.496-5.675 1.005-.155.582-1.651-.423-1.496-8.517 1.29-16.345 5.417-25.073 5.623-1.005.052-1.005 1.6 0 1.548Zm-2.857 5.211c3.862-.929 7.723-1.857 11.585-2.838 1.005-.257.582-1.754-.423-1.496a957.35 957.35 0 0 0-11.585 2.838c-1.005.206-.582 1.702.423 1.496Zm26.29-6.913c4.549-1.187 9.098-2.373 13.647-3.612 1.005-.257.582-1.754-.423-1.496a1347.39 1347.39 0 0 0-13.647 3.612c-1.005.258-.582 1.754.423 1.496Zm-115.368 9.596c8.41-.877 16.716-2.58 24.756-5.16.952-.309.529-1.805-.423-1.496a122.109 122.109 0 0 1-24.333 5.108c-1.005.103-1.005 1.651 0 1.548Z"/>
  <path fill="#161616" d="M42.206 481.139c.16 3.508.37 6.965.53 10.473.052.98 1.64.98 1.586 0-.158-3.508-.37-6.965-.529-10.473-.053-.98-1.64-.98-1.587 0Z"/>
  <path fill="#161616" d="M43.635 492.644c24.438 3.147 48.823 6.294 73.262 9.389 1.005.155 1.005-1.444 0-1.547-24.439-3.147-48.824-6.294-73.262-9.39-1.005-.155-.952 1.393 0 1.548Zm-.476-10.68a2979.241 2979.241 0 0 0 70.828 8.874c1.005.103 1.005-1.444 0-1.548a2703.734 2703.734 0 0 1-70.405-8.822c-.952-.103-1.428 1.393-.423 1.496Z"/>
  <path fill="#161616" d="M116.95 502.343c18.884-5.314 37.662-10.989 56.282-17.077.952-.309.529-1.806-.423-1.496-18.673 6.036-37.398 11.763-56.283 17.077-1.005.258-.581 1.754.424 1.496Zm6.294-12.124c16.769-3.663 33.272-8.306 49.459-13.981.952-.31.529-1.806-.423-1.496-16.187 5.675-32.691 10.318-49.459 13.981-1.005.206-.582 1.702.423 1.496Z"/>
  <path fill="#161616" d="m171.751 475.774.158 8.77c0 .98 1.587.98 1.587 0l-.159-8.77c-.052-.981-1.639-.981-1.586 0Z"/>
  <path fill="#161616" d="M159.743 474.896c4.073.413 8.093.826 12.166 1.187 1.005.103 1.005-1.445 0-1.548-4.073-.412-8.093-.825-12.166-1.186-1.005-.103-1.005 1.444 0 1.547ZM48.924 489.703c11.69.671 23.275 2.064 34.806 4.076 1.005.155 1.429-1.342.424-1.496-11.638-2.064-23.38-3.405-35.23-4.128-1.058-.051-1.005 1.496 0 1.548Zm30.733-.155a737.591 737.591 0 0 1 28.036 4.592c1.005.206 1.428-1.29.423-1.496a737.548 737.548 0 0 0-28.035-4.592c-1.005-.155-1.429 1.342-.424 1.496Zm36.499 3.715c.106 2.27.265 4.54.37 6.758.053.98 1.64.98 1.587 0-.106-2.27-.264-4.54-.37-6.758-.053-.98-1.64-.98-1.587 0Zm8.834.464c7.829-1.702 15.604-3.611 23.38-5.675 1.005-.258.582-1.754-.423-1.496a513.79 513.79 0 0 1-23.38 5.675c-1.005.206-.582 1.702.423 1.496Zm-.265 2.838c2.063-.207 4.074-.516 6.031-1.084 1.005-.258.582-1.754-.423-1.496-1.852.516-3.703.826-5.608 1.032-1.005.103-1.005 1.651 0 1.548Zm28.565-8.203c4.919-1.548 9.838-3.096 14.705-4.592.952-.31.529-1.806-.423-1.496-4.92 1.548-9.839 3.095-14.706 4.591-.952.31-.529 1.806.424 1.497Zm9.521-5.417c2.116-.619 4.285-1.187 6.401-1.806 1.005-.258.581-1.754-.424-1.496-2.115.619-4.284 1.186-6.4 1.805-.952.258-.582 1.755.423 1.497Zm-95.637 12.588c.529 4.024.74 8.048.582 12.124-.053.98 1.534.98 1.587 0 .158-4.076-.053-8.1-.582-12.124-.106-.98-1.693-.98-1.587 0Z"/>
  <path fill="#161616" d="M69.131 508.74c24.438 3.096 48.824 6.14 73.262 9.235 1.005.103 1.005-1.445 0-1.548-24.438-3.095-48.824-6.139-73.262-9.234-1.005-.155-1.005 1.392 0 1.547Z"/>
  <path fill="#161616" d="M141.176 504.871c.265 4.024.476 8.1.741 12.124.053.98 1.64.98 1.587 0-.265-4.024-.476-8.1-.741-12.124-.053-.98-1.64-1.032-1.587 0Z"/>
  <path fill="#161616" d="M142.181 517.872c15.287-7.223 30.628-14.394 45.915-21.617.899-.413.105-1.754-.794-1.341-15.287 7.222-30.627 14.394-45.914 21.616-.952.465-.106 1.806.793 1.342Zm-.211-13.208a365.354 365.354 0 0 0 45.65-19.501c.899-.464.105-1.806-.794-1.341-14.599 7.429-29.728 13.878-45.279 19.346-.953.361-.529 1.858.423 1.496Z"/>
  <path fill="#161616" d="m186.191 484.544.318 11.556c.053.981 1.64.981 1.587 0l-.318-11.556c0-1.032-1.587-1.032-1.587 0Z"/>
  <path fill="#161616" d="M173.338 483.718c4.39.052 8.78.362 13.118.981 1.005.154 1.428-1.342.423-1.497-4.496-.619-8.992-.98-13.541-1.031-1.006 0-1.006 1.547 0 1.547Zm-55.542 18.78a121.25 121.25 0 0 0 16.186 1.702c1.005.052 1.005-1.496 0-1.548-5.289-.206-10.526-.722-15.763-1.651-1.005-.206-1.428 1.29-.423 1.497Zm28.829 4.488a87.16 87.16 0 0 0 16.768-5.881c.899-.413.106-1.754-.794-1.342-5.236 2.477-10.685 4.334-16.345 5.727-1.058.206-.634 1.702.371 1.496Zm.634 4.024a104.75 104.75 0 0 0 13.489-6.036c.899-.464.106-1.806-.793-1.341a99.333 99.333 0 0 1-13.119 5.881c-.952.361-.582 1.857.423 1.496Zm18.99-12.898c5.872-2.012 11.69-4.333 17.403-6.861.952-.413.106-1.754-.793-1.342a193.285 193.285 0 0 1-17.033 6.656c-.952.361-.529 1.857.423 1.547Zm2.275 3.405a111.632 111.632 0 0 0 16.557-8.667c.846-.567.052-1.857-.794-1.341-5.237 3.353-10.791 6.242-16.557 8.667-.952.413-.158 1.703.794 1.341Zm195.242-142.494a96246.539 96246.539 0 0 1 32.478 117.008c3.068 11.144 6.189 22.236 9.257 33.38.529 1.909 3.597 1.083 3.068-.826a96246.539 96246.539 0 0 1-32.478-117.008c-3.068-11.144-6.189-22.236-9.257-33.38-.529-1.909-3.597-1.083-3.068.826Zm-31.262 1.65c.476 42.924.952 85.9 1.375 128.824.106 12.123.265 24.299.37 36.423 0 2.012 3.174 2.012 3.174 0-.476-42.924-.952-85.899-1.375-128.823-.106-12.124-.265-24.3-.37-36.424 0-1.96-3.174-1.96-3.174 0Zm-44.275-5.52a8486.585 8486.585 0 0 0-27.294 126.037c-2.487 11.918-4.92 23.835-7.353 35.701-.423 1.961 2.645 2.786 3.068.826 8.622-42.099 17.509-84.145 26.766-126.14a4285.563 4285.563 0 0 1 7.934-35.598c.37-1.961-2.698-2.786-3.121-.826Z"/>
  <path fill="#161616" d="M266.224 465.661c22.905.207 45.756.723 68.607 1.6 2.063.103 2.063-2.993 0-3.096-22.851-.877-45.755-1.393-68.607-1.599-2.01 0-2.01 3.095 0 3.095Z"/>
  <path fill="#161616" d="M335.995 466.59c2.116.31 3.756-.516 5.713-1.29 2.38-.928 4.761-1.909 7.141-2.889 4.232-1.754 8.463-3.508 12.695-5.314a915.284 915.284 0 0 0 27.136-12.175c1.852-.877.212-3.508-1.587-2.683a822.707 822.707 0 0 1-24.808 11.195 908.527 908.527 0 0 1-12.59 5.314c-2.169.877-4.284 1.754-6.453 2.631-1.693.671-4.602 2.477-6.454 2.219-1.957-.258-2.856 2.734-.793 2.992Zm-15.181-105.04c-4.232 36.63-8.464 73.26-12.696 109.941-1.216 10.37-2.38 20.791-3.597 31.161-.211 1.961 2.963 1.961 3.174 0 4.232-36.63 8.464-73.259 12.695-109.941 1.217-10.369 2.381-20.791 3.597-31.161.265-1.96-2.909-1.96-3.173 0Z"/>
  <path fill="#161616" d="M312.086 448.894c25.126-.567 50.146-2.115 75.219-3.714 2.01-.104 2.063-3.251 0-3.096-25.073 1.599-50.093 3.096-75.219 3.715-2.063.051-2.063 3.147 0 3.095Z"/>
  <path fill="#161616" d="M266.806 465.507c15.816-4.489 31.05-10.576 46.338-16.561 1.851-.722 1.058-3.715-.847-2.992-15.287 5.984-30.521 12.072-46.337 16.56-1.957.516-1.111 3.509.846 2.993Z"/>
  <path fill="#fff" stroke="#161616" stroke-width="3" d="M345.305 319.607c13.594 1.754 24.861 5.417 33.483 9.028.159 9.338.265 18.625.424 27.963a138.162 138.162 0 0 1-44.381 11.04c-24.597 1.909-44.327-3.198-55.7-7.068-.476-10.473-.899-20.946-1.375-31.419 12.483-5.262 37.08-13.465 67.549-9.544Z"/>
  <path fill="#161616" d="M282.093 331.576c4.126 4.488 10.051 6.088 16.028 6.81 7.723.98 15.657 1.29 23.486 1.548 16.081.516 32.373-.361 47.66-5.727.952-.309.529-1.806-.423-1.496-14.547 5.108-29.993 6.139-45.28 5.727a389.05 389.05 0 0 1-21.899-1.239c-6.612-.567-13.753-1.65-18.408-6.706-.741-.774-1.851.361-1.164 1.083Z"/>
  <path fill="#fff" stroke="#161616" stroke-width="3" d="M274.265 153.174c-3.597.361-5.819 3.044-10.21 8.616-11.848 14.961-20.418 28.117-21.158 29.252-1.534 2.321-6.771 9.338-17.297 23.371-19.414 25.95-23.91 30.748-22.217 37.506 1.957 7.894 10.791 14.91 17.297 13.775 3.809-.671 6.083-4.024 9.522-9.647a385.219 385.219 0 0 0 16.239-29.562c15.869-10.525 26.29-21.565 32.796-29.562 13.224-16.251 12.801-23.267 12.325-26.157-1.481-9.183-10.051-18.263-17.297-17.592Z"/>
  <path fill="#3D3D3D" d="M285.373 159.674c-2.592.31-3.174 7.636-4.179 12.176-3.491 15.683-16.134 17.283-37.081 40.55-8.78 9.803-15.022 18.883-20.788 27.395a349.485 349.485 0 0 0-13.171 20.946c.529.981 1.904 3.044 4.496 4.076 3.491 1.341 6.876-.155 7.987-.671 4.179-1.909 4.92-4.849 11.796-16.199 4.391-7.275 4.338-6.501 6.242-10.164 3.491-6.758 3.227-8.77 6.242-12.175 2.645-3.044 4.549-2.889 9.68-6.759 2.645-1.96 7.3-5.468 12.484-10.473 1.534-1.444 7.723-7.532 14.229-16.922 5.131-7.377 6.347-10.885 6.929-12.846 2.116-7.119.794-11.298.371-12.485-.953-2.631-3.227-6.707-5.237-6.449Z" opacity=".09"/>
  <path fill="#3D3D3D" d="M246.917 224.886c-.688-.413-3.438 3.869-9.68 10.834-15.605 17.283-27.348 22.648-25.655 27.033 1.005 2.528 5.871 3.405 9.363 2.683 4.972-1.032 7.617-5.778 12.801-15.219 12.695-23.165 13.594-25.074 13.171-25.331Z" opacity=".18"/>
  <path fill="#161616" stroke="#161616" stroke-width="3" d="M201.161 453.28c1.481 16.096 2.91 32.193 4.391 48.289-23.01 11.247-34.013 18.366-32.902 21.41 1.322 3.715 21 1.187 58.927-7.635-.741-22.391-1.481-44.833-2.169-67.223a5372.747 5372.747 0 0 0-28.247 5.159Z"/>
  <path fill="#fff" stroke="#161616" stroke-width="3" d="M276.645 269.099c-8.093 5.83-19.466 14.033-33.008 24.042-42.634 31.522-47.977 36.32-52.685 45.142-4.655 8.667-6.242 23.268-9.468 52.52-2.222 20.069-2.381 35.546-2.275 44.368.106 9.854.635 18.263 1.164 24.764 2.486 2.167 11.902 9.751 26.184 10.009 16.874.258 27.665-9.957 29.569-11.815a330.394 330.394 0 0 1-3.809-30.696 324.594 324.594 0 0 1 .371-54.016c11.32-8.719 27.189-21.308 45.491-37.352 39.091-34.257 41.682-42.357 40.201-48.083-3.385-12.795-28.458-17.283-41.735-18.883Z"/>
  <path fill="#3D3D3D" d="M294.259 273.02c-5.66 1.857-2.644 14.343-6.453 25.951-4.337 13.258-14.335 16.818-39.091 35.185-8.04 5.933-19.519 15.064-32.637 27.653a833.424 833.424 0 0 1-2.592 73.723 913.718 913.718 0 0 1-3.438 34.36c3.491-.464 7.934-1.445 12.907-3.353a56.505 56.505 0 0 0 12.906-7.12c-1.692-9.802-3.015-20.43-3.861-31.832-1.481-20.017-.952-38.177.423-54.067 9.416-7.739 17.086-13.827 22.323-18.006 7.088-5.623 10.685-8.357 16.768-13.413 3.491-2.889 7.035-5.933 15.869-13.827 22.745-20.223 28.987-26.621 30.521-35.598.741-4.591-.211-7.068-.846-8.357-1.957-3.767-6.03-5.469-14.176-8.822-4.867-1.909-7.3-2.941-8.623-2.477Z" opacity=".12"/>
  <path fill="#3D3D3D" d="M231.947 373.159c-2.433 10.266-4.602 21.152-6.453 32.657-3.544 22.081-5.131 42.614-5.607 61.187 5.448-2.631 10.896-5.314 16.345-7.945-1.957-12.691-3.491-26.724-4.285-41.892-.793-15.942-.688-30.645 0-44.007Z" opacity=".15"/>
  <path fill="#3D3D3D" d="M313.567 281.378c-3.756-.31-7.141 8.1-9.469 13.001-5.025 10.731-18.672 24.764-45.967 52.778-6.559 6.758-15.393 15.529-26.184 25.537 2.857-2.012 6.718-4.695 11.161-7.945 10.051-7.377 16.028-12.33 35.23-28.478 0 0 6.929-5.83 35.229-34.773 1.481-1.496 5.078-5.313 5.131-10.473.106-4.333-2.328-9.389-5.131-9.647Z" opacity=".09"/>
  <path fill="#EC615B" d="M293.413 147.86c-.211 0-1.058.052-2.222.155-2.38.206-6.136.619-10.579 1.754a62.63 62.63 0 0 0-8.146 2.58c-3.015 6.036-6.824 15.374-8.252 27.188-2.063 16.819 2.063 27.653 4.867 44.42 1.904 11.505 3.491 28.169 1.322 49.27 4.549 4.127 16.398 13.774 34.489 16.251 25.549 3.56 44.327-9.854 48.189-12.743 1.163-7.12 2.274-14.343 3.385-21.668 0 0 1.64-11.041 3.227-23.165 3.755-28.22 7.617-66.243 8.093-70.989-13.595-13.414-24.862-16.509-32.69-16.767-10.156-.362-33.431 3.301-41.683 3.714Z"/>
  <path fill="#3D3D3D" d="M313.408 159.056a64.17 64.17 0 0 1 9.945 13.052c16.292 28.169 6.189 61.032 1.692 75.633-3.121 10.215-9.045 25.228-20.788 41.376 4.496.774 10.103 1.186 16.504.567 15.287-1.496 26.342-8.409 31.896-12.485a2452.648 2452.648 0 0 0 10.527-75.632c1.64-13.311 3.121-26.415 4.549-39.468-2.38-2.889-6.295-7.068-12.166-10.627-4.655-2.838-11.373-6.965-19.731-6.552-13.118.722-21.211 12.381-22.428 14.136Z" opacity=".17"/>
  <path fill="#fff" stroke="#191919" stroke-width="2" d="M193.385 188.153h1.64c.159-.568.318-1.187.476-1.754a989.138 989.138 0 0 0 3.015 6.036c5.819 11.505 6.983 13.414 8.041 16.87a53.058 53.058 0 0 1 2.168 12.124 56.216 56.216 0 0 1 4.391-2.631c10.262-5.469 18.831-5.52 26.554-6.862 5.766-1.032 13.859-3.302 23.327-8.822-.581.774-1.163 1.6-1.745 2.373.899.31 1.851.671 2.75.981.529.67 1.217 1.754 1.799 3.147 3.068 7.377-1.481 15.477-5.872 22.906-17.932 30.748-19.783 32.348-23.01 33.896-1.322.67-14.652 7.016-24.121 1.135-1.957-1.187-5.501-4.025-10.05-24.094-3.121-13.671-3.491-21.307-6.453-39.26-1.164-6.81-2.222-12.382-2.91-16.045Z"/>
  <path fill="#191919" d="M196.401 190.99c4.496 9.39 8.939 18.934 10.314 29.252.053.258.424.258.424 0-1.376-10.421-5.819-20.017-10.368-29.458-.159-.207-.476-.052-.37.206Z"/>
  <path fill="#191919" d="M194.655 189.339c2.645 5.469 4.814 11.092 6.612 16.871.053.258.476.154.37-.104a123.136 123.136 0 0 0-6.665-16.973c-.053-.206-.423-.052-.317.206Zm7.247 16.561c1.745 4.643 2.909 9.441 3.597 14.342.053.258.423.258.423 0-.688-4.952-1.851-9.75-3.597-14.445-.106-.258-.476-.155-.423.103Zm-4.549-7.377a163.456 163.456 0 0 1 6.294 17.902c.053.258.476.154.371-.104a163.819 163.819 0 0 0-6.295-17.902c-.106-.206-.476-.103-.37.104Zm12.272 24.196c6.612-4.282 14.017-7.068 21.899-8.152.264-.051.159-.412-.106-.361-7.934 1.084-15.34 3.87-22.005 8.152-.159.154 0 .516.212.361Z"/>
  <path fill="#191919" d="M212.957 222.048c6.877-4.075 14.653-5.623 22.376-7.326 8.199-1.805 16.186-4.23 23.962-7.326.211-.103.106-.464-.106-.361-8.04 3.25-16.345 5.675-24.862 7.532-7.458 1.651-14.969 3.251-21.581 7.172-.212.103 0 .464.211.309Z"/>
  <path fill="#191919" d="M211.688 223.906c8.146-3.767 16.451-6.088 25.179-8.152 8.569-2.064 16.874-5.262 25.231-8.048.265-.103.159-.464-.106-.361-8.622 2.889-17.244 6.242-26.131 8.254-8.41 1.961-16.503 4.386-24.385 7.997-.264.052-.053.413.212.31Z"/>
  <path fill="#fff" stroke="#191919" stroke-width="2" d="M193.068 188.05c3.861 11.917 7.776 23.783 11.637 35.701l5.713 1.857c18.091-5.83 36.129-11.608 54.219-17.438.635.516 1.27 1.032 1.905 1.599 2.063 24.506 4.178 48.96 6.241 73.466-.74.465-1.428.877-2.168 1.342-18.356 2.734-36.658 5.468-55.013 8.203-2.645-.62-5.237-1.239-7.882-1.858-2.327-10.06-4.707-20.069-7.035-30.129l-10.315-71.35c.9-.516 1.799-.981 2.698-1.393Z"/>
  <path fill="#191919" d="M203.859 224.06c.846 22.339 2.486 44.73 3.756 67.069.053.722 1.216.722 1.216 0-1.269-22.339-2.909-44.678-3.755-67.069-.053-.774-1.27-.774-1.217 0Zm5.501 1.393c.741 6.346 1.058 12.692 1.058 19.089 0 .722 1.164.722 1.217 0 0-6.397-.318-12.743-1.058-19.089-.159-.722-1.323-.722-1.217 0Z"/>
  <path fill="#6C6D6D" d="M242.262 215.909c.212 5.159.053 16.715-6.718 29.149-7.194 13.207-17.72 20.017-22.269 22.597-.212-4.231-.476-8.461-.688-12.64-1.799 2.941-3.544 5.881-5.343 8.822.371 9.183.794 18.366 1.164 27.601 2.539.516 5.078 1.032 7.67 1.6 17.826-2.786 35.705-5.572 53.532-8.358.952-.361 1.851-.774 2.803-1.135-2.01-24.816-4.02-49.579-6.03-74.395a4259.334 4259.334 0 0 0-24.121 6.759Z" opacity=".16"/>
  <path fill="#6C6D6D" d="M209.625 225.969c-.371 0-.794 9.544-.529 19.914.317 14.755 1.745 21.204 1.322 35.289a210.91 210.91 0 0 1-.635 10.782c1.958.258 3.968.516 5.925.774-.37-2.528-.899-6.191-1.428-10.576-4.179-32.812-4.073-56.183-4.655-56.183Z" opacity=".1"/>
  <path fill="#191919" d="M223.854 228.858a331.533 331.533 0 0 0 37.133-10.834c.953-.361.529-1.857-.423-1.496a355.04 355.04 0 0 1-37.133 10.834c-.952.258-.529 1.754.423 1.496Z"/>
  <path fill="#fff" d="M195.29 230.406c-.582.206-.529 1.238-1.005 6.036-.318 3.25-.424 3.302-.318 4.076.265 2.166 1.058 2.579 1.323 5.056.158 1.599-.159 1.805.105 3.147a8.925 8.925 0 0 0 1.64 3.663c0 .515.106 1.393.529 2.27.847 1.599 2.804 2.992 3.862 2.476.582-.258.74-1.341 1.005-3.457.264-1.96.106-2.063.317-4.333.212-1.858.37-2.219.212-3.147-.159-1.135-.582-1.496-1.005-2.683-.582-1.651-.318-2.27-.688-3.973-.529-2.837-1.904-4.849-2.645-5.933-.74-1.135-2.327-3.508-3.332-3.198Z"/>
  <path fill="#191919" d="M194.919 229.942c-2.856 6.036 0 12.794 6.454 15.013.74.258 1.058-.877.317-1.135-5.713-1.961-8.252-7.945-5.713-13.311.265-.671-.74-1.238-1.058-.567Z"/>
  <path fill="#191919" d="M195.131 230.87c3.809 3.457 6.03 7.997 6.348 13.053.053.722 1.216.722 1.216 0-.317-5.366-2.645-10.215-6.718-13.878-.582-.516-1.428.309-.846.825Zm-1.587 6.294c-1.375 6.037 2.275 11.763 8.569 13.053.741.155 1.058-.98.318-1.135-5.607-1.135-8.993-6.139-7.723-11.66.159-.722-1.005-1.032-1.164-.258Z"/>
  <path fill="#191919" d="M194.708 244.748c-1.111 4.592 1.745 8.977 6.506 9.854.741.155 1.058-.98.318-1.135-4.126-.722-6.665-4.385-5.713-8.409.211-.722-.9-1.032-1.111-.31Z"/>
  <path fill="#191919" d="M196.242 252.126c-.212 2.218 1.111 4.436 3.227 5.262.899.361 2.062.413 2.75-.361.741-.826.423-2.064 0-2.941-.264-.671-1.428-.361-1.164.31.265.567.794 1.702-.052 2.063-.635.258-1.64-.361-2.116-.722-1.111-.877-1.64-2.218-1.481-3.611.105-.774-1.111-.723-1.164 0Z"/>
  <path fill="#191919" d="M201.69 254.55c1.164 0 1.64-1.135 1.799-2.115a4.947 4.947 0 0 0-.635-3.456c-.37-.671-1.428-.052-1.005.567.37.619.582 1.29.582 1.961 0 .361-.106 1.857-.741 1.857-.74 0-.74 1.186 0 1.186Z"/>
  <path fill="#191919" d="M203.171 249.804c.741-.67.741-1.96.582-2.889-.159-1.186-.688-2.218-1.534-3.095-.529-.568-1.375.258-.846.825.529.568.952 1.238 1.111 2.064.105.567.264 1.805-.212 2.27-.529.516.317 1.341.899.825Z"/>
  <path fill="#161616" stroke="#161616" stroke-width="3" d="M258.237 415.979c1.957 11.557 3.861 23.165 5.818 34.721-21.74 15.065-31.843 23.938-30.309 26.724 1.798 3.251 19.571-1.96 53.319-15.632a20274.055 20274.055 0 0 0-3.702-56.595c-8.358 3.611-16.769 7.171-25.126 10.782Z"/>
  <path fill="#fff" stroke="#161616" stroke-width="3" d="M353.345 276.374c.846 6.861 1.164 17.85-3.015 30.232-1.799 5.262-4.814 13.878-12.748 21.978-5.078 5.159-13.965 14.239-26.925 13.878-10.473-.31-17.879-6.552-20.576-9.08a313.598 313.598 0 0 0-1.005 31.522 314.425 314.425 0 0 0 4.39 46.845c-6.348 11.453-18.514 18.521-31.368 18.16-16.504-.464-25.866-12.898-26.924-14.343-3.809-34.927-4.126-63.973-3.438-85.538.581-17.592 1.851-32.141 12.748-43.955 10.632-11.557 24.702-14.188 28.405-14.807 27.083-4.695 47.554 13.93 49.988 16.251 3.914.258 11.584.155 19.836-3.714a39.704 39.704 0 0 0 10.632-7.429Z"/>
  <path fill="#161616" d="M290.927 318.369c-1.481 6.449-2.275 13.001-2.433 19.604 0 .981 1.587.981 1.587 0 .158-6.5.899-12.897 2.327-19.191.265-.981-1.269-1.393-1.481-.413Z"/>
  <path fill="#161616" d="M291.297 326.623c.741-1.599 1.428-3.198 2.169-4.849.423-.929-.952-1.703-1.375-.774-.741 1.599-1.429 3.199-2.169 4.85-.423.877.952 1.651 1.375.773Zm29.622-39.88c3.544 3.302 5.978 8.049 8.623 12.073.529.825 1.904.051 1.375-.774-2.751-4.127-5.237-8.925-8.887-12.382-.74-.722-1.851.361-1.111 1.083Z"/>
  <path fill="#3D3D3D" d="M336.471 285.66a68.294 68.294 0 0 1-.317 9.957c-1.005 9.545-1.852 17.644-7.247 21.153-6.295 4.127-15.869.206-19.413-1.29-12.272-5.056-13.701-13.517-20.736-14.136-8.305-.722-16.927 10.112-21.053 18.624-10.209 20.895 1.376 37.249 2.645 74.756.476 15.064-.899 27.24-1.957 34.669a32.854 32.854 0 0 0 10.209-2.889c8.94-4.179 13.436-11.35 15.128-14.446-.37-2.837-.899-7.222-1.639-12.536-1.799-12.95-2.381-14.343-2.963-19.914-.264-2.528-.476-5.366 0-23.732.159-5.417.318-12.898.635-21.823a52.089 52.089 0 0 0 5.925 3.508c1.745.877 7.881 4.024 13.488 4.798 8.94 1.238 16.557-3.663 20.418-6.088 10.527-6.758 15.076-16.251 18.091-22.803 6.718-14.497 6.93-28.117 6.242-36.578-1.851 1.96-5.29 5.107-10.526 7.068a27.05 27.05 0 0 1-6.93 1.702Z" opacity=".09"/>
  <path fill="#3D3D3D" d="M351.917 287.569c-1.217-.413-4.867 6.552-5.29 7.377-3.438 6.656-3.332 10.938-4.602 15.065-2.486 8.255-10.526 16.561-18.725 18.624-13.806 3.457-25.391-11.453-31.58-6.758-2.909 2.218-2.75 7.274-1.639 10.267 3.173 8.615 17.561 9.234 19.413 9.286 12.536.413 21.74-7.171 24.65-9.648 18.619-15.683 19.995-43.439 17.773-44.213Z" opacity=".11"/>
  <path fill="#3D3D3D" d="M291.033 321.258c-.899-.155-3.703 8.512-5.607 17.025-3.862 17.335-3.386 30.697-3.28 37.197.159 12.072-.899 29.356-6.242 51.333a24.371 24.371 0 0 0 8.887-4.179c5.184-3.869 7.405-8.718 8.199-10.885a1317.61 1317.61 0 0 1-2.328-28.221c-1.269-17.695-1.904-26.724-1.639-34.978.582-16.458 3.015-27.086 2.01-27.292Z" opacity=".11"/>
  <path fill="#fff" stroke="#161616" stroke-width="3" d="M267.229 236.855c.476-1.342 3.65-1.342 4.497-1.342 3.702 0 6.665 2.374 7.617 4.386.264.567.317 1.031.317 1.289.106 1.393-.741 2.786-1.481 3.251-2.751 1.702-11.902-4.953-10.95-7.584Z"/>
  <path fill="#fff" stroke="#161616" stroke-width="3" d="M363.713 157.404c8.41 5.056 7.405 19.347 6.136 37.249-1.428 19.76-6.295 33.638-8.146 38.694-3.28 8.718-6.93 15.786-9.945 20.842-10.897 4.54-28.247 9.906-49.723 8.977-7.776-.361-14.705-1.444-20.682-2.837-7.141 4.798-12.907 4.746-15.393 4.488-3.862-.361-8.94-2.064-8.887-3.714 0-1.135 2.486-2.064 3.597-2.477 2.698-1.032 5.078-.928 5.078-1.032 0-.103-1.957 0-4.02-.206-1.375-.155-4.073-.361-6.401-1.548-.846-.412-5.025-2.425-5.818-6.345-.741-3.56 1.481-7.584 5.554-9.958 3.756-.98 10.368-2.166 18.355-.773 5.925 1.031 10.474 3.095 13.489 4.694 14.229-3.405 28.458-6.861 42.635-10.266.264-2.889.74-7.12 1.322-12.331 1.851-16.457 2.751-24.712 4.179-31.676 3.491-17.129 5.766-28.324 14.652-32.245 3.967-1.702 9.733-2.115 14.018.464Z"/>
  <path fill="#3D3D3D" d="M355.408 156.218c1.746 10.576 3.333 26.208 1.904 44.987-1.587 20.688-2.486 31.007-9.997 39.571-11.267 12.846-35.547 19.295-54.431 14.084-7.3-2.012-17.826-6.604-30.733-4.024-3.703.722-9.363 2.425-9.257 3.766.106 1.032 3.915 2.064 6.612 2.373 2.063.207 3.386.052 3.491.465.318.98-5.659 2.631-5.501 4.333.106 1.445 4.814 2.58 8.675 2.683 2.963.103 8.199-.258 14.547-3.818 5.607 1.29 12.007 2.374 19.043 2.786 22.481 1.342 40.889-4.385 52.367-9.235 2.328-4.075 5.29-9.802 8.147-16.921 8.833-21.875 9.838-40.087 9.997-45.039.317-7.43.053-17.851-2.433-30.181-.37-.774-1.957-3.715-5.607-5.263-3.068-1.289-5.872-.773-6.824-.567Z" opacity=".18"/>
  <path fill="#3D3D3D" d="M341.285 254.447c-8.199 1.239-12.96 2.528-16.663 3.251-15.022 3.095-27.189 1.702-31.473 1.186-4.391-.464-7.988-1.186-10.474-1.702-3.015 1.186-7.511 2.682-13.118 3.301-7.194.774-12.325-.257-12.484.62-.159.825 4.232 2.992 8.887 3.508 7.088.774 12.854-2.58 15.446-4.334 3.279.877 7.987 2.012 13.753 2.683 30.627 3.663 57.551-8.719 57.234-9.854-.053-.361-3.756.206-11.108 1.341Z" opacity=".21"/>
  <path fill="#161616" d="M252.683 254.551c4.972-2.064 10.367-2.477 15.604-1.29 1.005.206 1.428-1.29.423-1.496-5.712-1.29-11.425-.826-16.821 1.444-.952.413-.106 1.754.794 1.342Zm-2.804-4.953c5.872-2.064 12.008-2.735 18.197-1.961 1.005.103 1.005-1.444 0-1.548-6.295-.773-12.643-.103-18.62 2.013-.952.361-.529 1.857.423 1.496Zm1.481-5.263a51.72 51.72 0 0 1 17.774-1.857c1.005.052 1.005-1.496 0-1.548-6.136-.412-12.272.258-18.197 1.909-1.005.258-.582 1.754.423 1.496Z"/>
  <path fill="#fff" stroke="#161616" stroke-width="3" d="M279.343 74.91c-14.759 11.66-14.177 35.392-8.358 50.714 3.65 9.699 9.574 16.355 13.383 20.018.952 3.921 1.851 7.893 2.803 11.814 4.655.98 10.791 1.754 17.932 1.135 16.081-1.445 27.401-9.08 32.426-13.053-3.544-8.564-7.088-17.128-10.632-25.743-.476-3.148-1.164-7.997-2.01-13.879-2.169-15.425-2.063-16.25-3.015-18.727-.424-1.032-6.401-15.787-20.419-18.418-11.372-2.115-20.735 5.004-22.11 6.14Z"/>
  <path fill="#161616" stroke="#161616" stroke-width="3" d="M267.176 114.377a40.718 40.718 0 0 0-1.111 14.446c.424 4.076 1.111 11.144 6.348 17.954 5.66 7.377 13.33 10.163 16.557 11.195a17.666 17.666 0 0 1-.688-3.044 13.645 13.645 0 0 1 0-3.302c3.491 1.806 6.982 3.663 10.421 5.469 8.781-7.842 11.69-14.962 12.695-20.172.793-4.076 1.269-11.557 3.174-25.177.317-2.425 1.005-6.81 3.861-7.893 1.323-.516 3.121-.31 4.338.671 3.491 2.837-.053 10.937.687 11.195.741.206 6.824-7.945 4.761-17.335-1.058-4.85-3.967-8.203-5.66-9.854-3.808 5.83-8.04 11.815-12.695 17.954-2.962 3.921-5.924 7.635-8.834 11.195-1.111.568-2.75 1.238-4.655 1.084-1.481-.104-2.01-.619-3.121-.929-4.126-1.135-6.347 3.56-10.367 2.941-3.333-.516-3.65-3.973-7.3-4.076-1.746-.052-2.486.722-4.285.361-1.904-.413-3.226-1.651-4.126-2.683Z"/>
  <path fill="#161616" d="M284.209 100.603a103.086 103.086 0 0 0-2.38 17.025c-.053.619.687.928 1.216.67 2.063-1.031 4.126-2.063 6.242-3.095.899-.464.106-1.806-.793-1.341-2.063 1.031-4.126 2.063-6.242 3.095.423.206.793.464 1.217.671.37-5.624 1.11-11.144 2.327-16.613.159-.98-1.375-1.392-1.587-.412Z"/>
  <path fill="#161616" stroke="#161616" stroke-width="3" d="M275.904 103.75c.582.877.688 2.218.212 2.476-.582.31-2.222-.877-2.433-2.218-.053-.413 0-1.135.37-1.342.529-.258 1.428.413 1.851 1.084Z"/>
  <path fill="#161616" d="M273.154 98.436c1.851-.929 4.073-.774 5.765.516.794.619 1.905-.465 1.111-1.084-2.221-1.754-5.131-2.063-7.67-.773-.899.464-.106 1.805.794 1.34Zm18.461.774c2.644-1.703 6.241-1.135 8.04 1.444.582.826 1.957.052 1.375-.774-2.274-3.198-6.823-4.178-10.209-2.012-.846.568-.053 1.91.794 1.342Zm-36.076-9.854c21.106 1.186 42.212 2.94 63.212 5.159 3.068.31 3.015-4.334 0-4.643-21-2.219-42.106-3.973-63.212-5.16-3.068-.154-3.068 4.489 0 4.644Z"/>
  <path fill="#5222D0" d="M269.239 86.209c.318-3.147 1.64-11.247 8.094-17.8 8.41-8.563 23.909-12.175 35.969-4.9 9.469 5.726 14.494 16.767 12.801 28.014-18.99-1.754-37.927-3.56-56.864-5.314Z"/>
  <path fill="#3A1DA3" d="M295.899 61.239c-2.486 2.012-2.486 6.19-1.587 10.68.952 4.9 3.386 10.885 7.088 16.973 8.199.928 16.451 1.857 24.65 2.785.371-1.702.688-4.23.371-7.274 0 0-.529-5.52-3.544-10.525-6.031-9.905-21.794-16.87-26.978-12.64Z" opacity=".69"/>
  <path fill="#3D3D3D" d="M321.66 118.144c-1.851.98-3.703.722-4.338.619a41.38 41.38 0 0 1 3.597 9.183c1.058 4.23 2.592 10.009.582 16.664-1.798 5.933-5.607 9.854-8.199 12.021a46.178 46.178 0 0 0 11.955-3.87 45.358 45.358 0 0 0 11.637-8.048c-3.914-10.782-7.776-21.565-11.69-32.348 0 .207-.212 4.076-3.544 5.779Z" opacity=".24"/>
  <path fill="#3D3D3D" d="M303.146 92.76a28.463 28.463 0 0 1 .476 10.577c-1.058 7.377-4.708 12.485-6.665 14.807l3.491-1.084a251.394 251.394 0 0 0 6.983-8.616c3.808-4.901 7.352-9.699 10.526-14.394-4.919-.36-9.892-.825-14.811-1.29Z" opacity=".19"/>
  <path fill="#161616" stroke="#161616" stroke-width="3" d="M295.952 104.214c.582.877.688 2.218.212 2.476-.582.31-2.222-.877-2.434-2.218-.052-.413 0-1.135.371-1.341.529-.258 1.375.412 1.851 1.083Z"/>
  <ellipse cx="272.783" cy="107.774" stroke="#161616" stroke-width="2" rx="9.574" ry="9.338"/>
  <ellipse cx="295.053" cy="107.774" stroke="#161616" stroke-width="2" rx="9.574" ry="9.338"/>
  <path fill="#161616" d="M283.469 108.083c.211-.258.634-.361.899-.154.317.257.793.309 1.111 0 .264-.258.317-.826 0-1.084-.9-.774-2.328-.774-3.121.155-.265.309-.318.774 0 1.083.264.31.846.31 1.111 0Zm-19.467.31a33.523 33.523 0 0 0 2.963-1.703c.846-.516.053-1.857-.794-1.341a33.39 33.39 0 0 1-2.962 1.702c-.952.465-.106 1.806.793 1.342Zm41.207-.155c4.391-1.083 8.834-2.115 13.224-3.198 1.005-.258.582-1.755-.423-1.497-4.39 1.084-8.834 2.116-13.224 3.199-1.005.258-.582 1.754.423 1.496Z"/>
  <path fill="#fff" d="M265.467 551.933c-1.057 0-1.998-.144-2.824-.432-.825-.285-1.523-.705-2.093-1.258a5.382 5.382 0 0 1-1.302-2.019c-.299-.795-.448-1.7-.448-2.714 0-1.001.149-1.909.448-2.724a5.785 5.785 0 0 1 1.317-2.098 5.791 5.791 0 0 1 2.113-1.353c.835-.315 1.787-.472 2.854-.472.987 0 1.869.144 2.645.432a5.49 5.49 0 0 1 1.978 1.233 5.227 5.227 0 0 1 1.238 1.895c.285.729.426 1.536.423 2.421a7.86 7.86 0 0 1-.159 1.68 4.23 4.23 0 0 1-.517 1.338 2.616 2.616 0 0 1-.915.899c-.378.219-.835.343-1.372.373-.385.03-.696.002-.935-.084a1.146 1.146 0 0 1-.547-.383 1.402 1.402 0 0 1-.238-.602h-.06c-.08.199-.235.38-.467.542a2.745 2.745 0 0 1-.85.373 3.374 3.374 0 0 1-1.059.095 3.14 3.14 0 0 1-1.114-.274 2.824 2.824 0 0 1-.93-.691 3.313 3.313 0 0 1-.636-1.119c-.153-.444-.23-.957-.234-1.541.004-.576.085-1.079.244-1.506.162-.428.376-.787.641-1.079.269-.292.567-.52.895-.686.328-.166.658-.272.989-.318.375-.057.73-.057 1.064 0 .335.056.617.147.845.273.232.126.377.262.433.408h.07v-.557h1.556v4.852c.003.229.054.406.154.532a.485.485 0 0 0 .403.189c.228 0 .419-.101.571-.303.156-.202.272-.512.348-.93.08-.417.12-.949.12-1.596 0-.623-.083-1.17-.249-1.64a3.485 3.485 0 0 0-.686-1.208 3.617 3.617 0 0 0-1.019-.816 4.73 4.73 0 0 0-1.263-.457 6.668 6.668 0 0 0-1.392-.144c-.825 0-1.546.126-2.163.378a4.142 4.142 0 0 0-1.541 1.049c-.411.45-.719.979-.925 1.586a6.263 6.263 0 0 0-.308 1.973c.003.786.113 1.482.328 2.088.219.604.541 1.111.965 1.522a4.13 4.13 0 0 0 1.571.934c.623.212 1.339.318 2.147.318a7.35 7.35 0 0 0 1.119-.084c.365-.053.694-.119.989-.199.295-.076.532-.151.711-.224l.493 1.442a3.936 3.936 0 0 1-.851.333 8.185 8.185 0 0 1-1.203.254 9.318 9.318 0 0 1-1.372.099Zm-.229-4.494c.405 0 .726-.078.965-.234.242-.156.414-.386.517-.691.106-.308.156-.688.149-1.138a3.074 3.074 0 0 0-.154-1.01 1.142 1.142 0 0 0-.502-.631c-.235-.146-.564-.219-.984-.219-.368 0-.682.078-.94.234a1.534 1.534 0 0 0-.587.656 2.34 2.34 0 0 0-.204.985c.004.351.06.684.169.999.11.311.29.565.542.761.252.192.595.288 1.029.288Zm12.048-6.075v1.591h-4.599v-1.591h4.599Zm-3.555-1.83h2.118v7.119c0 .196.03.348.09.458.059.106.142.18.248.224.11.043.235.064.378.064.099 0 .199-.008.298-.025.1-.02.176-.035.229-.044l.333 1.576a6.018 6.018 0 0 1-.447.114 3.636 3.636 0 0 1-.701.084c-.511.02-.958-.048-1.343-.203a1.88 1.88 0 0 1-.89-.726c-.212-.328-.316-.743-.313-1.243v-7.398Zm4.934 9.466v-7.636h2.019v1.347h.089c.16-.448.425-.8.796-1.059.371-.259.815-.388 1.332-.388.524 0 .97.131 1.338.393.368.258.613.61.735 1.054h.08a2.03 2.03 0 0 1 .845-1.049c.411-.265.897-.398 1.457-.398.712 0 1.291.227 1.735.681.447.451.671 1.091.671 1.919V549h-2.113v-4.718c0-.424-.113-.742-.338-.955a1.185 1.185 0 0 0-.845-.318c-.385 0-.685.123-.9.368-.215.242-.323.562-.323.96V549h-2.053v-4.763c0-.374-.108-.673-.324-.895-.212-.222-.492-.333-.84-.333-.235 0-.447.06-.636.179-.186.116-.333.28-.443.492a1.57 1.57 0 0 0-.164.736V549h-2.118Zm12.77 0v-7.636h2.118V549h-2.118Zm1.064-8.621c-.315 0-.585-.104-.81-.313a1.017 1.017 0 0 1-.334-.761c0-.291.112-.542.334-.75a1.14 1.14 0 0 1 .81-.318c.315 0 .583.106.805.318a.984.984 0 0 1 .338.75c0 .295-.112.549-.338.761-.222.209-.49.313-.805.313Zm4.868 4.206V549h-2.118v-7.636h2.019v1.347h.089c.169-.444.453-.796.851-1.054.397-.262.88-.393 1.446-.393.531 0 .993.116 1.387.348.395.232.701.564.92.995.219.427.328.938.328 1.531V549h-2.118v-4.484c.004-.468-.116-.832-.358-1.094-.242-.265-.575-.398-.999-.398-.285 0-.537.061-.756.184a1.291 1.291 0 0 0-.507.537c-.119.232-.18.512-.184.84Zm11.488 1.164v-4.385h2.118V549h-2.033v-1.387h-.08a2.256 2.256 0 0 1-.86 1.079c-.397.272-.883.407-1.456.407-.511 0-.96-.116-1.348-.348a2.387 2.387 0 0 1-.909-.989c-.216-.427-.325-.94-.329-1.536v-4.862h2.118v4.484c.004.451.125.807.363 1.069.239.262.559.393.96.393.255 0 .494-.058.716-.174.222-.12.401-.295.537-.527.139-.232.207-.519.203-.86Zm10.166-2.208-1.939.12a.997.997 0 0 0-.214-.448 1.123 1.123 0 0 0-.432-.323 1.467 1.467 0 0 0-.631-.124c-.329 0-.605.069-.831.208-.225.136-.338.319-.338.547 0 .183.073.337.219.463.146.126.396.227.751.303l1.382.278c.742.153 1.296.398 1.66.736.365.338.547.782.547 1.333 0 .5-.147.939-.442 1.317-.292.378-.693.673-1.203.885-.508.209-1.093.313-1.755.313-1.011 0-1.817-.21-2.417-.631a2.462 2.462 0 0 1-1.049-1.73l2.083-.11c.063.309.216.544.458.706.242.159.552.239.93.239.371 0 .669-.071.894-.214.229-.146.345-.333.348-.562a.584.584 0 0 0-.243-.472c-.159-.126-.405-.222-.736-.288l-1.322-.264c-.746-.149-1.301-.408-1.666-.775-.361-.368-.542-.837-.542-1.407 0-.491.133-.913.398-1.268.268-.355.645-.628 1.128-.82.488-.193 1.058-.289 1.711-.289.964 0 1.723.204 2.277.612.557.407.881.963.974 1.665Zm5.918-4.723V549h-2.153v-8.138h-.06l-2.331 1.461v-1.909l2.52-1.596h2.024Zm5.253 10.306c-.58 0-1.105-.149-1.576-.447-.467-.302-.838-.744-1.113-1.328-.272-.586-.408-1.305-.408-2.157 0-.875.141-1.603.423-2.183.281-.583.656-1.019 1.123-1.307a2.877 2.877 0 0 1 1.546-.438c.428 0 .784.073 1.069.219.289.142.521.321.696.537.179.212.315.421.408.626h.065v-3.828h2.112V549h-2.088v-1.223h-.089c-.1.212-.24.423-.423.631a2.075 2.075 0 0 1-.701.512c-.285.136-.633.204-1.044.204Zm.671-1.685c.342 0 .63-.093.866-.278.238-.189.42-.453.546-.791.13-.338.194-.734.194-1.188 0-.454-.063-.849-.189-1.183-.126-.335-.308-.594-.547-.776a1.39 1.39 0 0 0-.87-.273c-.348 0-.641.094-.88.283a1.734 1.734 0 0 0-.541.785 3.37 3.37 0 0 0-.184 1.164c0 .444.061.837.184 1.178.126.338.306.603.541.796.239.188.532.283.88.283Zm8.896 1.71c-.786 0-1.462-.159-2.029-.477a3.277 3.277 0 0 1-1.302-1.362c-.305-.59-.457-1.288-.457-2.093 0-.786.152-1.475.457-2.069a3.384 3.384 0 0 1 1.288-1.387c.556-.331 1.209-.497 1.958-.497.504 0 .973.081 1.407.244.438.159.819.399 1.144.721.328.321.583.726.765 1.213.183.484.274 1.05.274 1.7v.582h-6.448v-1.313h4.454c0-.305-.066-.575-.199-.81a1.426 1.426 0 0 0-.551-.552 1.576 1.576 0 0 0-.811-.204c-.321 0-.606.075-.855.224a1.576 1.576 0 0 0-.577.592c-.139.245-.21.518-.213.82v1.248c0 .378.069.704.208.979.143.275.343.487.602.636.258.15.565.224.92.224.235 0 .45-.033.646-.099a1.297 1.297 0 0 0 .82-.786l1.959.129a2.669 2.669 0 0 1-.611 1.233c-.305.348-.7.62-1.184.816-.48.192-1.035.288-1.665.288ZM351 543.541l-1.939.12a1.008 1.008 0 0 0-.214-.448 1.127 1.127 0 0 0-.433-.323 1.464 1.464 0 0 0-.631-.124c-.328 0-.605.069-.83.208-.226.136-.338.319-.338.547a.59.59 0 0 0 .218.463c.146.126.397.227.751.303l1.382.278c.743.153 1.296.398 1.661.736.364.338.547.782.547 1.333 0 .5-.148.939-.443 1.317-.291.378-.693.673-1.203.885-.507.209-1.092.313-1.755.313-1.011 0-1.816-.21-2.416-.631a2.46 2.46 0 0 1-1.049-1.73l2.083-.11c.063.309.215.544.457.706.242.159.552.239.93.239.371 0 .67-.071.895-.214.229-.146.345-.333.348-.562a.585.585 0 0 0-.244-.472c-.159-.126-.404-.222-.735-.288l-1.323-.264c-.746-.149-1.301-.408-1.665-.775-.362-.368-.542-.837-.542-1.407 0-.491.132-.913.397-1.268.269-.355.645-.628 1.129-.82.487-.193 1.057-.289 1.71-.289.965 0 1.724.204 2.277.612.557.407.882.963.975 1.665Zm1.507 5.459v-7.636h2.118V549h-2.118Zm1.064-8.621c-.315 0-.585-.104-.81-.313a1.016 1.016 0 0 1-.333-.761c0-.291.111-.542.333-.75a1.14 1.14 0 0 1 .81-.318c.315 0 .584.106.806.318a.988.988 0 0 1 .338.75c0 .295-.113.549-.338.761a1.133 1.133 0 0 1-.806.313Zm6.191 11.644c-.686 0-1.274-.095-1.765-.284-.487-.185-.875-.439-1.163-.76a2.335 2.335 0 0 1-.562-1.084l1.959-.264c.059.153.154.295.283.428.129.133.3.239.512.318.216.083.478.124.786.124.46 0 .84-.112 1.138-.338.302-.222.453-.595.453-1.118v-1.397h-.09a2.025 2.025 0 0 1-.417.601 2.126 2.126 0 0 1-.716.463c-.292.119-.64.179-1.044.179a3.133 3.133 0 0 1-1.566-.398c-.468-.269-.841-.678-1.119-1.228-.275-.554-.413-1.253-.413-2.098 0-.865.141-1.588.423-2.168.282-.58.656-1.014 1.124-1.302.47-.289.986-.433 1.546-.433.427 0 .785.073 1.074.219.288.142.52.321.696.537.179.212.316.421.412.626h.08v-1.282h2.103v7.711c0 .649-.159 1.193-.478 1.63-.318.438-.759.766-1.322.985-.56.222-1.205.333-1.934.333Zm.045-4.723c.341 0 .63-.085.865-.254.239-.172.421-.417.547-.736.129-.321.194-.706.194-1.153 0-.447-.063-.835-.189-1.163a1.702 1.702 0 0 0-.547-.771 1.394 1.394 0 0 0-.87-.273c-.348 0-.642.094-.88.283a1.702 1.702 0 0 0-.542.776 3.288 3.288 0 0 0-.184 1.148c0 .441.061.822.184 1.143.126.319.307.566.542.741.238.173.532.259.88.259Zm7.492-2.715V549h-2.118v-7.636h2.019v1.347h.089c.169-.444.452-.796.85-1.054.398-.262.88-.393 1.447-.393.53 0 .993.116 1.387.348.394.232.701.564.92.995.219.427.328.938.328 1.531V549h-2.118v-4.484c.003-.468-.116-.832-.358-1.094-.242-.265-.575-.398-.999-.398-.285 0-.537.061-.756.184a1.291 1.291 0 0 0-.507.537 1.86 1.86 0 0 0-.184.84Z"/>
</svg>
