<svg xmlns="http://www.w3.org/2000/svg" width="1440" height="278" fill="none" viewBox="0 0 1440 278">
  <path fill="#5A189A" d="M0 0h1440v263H0z"/>
  <path fill="#3C096C" d="M0 96.799V263h1439V89.493l-16.49-34.701-21-21.917-38.98-10.958L1326.54 0l-55.48 12.785-64.48 29.222-76.47-9.132-56.98 21.917-92.971-42.007-82.971 29.222-89.968 29.222-97.467-16.437-64.477-32.875L561.305 0l-88.469 42.007-79.973 12.785-80.971 16.437-71.975-29.222L152.947 0 62.978 42.007 0 96.799Z"/>
  <path fill="#240046" d="M52.536 144.055 0 167.908V278h1439V167.908l-13.51-23.853-33.02-31.193-51.04-16.513-67.54 47.706-58.55 23.853-51.03-55.046-61.54-16.513-88.57 82.568-57.535-11.009-63.044-33.027h-40.528l-57.04 33.027-100.57 11.009-69.048-34.862-42.029-18.349-54.037 18.349-105.574 62.385-42.029-27.523-60.042-44.036-82.557 33.027-70.549 27.523L90.063 78l-37.527 66.055Z"/>
</svg>
