<svg xmlns="http://www.w3.org/2000/svg" width="1440" height="260" fill="none" viewBox="0 0 1440 260">
  <path fill="#080315" d="M0 0h1440v259H0z"/>
  <path fill="#5222D0" d="M166.096 60.093 0 89.887v169.169h1440V60.093l-142.5-50.037L1205 0l-91.15 60.093-202.84 51.508L605 29.056l-114.5 22-147.235 81.755-177.169-72.718Z"/>
  <path fill="#3C096C" d="M130 85.772 0 152.995v106.061h1440V85.772l-74.5-52.284-63 52.284-130-29.716-85.5 55-121-25.284-147 25.284-91-25.284-141.185 67.223-179.249-67.223L249.5 152.995 130 85.772Z"/>
  <path fill="#10012C" d="M185.806 128.394 0 199.439v59.618h1440V145.783l-239.75-42.726-307.68 63.592-265.224-38.255-253.735 38.255-187.805-38.255Z"/>
</svg>
