<svg xmlns="http://www.w3.org/2000/svg" width="1439" height="295" fill="none" viewBox="0 0 1439 295">
  <path fill="#720E9E" d="M-1 0h1440v295H-1z"/>
  <path fill="#5A189A" d="M278.031 0-1 126.185V295h1440V73.892l-214.75 138.69L873.464 23.304 577.491 158.015 278.031 0Z"/>
  <path fill="purple" d="M207.223 126.765-1 175v120h1440V100.294l-57.7 26.471L1189.63 85l-165.57 41.765-189.659-26.471-160.056 91.765-143.498-43.53-180.126 54.706-143.498-76.47Z"/>
  <path fill="#1D1160" d="M191.599 180.613-1 225.66V295h1440V180.613L1251.89 130l-201.58 65.798L785.362 130 652.139 263.113l-177.63-67.315-161.164 67.315-121.746-82.5Z"/>
</svg>
